<mxfile host="app.diagrams.net" agent="Mozilla/5.0 (Windows NT 10.0; Win64; x64) AppleWebKit/537.36 (KHTML, like Gecko) Chrome/128.0.0.0 Safari/537.36 OPR/114.0.0.0 (Edition Yx 05)" version="24.7.15">
  <diagram name="Страница — 1" id="Mcnt3B9SNV08wuTetPXQ">
    <mxGraphModel dx="1620" dy="774" grid="1" gridSize="10" guides="1" tooltips="1" connect="1" arrows="1" fold="1" page="1" pageScale="1" pageWidth="827" pageHeight="1169" math="0" shadow="0">
      <root>
        <mxCell id="0" />
        <mxCell id="1" parent="0" />
        <mxCell id="3mUuBoe2LMrYQuI42Ug3-15" value="" style="whiteSpace=wrap;html=1;" vertex="1" parent="1">
          <mxGeometry x="126" y="120" width="574" height="350" as="geometry" />
        </mxCell>
        <mxCell id="3mUuBoe2LMrYQuI42Ug3-23" value="" style="whiteSpace=wrap;html=1;" vertex="1" parent="1">
          <mxGeometry x="514" y="180" width="160" height="310" as="geometry" />
        </mxCell>
        <mxCell id="3mUuBoe2LMrYQuI42Ug3-17" value="" style="whiteSpace=wrap;html=1;" vertex="1" parent="1">
          <mxGeometry x="154" y="180" width="340" height="250" as="geometry" />
        </mxCell>
        <mxCell id="3mUuBoe2LMrYQuI42Ug3-1" value="" style="image;sketch=0;aspect=fixed;html=1;points=[];align=center;fontSize=12;image=img/lib/mscae/Docker.svg;" vertex="1" parent="1">
          <mxGeometry x="382" y="100" width="50" height="41" as="geometry" />
        </mxCell>
        <mxCell id="3mUuBoe2LMrYQuI42Ug3-3" value="Container" style="swimlane;" vertex="1" parent="1">
          <mxGeometry x="172" y="220" width="131" height="170" as="geometry" />
        </mxCell>
        <mxCell id="3mUuBoe2LMrYQuI42Ug3-4" value="" style="sketch=0;outlineConnect=0;fontColor=#232F3E;gradientColor=none;fillColor=#C925D1;strokeColor=none;dashed=0;verticalLabelPosition=bottom;verticalAlign=top;align=center;html=1;fontSize=12;fontStyle=0;aspect=fixed;pointerEvents=1;shape=mxgraph.aws4.rds_postgresql_instance;" vertex="1" parent="3mUuBoe2LMrYQuI42Ug3-3">
          <mxGeometry x="21" y="40" width="78" height="78" as="geometry" />
        </mxCell>
        <mxCell id="3mUuBoe2LMrYQuI42Ug3-5" value="Container" style="swimlane;" vertex="1" parent="1">
          <mxGeometry x="344" y="220" width="131" height="170" as="geometry" />
        </mxCell>
        <mxCell id="3mUuBoe2LMrYQuI42Ug3-11" value="" style="shape=image;verticalLabelPosition=bottom;labelBackgroundColor=default;verticalAlign=top;aspect=fixed;imageAspect=0;image=data:image/png,iVBORw0KGgoAAAANSUhEUgAACAAAAAQgCAIAAAD9ySslAAAAAXNSR0IArs4c6QAAIABJREFUeJzs3Xd8nflB53sf9S6rWJYsW8VykWXLdTwVSCEhC2T33gQWUmCXJCy7wMJy2RIW2M2GmgUukFCTcLkkYUPZZdNmxuNuS+5yL3KRLVm2bFnVtno9un9oZjIJcydjj6SfztH7/QqDLMs6n+HFazJ6vs/5PZGpqalFAAAAAABAfEkIHQAAAAAAAMw8AwAAAAAAAMQhAwAAAAAAAMQhAwAAAAAAAMQhAwAAAAAAAMQhAwAAAAAAAMQhAwAAAAAAAMQhAwAAAAAAAMQhAwAAAAAAAMQhAwAAAAAAAMQhAwAAAAAAAMQhAwAAAAAAAMQhAwAAAAAAAMQhAwAAAAAAAMQhAwAAAAAAAMQhAwAAAAAAAMQhAwAAAAAAAMQhAwAAAAAAAMQhAwAAAAAAAMQhAwAAAAAAAMQhAwAAAAAAAMQhAwAAAAAAAMQhAwAAAAAAAMQhAwAAAAAAAMQhAwAAAAAAAMQhAwAAAAAAAMQhAwAAAAAAAMQhAwAAAAAAAMQhAwAAAAAAAMQhAwAAAAAAAMQhAwAAAAAAAMQhAwAAAAAAAMQhAwAAAAAAAMQhAwAAAAAAAMQhAwAAAAAAAMQhAwAAAAAAAMQhAwAAAAAAAMQhAwAAAAAAAMQhAwAAAAAAAMQhAwAAAAAAAMQhAwAAAAAAAMQhAwAAAAAAAMQhAwAAAAAAAMQhAwAAAAAAAMQhAwAAAAAAAMQhAwAAAAAAAMQhAwAAAAAAAMQhAwAAAAAAAMQhAwAAAAAAAMQhAwAAAAAAAMQhAwAAAAAAAMQhAwAAAAAAAMQhAwAAAAAAAMQhAwAAAAAAAMQhAwAAAAAAAMQhAwAAAAAAAMQhAwAAAAAAAMQhAwAAAAAAAMQhAwAAAAAAAMQhAwAAAAAAAMQhAwAAAAAAAMQhAwAAAAAAAMQhAwAAAAAAAMQhAwAAAAAAAMQhAwAAAAAAAMQhAwAAAAAAAMQhAwAAAAAAAMQhAwAAAAAAAMQhAwAAAAAAAMQhAwAAAAAAAMQhAwAAAAAAAMQhAwAAAAAAAMQhAwAAAAAAAMQhAwAAAAAAAMQhAwAAAAAAAMQhAwAAAAAAAMQhAwAAAAAAAMQhAwAAAAAAAMQhAwAAAAAAAMQhAwAAAAAAAMQhAwAAAAAAAMQhAwAAAAAAAMQhAwAAAAAAAMQhAwAAAAAAAMQhAwAAAAAAAMQhAwAAAAAAAMQhAwAAAAAAAMQhAwAAAAAAAMQhAwAAAAAAAMQhAwAAAAAAAMQhAwAAAAAAAMQhAwAAAAAAAMQhAwAAAAAAAMQhAwAAAAAAAMQhAwAAAAAAAMQhAwAAAAAAAMQhAwAAAAAAAMQhAwAAAAAAAMQhAwAAAAAAAMQhAwAAAAAAAMQhAwAAAAAAAMQhAwAAAAAAAMQhAwAAAAAAAMQhAwAAAAAAAMQhAwAAAAAAAMQhAwAAAAAAAMQhAwAAAAAAAMQhAwAAAAAAAMQhAwAAAAAAAMQhAwAAAAAAAMQhAwAAAAAAAMQhAwAAAAAAAMQhAwAAAAAAAMQhAwAAAAAAAMQhAwAAAAAAAMQhAwAAAAAAAMShpNABAAAAACx0U1NTo2Nj42PjY+NjY9/86/jo6OjI6OjY+Pj42NjY+Pj4+MTUVDQ6NTU5OTk5GZ2aikajU9FodDI6ORWdik5FX/PJycnJaDQanZqamv7ShEgkMTExEokkJCQkJiZEIgmRSCQhIRKJJCQmJiREEiIJkcSExEgkEolEEhMTk5OSUlKSU5KTU1JSkpOTk5OSkpKTUpJTUlKSX/1rUlJSclJSckpyWmpq6P8TArwOAwAAAAAAb9Xk5OTQ0PDg8NDQ0PDQ0NDg8PDQ0NDQ8PDg0NDIyOjQ8NDQ0PDg0NDQ8PDQ8PDY2Guv8r98aX9qair038TjS0hISE9LS09LS0tPy0zPyMhIT09LS09Py0jPyMhIT0tNS09Py0yf/kVaRkZGdlZWTnZWdlZWYmJi6HYgnkVi+p+tAAAAAMyS8fHxvv7+vv6Bvv6+h339D/v6+gcG+gcG+/r6BgYHpy/uDw0NDw0PDQ4Nj42Nhe6NSenp6TlZWdnZWdlZWdlZWTnZ2dlZWVlZmbk5OdlZWTlZWTk52bk5OTnZ2ZFIJHQsEHsMAAAAAAALy+jY2P0HDx729fcP9Pf3Dzzs6+/r75++yt/fP9A30N/X1/+wr29kdDR0KS9LTEzMzclZnJubl5ubl7d4cW7u4tyc/MXTH+Tm5y1enJvrzQTAP2YAAAAAAIgr0Wj0/oMHvfcf9D54cP/+/d4HD+4/eNh7//6rnxweHg7dyAyLRCKZmRn5i/MW5+Yszs3NW7y4ID9/SUHBksL8woKCwoKC1JSU0I1AAAYAAAAAgBgzPDLS1d3T09s7fU3//oPpa/0Peh/c773/oH9gIBqNhm5kfsnJzi4sKCjMzyvIn54E8pcUFBQWFCwpLMjKzAxdB8wWAwAAAADAfDQ2NtbV09PZ1d3Z3T19ub+ru6ezu6uzq3twaCh0HfEjLTW1ID+/ID9vSWHB0iVLSpYuLSleuqykZElBQeg04K0yAAAAAAAEMz4+3tnd3d3T09Xd29XT09Xd3dnV3dXT093T09ffH7qOBS0lJaVk6dLSkuKS4qXFRUtLS4qXlRQXFxV52ADEEAMAAAAAwKwbn5jo6Oxsv9fR3tHR3tHZ3tHR2dXV3dPz4GGfizPEkMTExCWFBSVLl5aWlJQULy0tKVlWXFxSvDQtNTV0GvA6DAAAAAAAM6mnt3f6Qv+9zq57HR3tHR3t9zp67t93EYY4Vpifv7KivLKifGV5eWV5ednyUm8UgPnAAAAAAADwOIaGh+91dE5f37/XOf3XrnudnWNjY6HTILDk5OTyFcunx4CVFeUrK8oX5+aGjoKFyAAAAAAA8B2MjIy0tbe33W1vu3P3Tnt72927d9vvOaMf3ry8xbkryysqK8pXlpdVVVaWLS9NSkoKHQXxzwAAAAAA8E0TExN373XcbW9vu9s+fa2/7c5dB/jAzEpMTCxbXrqyoryqsrJm7do1VSuTk5NDR0EcMgAAAAAAC1dnV3fb3bttd++23W2/c/du2932jq6uycnJ0F2wsCQlJVVVVKxbu6Zm7Zr11dVFSwpDF0GcMAAAAAAAC8LY2NitO3du3W5rbWu73Xan7e7dO+33nNcP81B+Xt70GLBxfc2aqqqEhITQRRCrDAAAAABAHBoZHb3ddqf1dtvN27dab7fdut12r7MzGo2G7gIeTWZGRu36mk3r12/euGFVZWXoHIgxBgAAAAAg5o2MjLS23bl569at222tt9ta2253dnW73A9xJjsra+OG9ZvW12yura0sLwudAzHAAAAAAADEmKHh4dZbt1tv325tu3Pr9u3W222d3d0uccCCkp+X99S2rdu3btm2eVNGenroHJinDAAAAADAvBaNRm/fudN8s7Wl9VbzzdaW1taunh4XNIBpSUlJtTXrnty69cltW8uWl4bOgfnFAAAAAADML339/Tdabja3Tl/xv9l6u82jeoE3o3hp0VPbtj6zffuWjbUeHQwGAAAAACCw6Rv8X77if7O1+WZrd29v6CggtuVkZ3/X00+97blnN9dusASwkBkAAAAAgDn1sK+v+WbrjZabLa2tza2trbfbxsfHQ0cB8SknJ/u7nrIEsHAZAAAAAIDZ1X6vo6m5+Xpzy/Xmlhs3b/bevx+6CFhwcnNyvvuZp9/+Xc9t2rA+dAvMHQMAAAAAMMPa7t5tutF8vbmlqbm5qbl5YGAwdBHAy0qWLn33O97+nne+o2hJYegWmHUGAAAAAOAtiUajrbfbrjc3NzW3XG9uvtFyc2h4OHQUwBtJSEjYUlv7nu99x3c983RyUlLoHJgtBgAAAADg0UxOTrbcunX9RvP1lpamG83NN1tHRkdDRwE8jqyszO/9nu9+zzvfubpqZegWmHkGAAAAAOA7GJ+YaL7Zeu369elTfW7euu2xvUCcWbOq6of+6Xvf9tyziYmJoVtgxhgAAAAAgNdxq+3O1aamq9evX7l2/cbNmxMTE6GLAGZdQX7eP/v+f/Le93xfTnZ26BaYAQYAAAAAYNGiRYt67z+40tR05VrTlaamphvNA4Oe3AssUCkpKe962/e8770/WFG2InQLvCUGAAAAAFighkdGrl2/fqXp+tWm61eamrq6e0IXAcwjkUhk68aN7/9nP/jk1q2hW+AxGQAAAABgoYhGo82trVdfueLferstGo2GjgKY79asqvoXH/jRp7aZAYg9BgAAAACIZ+33Oq68cpT/9ZaW0dHR0EUAMWntqlU//oEfMQMQWwwAAAAAEFfGx8ev3Wi+dOVK49VrjVeu3n/wIHQRQPwwAxBbDAAAAAAQ83ru32+8crXx6rXGK1eamlvGx8dDFwHEs+rVq378Az/i2QDMfwYAAAAAiD3Tp/k3XrnaePXqpStX73V0hi4CWHA219b+zMc+UlleFjoE/n8ZAAAAACA2DA4ONV59+Yr/lWtNwyMjoYsAFrrExMTvf9f3fuTDH8zJzg7dAq/DAAAAAADzV9vdu5euXG28cvXSlau32tr8FA8wD2VlZf7Yj/zz9/3gDyQkJIRugW9hAAAAAIB5ZGJi4ur1G+cvNV66fKXx6tX+gYHQRQC8KStKS3/6oz+xfeuW0CHwTQYAAAAACGxkZKTx6rULjY3nLzVeabo+NjYWugiAx/Tktq0/91M/WVxUFDoEFhkAAAAAIIz+gYELjZcvNF6+ePly043mycnJ0EUAzIz0tLSPfPiD73vvD4YOAQMAAAAAzJWe3t7zlxovXbly/lLjzVu3/UgOEMfWV1f/+3/70ytKS0OHsKAZAAAAAGAW3Wlvv3j5yoXGyxcuNd69dy90DgBzJyU5+cM/8sMfeP/7PByYUAwAAAAAMMNaWm9daGy80Hj5QmNjT+/90DkAhLS6auWv/OL/VbqsJHQIC5EBAAAAAGbA9ZaWs+cvnrt06eLlywMDg6FzAJhH0tPTf/6n/tW73v49oUNYcAwAAAAA8JhaWm+dvXDh3KXG8xcv9Q8MhM4BYF579zve9vP/+qfSUlNDh7CAGAAAAADgEdxqu3P2woVzFy+du3jpYV9f6BwAYsny0mW/+u9/saqyInQIC4UBAAAAAL6DO+3tZy9cnL7o33vfmf4APL6U5OR/+1M/+f3v+t7QISwIBgAAAAB4Hfc6O8+ev3DuUuPZCxe7e3pC5wAQV9733h/8Nx/5lwkJCaFDiHMGAAAAAHhZT2/vmfMXz168ePbChY7OrtA5AMSzJ7Zs/tV//4uZmRmhQ4hnBgAAAAAWtAcP+86cPz99ws+d9vbQOQAsICtKS3/9l3+pdFlJ6BDilgEAAACABWd0bOz8xUunz184fe58S2urH40BCCU7K+sTH/+PmzasDx1CfDIAAAAAsCBMTU1du9F86uzZU2fPXb7WND4+HroIABYtWrQoJSXlV//DLz6z/YnQIcQhAwAAAADx7E57++lz58+cv3DmwoWBgcHQOQDwOhITE//jz/3s977te0KHEG8MAAAAAMSbh3190xf9T58739HlWb4AxICEhISf/cmP/bPvf0/oEOKKAQAAAIB4MDY2dvHyldPnz586e+5Gy00/7QIQiz764Q998IffH7qC+JEUOgAAAAAe0/Sx/qfPnT9z/vyly1fGHOsPQIz7y//x5YTEhB993/8ZOoQ4YQAAAAAgxnR2dTecOXPq7LmzFy72DwyEzgGAmfQXX/zrzIyM977n+0KHEA8MAAAAAMSA8fHxc5cunTxztuH02VttbaFzAGAW/dHn/iIjPf2d3/PdoUOIeQYAAAAA5q+2u3cbTp85eebsuUuNo6OjoXMAYC5Eo9Hf+cwfp6enP7P9idAtxDYPAQYAAGB+GRoePnX23Olz5xvOnOno7AqdAwBhpCQn//Yn/svG9TWhQ4hhBgAAAADmhaYbzQ1nzpw8c7bx6rXJycnQOQAQXm5Ozh//7qeKi4pChxCrDAAAAAAE87Cv79TZcw1nzp46e/b+g4ehcwBg3qkoK/uj//5baWlpoUOISQYAAAAA5lQ0Gr18renkmTMNp882NTdHo9HQRQAwrz375PZP/uePh64gJhkAAAAAmAtdPT0nTp1uOHP27PkLg0NDoXMAIJZ86Iff/5EPfyh0BbEnKXQAAAAAcSsajTZeuXri9Jnjp04337wZOgcAYtXf/MNX1qxa9dxTT4YOIcZ4BwAAAAAzrL9/oOHMmROnTzecPtvX3x86BwDiQU529mf/4P8uLMgPHUIsMQAAAAAwM663tJw4dfrEqTNXmpomJydD5wBAvNlcW/u7v/aJ0BXEEgMAAAAAj29kdPT0ufMNp88cO3mqu6cndA4AxLmP/fiHP/D+94WuIGYYAAAAAHhkd+/dO37y1InTZ85fvDQ2Ph46BwAWiqSkpD/87d9cu6oqdAixwQAAAADAmzIxMXGh8fKJ02eOnTzZdudu6BwAWKCWly77/B/+flJSUugQYoABAAAAgDdy/8GDE6fPHD956tTZc0PDw6FzAIBF//KDP/pjP/LPQ1cQAwwAAAAAvI6mG81HGxqOnTx1vbnFT44AMK+kpKR8/tO/v6y4OHQI850BAAAAgJeNT0ycPX/haMPJow0nPdEXAOazbZs3feoT/yV0BfOdg6IAAAAWuv7+gWMnTx5tOHny7Llhh/wAQCw4dfbcgcNH3v7cs6FDmNe8AwAAAGCBart798iJhmMNJxuvXpucnAydAwA8moL8vC/82Z+kpqSEDmH+MgAAAAAsIFNTU41Xrx1taDh64uSttrbQOQDAW/KxH//wB97/vtAVzF8GAAAAgPg3Mjp66uy5ow0njzWcfNjXFzoHAJgZ2VlZX/rzP83MzAgdwjxlAAAAAIhbPffvH2s4efTEyTMXLoyNjYXOAQBm3od++P0f+fCHQlcwTxkAAAAA4k3zzdbpw/2v3bjhhz4AiG/paWlf/PM/WZybGzqE+cgAAAAAEA+i0ei5i5cOHz9xrOFkR1dX6BwAYO68770/8DMf+2joCuYjAwAAAEAMGxsbO3n23OFjx482nOwfGAidAwAEkJaa+uW/+Gx2VlboEOadpNABAAAAPLLBwaGjDScPHT9+6szZkdHR0DkAQEgjo6Mv7Nr9gfe/L3QI8453AAAAAMSMnt7ew8dPHDnecO7SpYmJidA5AMB8saSw4K8/+2cJCQmhQ5hfvAMAAABgvmu7e/fw8ROHjh2/2nTdXVwAwD/W1d1Td+To27/rudAhzC8GAAAAgHmq6UbzoePHDx09fqutLXQLADDf/cM3njcA8G0MAAAAAPNINBo9d/HSkRMNR46f6OzuDp0DAMSMK9eart24saaqKnQI84gBAAAAILyxsbGTZ88dOdFwtKGhr68/dA4AEJP2HKgzAPBaHgIMAAAQzODg0PFTpw4dO95w+szI6GjoHAAgtuUtXvy3/8/nPAqYV3kHAAAAwFzr6+8/dOx4/dFjZy9cnJiYCJ0DAMSJ+w8enDp3fvuWzaFDmC8MAAAAAHPkwcOH9UeP1R89dv5S4+TkZOgcYMGJRCLJycnJSUlJSUnJSUmJSYmJCYmRSCSSEEmIJEQikYTpvyREIpFIYmJiQuSbv5z+Xwmvfulr/kxC5JtfMDU1FY1Gp6amot/60aJFi6Y/jr7mdxYtWjT9FdGpqWg0OjExOTExMTExMT4xPjHx8v+MT0z4ByY8kr0H6wwAvMoAAAAAMLt6envrjx6vP3r04uUr0Wg0dA4wTyUnJ6empqSlpKalp6WlpqampKalpqampqSnp6WmpKampqalpqakpExfv3/1In7Sqx8kJyV/88OXP0pJSU56zVfG7qkgk5OT4xMTr8wDr0wEExOvfHJ8bGx8ZHR0dHRseGR4dHRsZHR0bGxsZHR0ZGRkZHTa2Mjo6PArvxoZGx0dHRsfHw/9dwYz78jxEyOjo2mpqaFDmBcMAAAAALOis7u7/uix+iPHGq9e9fQ1iFcJCQmpqakvX6FPSU1/5dp9ampKWmrqq9fuU1NTpn83NTU1LSVl+oNXLvFPf1lK7F6dnwOJiYmJiYmLZvqC5uTk5Mjo6Mjo6ODg0NDw0MDg4MDg0ODg4MDg4NDw8NDQ8MDg4MDg4MufGRoeHB4aGho25TLPDY+MNJw+893PPB06hHnBAAAAADCT7t67V3/02KFjx682XXfdH+a/lJSUrMzMrMzMrMyMrMzMjIyMjPT0Vy7Qp6SmpqanpU1fpv+W2/NTU9NSUlNTU1JSUkL/HfD4EhMTMzMyMjMyCvLy3vyfGhwaGhwcGhgcHBoaGhwaetDX97Cv7+HDvgcPHz7s63/Y3/fg4cMHDx56tDsBNZw5awBgmgEAAABgBty+c+fg4aP1R48137wZugUWrqSkpMyM6ev46ZkZGZmvXNnPzMjMyEjPTE9/5TMv/yczM8N99zyq6c2gaEnhG3/Z+Pj49Dbw4OHDBw/6Hvb39fX3P3jw8LU7wcDA4FxVs7A0nD4TOoH5wgAAAADw+Fpab9UfPVZ35Gjr7duhWyAOpSQn5+TkZGdNX6zPzMrMzMxIz0jPyMzMeOUzGVmZmRnpGZkZ6ZmZmc68Zv5ITk5eUlCwpKDgDb5mbGysp/d+T29vV09PV09P7/37Pb33u7p7unt6eu7fn5iYmMNe4kp3T09L663K8rLQIYRnAAAAAHhk11tapq/7t925G7oFYlIkEsnOysrJyc7NzsnNyc7NycnJyc7Jzs7LzV2cm5uT8/In09PSQpfCLEpJSSkpXlpSvPR1f/fBw4fdvb3d3T1dPT3dvb0vTwXdPd09PYNDQ3MeS4xpOHPGAMCiRYsijqQEAAB4k65ev1F/9Gj9kWN3790L3QLzV3Jycm529vRF/MXTF/Szs6cv6OfmZOdk50x/kJiYGLoUYtXI6GhnV3d7R0f7vY57nR3t9zraOzrudXYNDw+HTmO+2Fxb+7u/9onQFYRnAAAAAPgOmm40Hzh0+ODhIx1dXaFbILCM9PS8xYsX5+a+9rb93Jyc3OzsxYtzF+fmum0fAnrY1ze9CrR3dHR0drV3dLR3dHR190xOToZOY66lJCd//W/+2tSKI4AAAABeX/PN1unr/u73Z0HJzMgoyM/Pz1tckJ9XkJefn59XkJ+fv3hxQX5eQX6+Q/ZhPsvNycnNyalevfq1n4xGox2dXfc6O9s7Ou51dLZ3dLTdvXv7zt3R0dFwpcy6sfHxGzdvrqmqCh1CYAYAAACAb9F6+/aBQ4cPHD7ifH/iVVZWZv7ivIJXruxPX+IvzMsryM/Pz89LTUkJHQjMpISEhOknDWxZVPvqJ6empu51dN66c6f19u1bbXdut7XdarszMDgYtJQZduVakwEARwABAAAsWrRoUdvdu/vrDx88fLj1dlvoFnirXnuJvyA/ryAvLy8vzyV+4I319PbearvTervtVlvb7Tt3Wm/fvv/gYegoHt+73/G2//TzPxe6gsC8AwAAAFjQ2u91HDh8pO7IkevNLaFb4BGkpqYuKSwoKizMz8ubvsRfkJ//6h39LvEDj2H6HyNbNn7zjQL9AwO32qbfJdB2u+1Oy61bXd09QRt5BJevNYVOIDzvAAAAABaijs6ug0eO1B0+evX69dAt8EZyc3KKlhQWLVlSVFhYVFi4tGhJ0ZIlS5cULs7NDZ0GLET9/QPXW1putNy83tLcdKPlTnu7JwzPW5FI5Ctf+kJmZkboEEIyAAAAAAtId0/vwSNH6g4fuXytyU9DzB+JiYnTt/MXLVlStOSVC/2FS4qWFHroLjCfjY2NNbe23mi5eaPlZlNzc/PN1rGxsdBRfNPv/fonN21YH7qCkBwBBAAAxL/e+w/qjhytO3Lk4uUrrvsTUEZ6+pLCwqVLCpcWFb36QdGSwoK8vISEhNB1AI8sJSWlevXq6tWrp38ZjUZv3rp9+dq1y9eaLl+9dvvOHf+1G1bb3bsGgAXOAAAAAMStvv7++qPHDhw6fP5SYzQaDZ3DQhGJRPIWL56+kb+4qGhJYWHRksLioqKiJYVZmZmh6wBmUUJCwsqK8pUV5T/4fe9etGjRwODglaamxivXGq9cvXr9+sDgYOjABaftbnvoBAIzAAAAAPFmcHCo/ujRA4eOnL140cHEzKqc7OxlJcWlJcUlS5cWL136yhX/gqQkP24DLMrKzHxi8+YnNm+e/mXr7duXr167dOXq2YsX73V0hq5bEO60GwAWOs8AAAAA4sTo2NjRhpP76+obzpwdHx8PnUNciUQiBXl5y0qKS0tKSoqLS4qXlixdWlpS7I5+gMfT2d197sLFc5cazxkDZtOK0tK//ONPh64gJAMAAAAQ2yYnJ0+ePbe/vv7I8YbhkZHQOcS8pKSk4qVFy5YuLSleWlJcXFpcvKykpGRpUXJycug0gPjU2dV97qIxYFYkJSW98Hdf9piZhcwAAAAAxKrzlxr31x+qO3K0r78/dAsxKT0traT41QN8ikpLSpaVFBcVFrpQAhBKZ1f36fPnG06fOX3uvGcGzIgvffZPi4uKQlcQjAEAAACIMU03mvfVHzpQf6i7tzd0CzEjNyenpHhpaUnxsuKSZa+c4ZOftzh0FwCvLxqNXrx85cTp0ydOnW5pvRU6J4Z95lO/tW7tmtAVBGMAAAAAYkPb3bv76g7trz/Udvdu6Bbmr0gkUliQX1pSUrJ06fTd/ctKipcVF2ekp4dOA+Ax9fT2Hj91+sTpM2fOnR8aHg6dE2M++Z8//uyT20NXEExS6AAAAIA30t3Tu6++fn/9oevNLaFbmHdSkpNLl5WsKC0tW166onT6P8vS0tJCdwEwkwry83/g3e/6gXe/a2Ji4kLj5ROnTtcfO9bR2RW6KzY8ePgwdAIheQcAAAAwH/X3Dxw4fHh//aGLl6/4sYVpuTk537zQv7y0rLS0eGlRJBIJ3QVAAFev3zi3TrbKAAAgAElEQVR87Hj9sWNtd7w18I185MMf/NAP/1DoCoIxAAAAAPPIyMjIkRMN++oOnTx7dnJyMnQOwSQmJhYXFU1f5V9RumzF8uVlpaXZ2VmhuwCYd1pab9UfPXbo2DGPCnhd73vvD/zMxz4auoJgHAEEAACENzExceL0mf31h442nBwdHQ2dw1zLSE+fvql/Remy6fN8SktKkpL8xArAd1ZZXlZZXvYvPvAjd+621x09Vn/0aNON5tBR88iDB44AWtC8AwAAAAjp3MWLew7UHTp2fGBwMHQLc2H6Ib1lpctfe7m/ID8/dBcA8aO9o2PPgbo9Bw7evXcvdEt4T27d8pv/5VdCVxCMAQAAAAigpfXW3rq6fXX1Xd09oVuYRSkpKaUlxd/ykN7lpWmpqaG7AFgQLjZe3n3g4MHDRwaHhkK3BLO5tvZ3f+0ToSsIxgAAAADMnZ7e3r119XsP1jffvBm6hZmXlJRUWlIyfRTDyvLy8rIVxUUe0gtAYOPj44dPNOzet//UufML8AlD66ur//C3fyN0BcE4UREAAJh1wyMjdUeO7j1Yd+7ipWg0GjqHmRGJREqWLq0oW1FRXlaxYkVFWVnZ8tLExMTQXQDwLZKTk9/+3LNvf+7Z+w8e7D1Yv/vAgeabraGj5s74xHjoBELyDgAAAGC2RKPRE6dO762r92jf+JC3OLeirKyirKyibEVlWVlFeVl6WlroKAB4ZFev3/j6izsOHD4yNjYWumXWVZaXfe4Pfz90BcEYAAAAgJl3+eq1vXV1Bw4dedjXF7qFx5Senl6+YnllWVllednKivKKsrLcnJzQUQAwY/oHBnbs2fv8S7vaOzpCt8yi0pKSv/rTPwpdQTAGAAAAYMbcvXdvz4G6vXV1d9vvhW7h0SQnJ68oLa0sX1G+oqyybEVFeVlxUVHoKACYC8dPnf7Gjp0NZ87E5UGFS5cs+evP/VnoCoLxDAAAAOCt6u8fOHD48N6D9Y1Xr7rHKCYkJCQUFxU5vh8AFi1a9NS2rU9t29re0fH8S7te2revr68/dNFMSkzy3+8LmncAAAAAj2l8fPxow8m9B+tOnD4zMTEROoc38urx/SvLyyorKspXLE9LTQ0dBQDzzvj4+L76Q//zq19vvX07dMvMWFlR8dk/+L3QFQTjHQAAAMAjO3fx4t6D9XVHjg4ODYVu4XUkJiaWlpSsrqpcVbmyqrJiZUW54/sB4M1ITk5+zzvf8Z53vuPIiYa/+8pXG69cDV30VqWlpoROICQDAAAA8GbdvHV7z8GD++rqu7p7QrfwLVJSUirLylZXrVy1srKqsmJleXlKip/2AeDxPfvk9mef3H7+UuPff+VrJ06fjt1jVNLS0kInEJIBAAAA+A4e9vXtq6vftf/A9eaW0C28LDsrq6qyYtXKlatXVlZVVqwoLU1ISAgdBQDxZuP6mo3ra1pab/39V7+2v/7Q5ORk6KJHlurQv4XNMwAAAIDXNzExcbTh5J4DBx3xPx8sKSyoqqxc9fJF/5VFSwpDFwHAwtLR2fW/vv6NHXv2jo6Ohm55BO/47u/65V/8hdAVBGMAAAAAvt2VpqY9Bw7urz/c198fumWBSkhIWL5sWVVlRVVlxeqVK1evXJmdnRU6CgBY9LCv7+++8tWv79gZKzPA97/7Xb/4M/8mdAXBGAAAAICXdfX07DlQt+fAwVttbaFbFpzpQ/xfveK/srIi1SH+ADBf9d5/8OX/9b9e3L13fHw8dMt38L73/sDPfOyjoSsIxgAAAAAL3cjo6KGjx/ccOHjmwoVoNBo6Z6HIyspcVVlZVVlRVVGxauXK8hXLHeIPALHlXmfnl/727/fW1c/nZwN88Ife/9Ef+1DoCoIxAAAAwMJ17uLF3Qfq6o4cHR4eDt0S/wrz81dVrVxVWbGyomJVZWVJ8dLQRQDADLjV1vZXX/7bQ8eOz88LrT/xoQ9++J//UOgKgkkKHQAAAMy1O+3tew4c3L3/YEdXV+iWeJaTk129atXa1avXVK2sXrN6cW5u6CIAYOaVLV/+X//Tf7h248bn/uqL5y5eCp3z7TLS00InEJIBAAAAForBwaEDhw/v2re/8eq10C3xKT09ffXKyurVq9euXrVmVVVxUVHoIgBgjqypqvq9X/9k3ZGjn/vCFzs659E9FoUFBaETCMkAAAAAcS4ajTacObtr3/5jDSfH5v1z6mJLcnLyyvLy6jWrVldVVa9eVbZ8eSQSCR0FAATzPc8+88z2J/7uK1/7+698dXhkJHTOokWLFhUtWRI6gZA8AwAAAOJW883WXfv376urv//gYeiWOJGQkLCitLR6zeq1q6rWrFpVVVGelOS2KgDg2/X09n7+i1/aV3co+NXX//lXf7k4NydsAwEZAAAAIN709ffvOVC3c9++5putoVviQfHSourVq1dXraxevXpN1cq0NAfpAgBvSuPVq3/yF3957fqNUAEpKSkv/N2XQ70684EBAAAA4kQ0Gj128tSu/QeOnzw1MTEROieG5S3OXVO1au3qVdWrV61dvSonOzt0EQAQq6ampv7h689/4W/+dmR0dO5fffmyZf/vn3xm7l+X+cObVQEAIObdamvbuXf/7gMH7z94ELolJmVmZKxZVbVmVdXaVauq16xe4ll5AMAMiUQiP/x//NPnnn7yD/70z8+cvzDHr77UAwAWPAMAAADEqsGhoQOHDr+0d9+Va02hW2JMSnLyysqK6tWr165atWZVVdny0tBFAEA8K1m69Hc++YmX9uz97Be+ODAwOGevW7SkcM5ei/nJAAAAALHn9LnzL+3dd/j4ibGxsdAtsSEhIaF8xfLpG/zXrl5VWVaWmJgYOgoAWFj+ybu+98lt2z7zuc8fPnZ8bl7RAIABAAAAYkb7vY5d+/fv2negs7s7dEsMyMzIWLd2Tc3atevWrl63Zk1mRkboIgBgocvPW/zfPv4fDx4+8pnPfr6vv3+2X84RQBgAAABgvhsZHa0/cvSlvfsuNF6empoKnTN/RSKR0mUl66ura9auWV+9tnzFitBFAACv423PPbu+uvpTf/jpcxcvzeoLeQcAET8/AADAvHXpytWde/cdOHxkeHg4dMs8lZ6Wtnb1qprqtTVr19asWZOdnRW6CADgTZmamvqbf/jfX/zbv5+cnJyll/jin/9JydKls/TNiQkGAAAAmHe6e3qnj/q5094eumU+WlZcXFO9dt2a1TXVa1eWlyckJIQuAgB4TFeamn779z999969Gf/O6WlpX/vylyKRyIx/Z2KIAQAAAOaL8YmJw8dP7N63/9S587N3I1gsSk1NXVO18uXb/NeuXZybE7oIAGDGDI+MfOazn99z4ODMftua6rWf/u3fnNnvSczxDAAAAAiv6Ubzzn379tUd6h8YCN0yXyxdsuSV2/yrV6+sdJs/ABCv0tPSPv7vfm7rpo2f/vPPjY6OztS3Xb2ycqa+FbHLAAAAAMH09ffvPnBw5959La23QreEl5KcvGplZU11dc3aNTXVawvy8kIXAQDMnXe//W0VK1b8t0/9Tmd394x8w6pKAwCOAAIAgDk3NTV16ty5nXv3Hz5+Ynx8PHROSIX5+TXVa9etWbO+eu3qqpVJSW5RAgAWtId9fb/2O793/lLjW/9Wf/p7v7O6auVMRBHDDAAAADB3Oru7X9qzb+fefTN1Y1fMSUpKqqqoWLd2Tc3aNeurq4uWFIYuAgCYX6LR6J/95V999YUX38o3SUxM/Mbf/o9kd1cseP4/AAAAZt3k5OTh4yd27Nl7+tz5aDQaOmeupaenr69eu766euP6mrWrV6WmpIQuAgCYvxISEn72Jz+6emXlpz/7+bGxscf7JuUrlrv6jwEAAABm1622th179u3ef+BhX1/oljmVk5O9obq6tqamdn2NR/gCADyq73vnO8pWLP/V3/jtx/vXyKrKilmIIvYYAAAAYOaNjI4ePHxkx+69l65cCd0yd5YUFmxcXzN9p3/5ihWhcwAAYlv16tWf/tRv/udP/kZ7R8ej/tlVlU7/Z5EBAAAAZtjlq9de2rvvwKHDQ8PDoVvmwvLSZbXr1tXWrKtdX1NcVBQ6BwAgrpSWlHzmv//WL//6bzbdaH6kP7hqZeWsRRFLPAQYAABmQH//wK4DB17as+/mrVuhW2ZXQkJCRVnZxvU1tTXramvW5S1eHLoIACDODY+MfPJTv3vq3Lk3+fWRSOQrX/pCZmbGLHcRAwwAAADwlpw+d37Hnr1Hjp8YGx8P3TJbkpOT11RVbaiprq2p2bCuOjPDD5MAAHNqcnLyd//oj/cerH8zX7yspPgLf/rHsx9FDHAEEAAAPI7unt6X9u7buW/fvY7O0C2zIi01dd3aNbU1NRvXr1u3Zk1KSkroIgCAhSsxMfGXfuHf5ebk/u9vPP8dv3jThg1zEkUMMAAAAMAjiEajRxtO7ti99+TZs5OTk6FzZlhWVuaGdetqa9ZtXF+zpqoqISEhdBEAAN/00x/9iUWLFn3HDWBLrQGAlxkAAADgTbnVdmfHnr17Dhx88PBh6JaZVJCfV1szfaB/TWV5WegcAADeyE9/9Cei0ehXX3jxDb5mswGAVxgAAADgjYyPjx84dPiFXXsuXbkSumXGLCsurl1fU1uzbmNNTUnx0tA5AAA8gp/9yY9OTU197cUdr/u75SuW5y1ePOdRzFMGAAAAeH03b91+YdfuPQcPDgwMhm6ZAWXLl2/asH7jhvUba2ry8/xMCAAQw/7tv/pYNBr9xks7//Fvuf2f1zIAAADAtxgbGzt4+Eh83PJfvLRoS23t5toNm2o3FOTlhc4BAGDG/Py//lfRaPSFXbu/7fOeAMxrGQAAAOBlLa23Xty9Z8+BgwODMXzLf2FBwebaDZtrN2yprS1aUhg6BwCA2fILP/2v+wcG6o4cffUzCQkJmw0AvIYBAACAhW50bOzAocMv7trdePVa6JbHtDg3d/qi/+baDaUlJaFzAACYI7/0Cz/f03v/1beuVpaXZWdnhY5iHjEAAACwcN1oubljz569B+tj8Zb/7KysjRvWb96wYcvGDeUrVoTOAQAggOTk5F//lV/6d7/0K7fv3Fm0aNGW2trQRcwvBgAAABackdHRA/WHXti958q1ptAtjyYjPb22pmZz7YbNGzesqqwMnQMAQHjZWVm/9V9/5ec//sv3HzzwBGC+TWRqaip0AwAAzJHrLS0v7tqz92Dd0PBw6JY3Ky01dX119abaDVs2blhTVZWQkBC6CACAeefajRsf/8Sv/Y/P/3lGenroFuYRAwAAAPFvZGRkX/2hF3ftuXr9euiWNyU5OXndmtWba2u31G5Yt3ZNYmJi6CIAAOa7ltZbleVloSuYXwwAAADEs6YbzS/u3rOvrn7+3/KfmJi4dlXV5o21mzdsWF+9NiUlJXQRAAAQ2zwDAACAODQ8MrKvrv6FnbubmptDt7yRhISEqsqKLbW1m2s31NasS0tLC10EAADEDwMAAABx5er1Gy/u2r2//tDwyEjoltcXiUQqylZsrq3dXLth0/r1mZkZoYsAAID4ZAAAACAejIyM7K2rf37nruvNLaFbXt+y4uKtmzZu2Vi7uXZDTnZ26BwAACD+GQAAAIhtzTdbn9+5a+/Bunl4yn9WVuaW2totG2uf2Ly5pHhp6BwAAGBhMQAAABCTxsfHDxw6/PzOXY1Xr4Vu+RaJiYk1a9ds3bRp26aNa1evSkhICF0EAAAsUAYAAABizJ329ud37t61b39ff3/olm9aXrrsic2bt23auKl2Q7pn+QIAAPOAAQAAgNgQjUYPHz/xws7dp8+fn5qaCp2zaNGiRTk52Vs3bty2aeO2LZuXFBSEzgEAAPgWBgAAAOa7zu7uHbv37Nizt6f3fuiWRcnJyeur127dtGnrpo1rqlZGIpHQRQAAAK/PAAAAwDw1NTV14vSZ53fuajh9ZnJyMmxM+YoVT2zZtG3Tpo0b1qempISNAQAAeDMMAAAAzDsPHj58cfeeF3fv6ejsCpiRtzh366aN2zZt2rp5U0FeXsASAACAx2AAAABgHjl/qfEbL+08dOz4xMREkICUlJTadeu2bt64ddPGVZWVQRoAAABmhAEAAIDwBgeHdu3f//zO3bfa2ub+1SORSGV5+RObN23bvKm2Zl1ycvLcNwAAAMw4AwAAACFdaWp6fufuA4cOj46OzvFLF+bnb920cdvmTVs3bVqcmzPHrw4AADDbDAAAAAQwMjKyt67++Z27rje3zOXrpqWmblxfs3Xzpq0bN1aWl83lSwMAAMwxAwAAAHOqpfXWN17aufdg3dDw8Jy96MqKiie3bnliy6b11dVJSf4dGAAAWBD88AMAwFyYnJysO3L0Gy/tvNB4eW5eMTMjY+umjU9u3bJ965aC/Py5eVEAAID5wwAAAMDs6u7pfWHXrhd37+29f38OXq6yvOzJbVuf3Lp1w7rqhISEOXhFAACA+ckAAADAbDlz/sI3Xtp55ETD5OTkrL5QRnr6lk0bn9y65altW93sDwAAMM0AAADADBsaHt6178A3Xtp5q61tVl/Izf4AAABvwAAAAMCMaWlt/fqOnXsP1g2PjMzSS7jZHwAA4E0yAAAA8FbNwQN+K8vLtm/Z8uS2LRvWrUtMTJylVwEAAIgnBgAAAB5fV0/Pi7t2z9IDfl+92f/JrVsLC9zsDwAA8GgMAAAAPI7Ze8Cvm/0BAABmhAEAAIBHMDg0tGvf/m+8tOv2nTsz+G2nb/bfvmXz9q1bigoLZ/A7AwAALFgGAAAA3pTZeMCvm/0BAABmjwEAAIA3Mv2A36+9+NKlK1dm5Bu62R8AAGBuGAAAAHh9XT09z+/ctWP3nvsPHr7171a+YsVT27Y+sWVzbc26pCT/FgoAADDr/OgFAMC3O33+/Nd37DzWcPItPuA3JTl544b1z2x/4untT7jZHwAAYI4ZAAAAeNnI6Oju/Qe+9uKO1tttb+X75C1e/PQT2556Ytu2zZvSUlNnLhAAAIBHYAAAAGBRe0fH13fsfGnv3oGBwcf+JisrKp7evu3pbdvWrV0zo3UAAAA8DgMAAMCCdub8ha++8OKxk6ei0ehj/PHpQ36e2rbtme1PLC1aMguBAAAAPCYDAADAQjQ6NrbnwMGvPP9i6+3bj/HHF+fmPvXEtme2P7Ft08a0tLRZCAQAAOCtMgAAACws9zo7v/biS4932k9ledkzT25/etu26jWrI5HI7AQCAAAwMwwAAAALxfRpP8dPnZ6cnHzzfyo5OXmTQ34AAABikAEAACDOPd5pP7k5OU9t2/r09ie2b9nskB8AAIBYZAAAAIhbnV3dX3txx449e/sHBt7kHylfseLZJ7c/s/0Jh/wAAADEOgMAAEAcOnfx4lde2HGs4eSbOe3n1UN+nt6+rbioaE4CAQAAmHUGAACA+DE2NrbnYN3XXtzRfLP1O37x9CE/Tz2x7YktmzPS0+ckEAAAgLljAAAAiAedXd1ff+mlHbv39vX3v/FXlq9Y8fT2bc9s316zdo1DfgAAAOKYAQAAILa9mdN+kpKSNq1f//T2JxzyAwAAsHAYAAAAYtKbOe0nOyvrqSe2PbP9CYf8AAAALEAGAACAGPMdT/tZUljw3FNPPfvk9k0b1ickJMx5IAAAAPOCAQAAIGacv9T41RdePHKi4XVP+ylbvvy5p5587umn1q6qClEHAADA/GIAAACY78bHx/cerPvKCzuab978tt+KRCLr1qx+9qknn3vqyeXLlgUKBAAAYD4yAPx/7N1nfFTlurDxSSaNDtKk9yodKQIivRdBxd52P27sUkSEEJQNIggKhCoiKKKSUNILJUAgAULoJRBIBdJ7m8nM+wFfKSaBJDNzr1lz/T+cn0dh5tpASLLupwAAAChXcmrqXl9/78DArKz7Tvu5c6nvgH59BvbrW/exx+QCAQAAAADKxQAAAABAiUo87adKlSp9evYY2K9vv969q1WrKhoIAAAAAFA6BgAAAAAKUuJpP7Vq1uzf58lB/fr27tnD0YGv3wAAAAAAj4RvIAEAABQhJTVtj6/fvaf9PN6wwcB+fQf07du1cyc7OzvpQAAAAACAlWEAAAAAIOzchYue3j5HwsLvnPbTqkXzQf37D+rfr3XLFtJpAAAAAAArxgAAAABAhk6n23fo8C5vn6vR1+3t7Z/o2GFA374D+/dt1LChdBoAAAAAQA3sjEajdAMAAIBtSUlN2+vv7+0fmJ+f37Nbt0H9+/bv06d2rZrSXQAAAAAAVWEAAAAAYDnnLlzc7esXceZM7+7dB/Tr2693ryouLtJRAAAAAAB1YgAAAABgdjq9fl/IoZDQow3r1x/Qr0/Prl21Wq10FAAAAABA5RgAAAAAmFFKatrJ06czM7Oe6NTxiY4dpHMAAAAAADaEAQAAAIBZFBUVJaemaoyaJo0bSbcAAAAAAGwRAwAAAAAAAAAAAFTIXjoAAAAAAAAAAACYHgMAAAAAAAAAAABUiAEAAAAAAAAAAAAqxAAAAAAAAAAAAAAVYgAAAAAAAAAAAIAKMQAAAAAAAAAAAECFGAAAAAAAAAAAAKBCDAAAAAAAAAAAAFAhBgAAAAAAAAAAAKgQAwAAAAAAAAAAAFSIAQAAAAAAAAAAACrEAAAAAAAAAAAAABViAAAAAAAAAAAAgAoxAAAAAAAAAAAAQIUYAAAAAAAAAAAAoEIMAAAAAAAAAAAAUCEGAAAAAAAAAAAAqBADAAAAAAAAAAAAVIgBAAAAAAAAAAAAKsQAAAAAAAAAAAAAFWIAAAAAAAAAAACACjEAAAAAAAAAAABAhRgAAAAAAAAAAACgQgwAAAAAAAAAAABQIQYAAAAAAAAAAACoEAMAAAAAAAAAAABUiAEAAAAAAAAAAAAqxAAAAAAAAAAAAAAVYgAAAAAAAAAAAIAKMQAAAAAAAAAAAECFGAAAAAAAAAAAAKBCDAAAAAAAAAAAAFAhBgAAAAAAAAAAAKgQAwAAAAAAAAAAAFSIAQAAAAAAAAAAACrEAAAAAAAAAAAAABViAAAAAAAAAAAAgAoxAAAAAAAAAAAAQIUYAAAAAAAAAAAAoEIMAAAAAAAAAAAAUCEGAAAAAAAAAAAAqBADAAAAAAAAAAAAVIgBAAAAAAAAAAAAKsQAAAAAAAAAAAAAFWIAAAAAAAAAAACACjEAAAAAAAAAAABAhRgAAAAAAAAAAACgQgwAAAAAAAAAAABQIQYAAAAAAAAAAACoEAMAAAAAAAAAAABUiAEAAAAAAAAAAAAqxAAAAAAAAAAAAAAVYgAAAAAAAAAAAIAKMQAAAAAAAAAAAECFGAAAAAAAAAAAAKBCDAAAAAAAAAAAAFAhBgAAAAAAAAAAAKiQg3QAAAAAAAAAAJhXbl7e7aTklLTUrKyc7Jzs7Jzc7JycnNzc7Oyc7NwcnU6n1+t1er1er9fr9Dq9XqfT2WvtHR0ctPZaB0cHB4c7/8fBxdm5RvXqNWrUqF6tavVq1WvWqF6jevU6tWvXr1e3Qb16jo6O0v9DgfswAAAAAAAAAACgHreSkm7ExMbGJySlJN9OTrmdlHQ7KTkvP9/c72tnZ1e7Vs0G9eo3qF+vQf16jR9/vEWzpi2bN69Vs6a53xoojZ3RaJRuAABF8w4ILC4uFnnrrp07tWrRQuStAQDQaDSZWVkHj4RKvfvgAQNq1+K7ZQAA8BC5eXmXrkRdu3EjNj4hJi4uJjYuv6BAOuo+NWvWaNmsWYtmzVo0a9qhXdu2rVo5OLAsGxbCAAAAyhIeEfHZwkVS796ja5elbq5S7w4AwA8///LTb79Lvfsrz099+9VXpN4dAAAoWUxc3MXLVy5eibp45UpMXLzBYJAuKgcnR8e2rVt16tC+Y/v2ndu3b1C/nnQR1IxZU8l++m1nUnKybEObVq0mjR0t22AL0jMyfvzlV4V/nhjUv1+fXj2lK2yUxx5vwXePPHsu+kZM65ZsAlCJrTt+S0lNla74Q5NGjaZNmSxdAdMIDQsPOxkhXXHX9H/+nZNP1UGn03kHBAoGeAUEvjbtBf44qUxo+PGwEydlG+zt7d//z79kG0zl4uUrfsH7pCs0/3jjtRrVq0tXQLnWbv4hP194OXbPbl2HDBoo24DKS0pOOX7q1PFTkafPncvJyZXOqbgine7C5SsXLl+58//Wq1u3d4/uvbt369W9G4cFweQYAJTsSFhY1LVo2YaB/fsxADC37Jyc2QsWRt+IkQ4py6D+/Xr36C5dYaNi4uIizpyRbfDw8v5k+juyDTCVw8eOKeovnNatWjzZo4d0BSorLT1j6arVivr+599vv8kTW3UIPhiSkZkpGJCVlR144OC4kSMEG2ByUdeu+QQGyTY4ODioZgAQn5go/uup0WhenfY8AwCUIehASGZWlmyDk5MTAwArpdPpTp8/f+JU5PGIyNj4eOkcs0hJTfUP3ucfvM/e3r5Nq5ZP9ujRu0f3rp072dvbS6dBDRgAwHYVFBTMWfiloh7G/VX/J3vP/eQj/saX4unlI35O2v6QQ/94/TVOQIY5rHBft/HbFS7OztIhqJRv129Q1NN/qImHl+Q2uDs8vXwYAAAAYIN0Ol14xKmDR0KPHT+htAP9zcdgMERdi466Fr19p0fNGjUG9us7eOBTvbp147kQKoMBAGyUTqeb++X/Ll2Jkg4pS6/u3ebNmqHVaqVDbFR2dk7QwRDpCk2RTufl7//atBekQ6BCt5OSv9/28zt/f1s6BBV3+FjYkWNh0hVQp8iz567HxEpXaG7ExkacPtOrezfpEAAAYAl6vf7EqciDoUdDw8Lz8vOlcyRlZWf7BgX7BgXfmQQ8/VT/3j26MwlABTAAgC0qLi52XbL09Lnz0iFl6fpEZ7c5sx25FF6OV0BgYWGhdIVGo9Hs9Qt4aeoUB/4wwAx2+/gOGzyoY7t20iGoiNzcvO/Wb5SugGrt3OslnfAHj73eDEoNRlwAACAASURBVAAAAFC9G7Fx3gGBQQcPsr31AX9OAurUrj1q2JCxI4Y3adRIOgrWhMdJsDlGo3HR8hXhSros8a86d2i/aO4cZycn6RDbZTAY9vj6SVf8IS09ff/hIyOHPCMdAhUyGAzLVrmvXb6UzUbWaN0PW9LS06UroE6Jt24p54ul46dOJSTebNKYb3QBAFChoqKig0dCvfwD/rwRF6VJz8jY4bHrV8/dPbp2GTti+KCn+rNsFI+CPyWwOctWu4eEHpWuKEu7Nq0XzZvr4uIiHWLTDh4JTUlNla64y3OvNwMAmMmN2NjtOz04ZsrqRJ495xe8T7oCquXp5WMwGKQr/mAwGDy9vaf/8x/SIQAAwJRu3rrt4eUddOBgTi5L/svBaDSeOnP21JmzNWvUGD186JQJ4+vXrSsdBUXj3CjYljWbvvdX9uOS1i1bLHGdV61qVekQW6eEaw/vFRUdffbCRekKqNbPv3vExsdLV6AcioqKvnFfK35LOdQqNy/Pf99+6Yr7BOw7kJubJ10BAABM48q1awuXLnvrv+/u8vbh6X+FZWVn/7Zrz+v/fmfxipVXr1+XzoFyMQCADdn883ZPLx/pirI0a9Jkiev8GtWrS4fYuouXryjwgmgPxZzFDPXR6XTLVrtLV6ActmzfkXjzlnQFVMsvKDhfYXfu5RcU+AQFSVcAAIDKOh5xasY81/9+Misk9KhythtateLi4uCDh/7voxkz5y84HnFKOgdKxBFAsBU7PHf9/NtO6YqyNG70+NKFrrVr1ZQOgeKW/99x9PiJ20nJDRvUlw6BOl24dHm3j+/kcWOlQ/BwUdeilXM7K9THaDTu8vGVrijBbm/f5yZOsLdnARMAAFbpSFj4j7/8Gn3jhnSIat05F6h1yxZvvPTiwH59pXOgIHwBDZuw189/44/bpCvK0rBB/aVurnXr1JEOgSY5NfXQ0WPSFSUoLi7e5a3oLSywdpu2/ZyUkiJdgYcwGAzL17gXFxdLh0C1QsOP37qdJF1RgtvJyUfCwqUrAABAuR2POPXfGbNcF3/F038LiL4R47r4q//OmMVuAPyJAQDUL/hgyKoNm6QrylKvbt2lbq4N6tWTDoFGo9Hs9vFV7JM1v+B9BQUF0hVQrfz8/JXu66Qr8BC/7tp9NZrzPWFGSt5fwml4AABYl9Pnzn3w6dw5C7+8cvWadIttuXL12pyFX74/e07EmTPSLZDHAAAqdyQsfOl3q5V8rlyd2rW/dnNt1LChdAg0Go2msKjINzBYuqJUObm5fsHKupURKhMecWpfyCHpCpQqIfHm1h2/SVdAza5ev372/AXpilKdu3gp6lq0dAUAAHi4G7Fxs10XfvK56/lLl6RbbNeFy1dmzXf71O2L2Ph46RZIYgAANTsZeXrRsm8Uu5pbo9HUrFnjqwXzmzRuJB2CPwTuP5CVnS1dURZOAYK5rdm0WeEfBbZs+Rr3oqIi6QqomfKX2Ct5gwIAANBoNNnZOas2bPzPR5+cPH1augUajUZz4lTkvz74eNWGjdnZOdItkMEAAKp1/tJl18VfFel00iGlql692hLXeS2bN5MOwV2eXkp/vJ5w82bYiZPSFVCzzKysNZu+l65ACbwDAs8oeGk2VCAjM/PA4VDpiocICT2alp4hXQEAAEpgMBh2efu++c703T5+Sl6LaYOKi4t3+/i9+c50Ty9vJR+SATNhAAB1iroW/dnCLwsKC6VDSlW1SpX/zZvbtlUr6RDcdfxUpFVsi2PxI8wt+OAhLoxSmtT0dIXfZg8V2OPrr1Pwyok7dDrdXj8/6QoAAPCgM+cv/OuDj1dv3JSdwzJzhcrOyVmzafO/Pvjo/KXL0i2wKAYAUKHY+PhP3b7IzcuTDilVFReXLz//rGO7dtIhuI/nXm/phEdy6szZ6zGx0hVQuZVr13PjtKJ8u3Z9Tm6udAXUTKfXe/n7S1c8Ei//QOUPKgAAsB25eXkr167/5PP5MXFx0i14uJi4+A/nzF25dr2Sn5vBtBgAQG1uJSXNmu+WmZUlHVIqJycntzmzu3TqKB2C+8QlJJyIjJSueFSeXtYxq4D1up2cvGnbz9IV+ENI6NHQ8OPSFVC5/SGH0jMypSseSUZmZjDXlQMAoAyhYeH/ePcDL/8Ao9Eo3YJHZTQavfwD/vHuB0fCwqVbYAkMAKAqqWlpM+a5pqSlSYeUytHRcf6sT3p07SIdggd57PW2oq9XgkMOcU0rzG2Pr9/Fy1ekK6DJyc1dtWGTdAXUz8OqRssMwgEAEJeekeH21dfzF3+l5IcwKENKWprr4q9clyzNyFTuIlqYBAMAqEdmVtbM+W63bidJh5RKq9XO/fjDvr16SYfgQTm5uUEHDkpXlENRUZGXf4B0BVTOYDAsW+2u1+ulQ2zd2s1b0jO48hTmdfrc+WvXb0hXlEP0jZjIs+ekKwAAsF2hYeH/eP/DQ0ePSYegso4cC/vXBx9xCZy6MQCASuTm5X264Asl3+Cq1Wpnf/j+gH59pUNQAu+AQCVfGV2iPb5+xcXF0hVQuZi4uJ9/95CusGkRZ84E7NsvXQH1s8YF9Tv3ekknAABgiwqLilauXT9/8VdZWexKV4n0jIzPvli0euP3XLOkVgwAoAYFhYVzFn4ZFR0tHVIqe3v7j6e/M2TgAOkQlMBgMOzx8ZOuKLfUtPSDR0KlK6B+v3h4cpeXlMKiopXu663odDJYqZu3bx89fkK6otzCT0Yk3rolXQEAgG25Gn39/z6awX509TEajbu8fd75ZNb1mBjpFpgeAwBYPZ1e7/q/ry5cuiwdUio7O7v3//OvkUOekQ5ByQ4dPZaUkiJdUREee61vwSasjk6nW7bKnWfQIn74aTvPN2EBu7x9DQaDdEW5GQyGXd4+0hUAANiQX3ftfnfWp3EJCdIhMJcbsbHTZ8z2CQySDoGJMQCAdTMYDAuXLjt5+rR0SFne+fvb40aOkK5AqTys9gyBy1evnlfw6AuqcfHKFZ6yWd7lq9c8+WWH+eUXFPgH75OuqCC/4P25eXnSFQAAqF9BQcHCpcs2bNnKDWGqV6TTfbNm7cq16/m9VhMGALBuS1Z+dzT8uHRFWf75xuvPjh8nXYFSXY66euHyFemKirPe6QWsy+afticlW+VGGStlMBiWr3bnng9YgF9QsPU+Q8/Pz/ez2ukFAADWIj4xcfrM2SGhR6VDYDle/gEffvZ5alqadAhMgwEArNjKtev3hRySrijLmy+/OG3KZOkKlMXarxA8EhZupecXwbrkFxR8475WusKG/OLhGX3jhnQF1M9oNO7y9pWuqJTd3r6cUQYAgPmEhh+fPmN2TFy8dAgs7dKVqP/7eObZCxelQ2ACDABgrdb98KPCr515aeqU16a9IF2BsqSmpR06eky6olKKi4t3W/mzG1iLE6cigw6ESFfYhPjExJ9+/V26Ajbh6PET1n7PxM3bt0OVvRkUAADr9eMvO1wXf2W9mwVRSekZGTPnLwjYt186BJXFAABWaduvv/2+e490RVmmTpzw99dfla7AQ+zx9VPBqXY+QUEFhYXSFbAJ7ps3Z2ZlSVeo3/LV7kU6nXQFbIKnlxouk+c0PAAATE6v1y9esXLrjt/YaWfj9Hr916vWbN3xm3QIKoUBAKyPx17vLdt3SFeUZeKY0f/3t7ekK/AQRUVFXgGB0hUmkJOTG7DvgHQFbEJWVvbqjd9LV6jcXj9/ttnCMqJvxESePSddYQJnzl+4ev26dAUAAOqRm5s3e8HC4IOKPnIZFmM0Gn/8ZcfS71YbDAbpFlQQAwBYGb+g4LWbf5CuKMuoYUPf+/c/pSvwcEEHQ7KysqUrTMPTWw1LOGEV9h86HHbipHSFaqWkpm3a+pN0BWyFhyqW/9/huVc9/1sAAJCVlJzy/qdzTp87Lx0CZQnYt/9Tty/y8vOlQ1ARDABgTQ4cPvKN+zolb0Ab+vSgT6a/I12BR+KhoocF8QmJ4RER0hWwFd+u25BfUCBdoU4r167jiFVYRkZm1v4Q9SzrO3D4SEZmpnQFAABW7+r16+/O+pQrf1GiiNNnPpk7Pzs7RzoE5cYAAFYj7MTJJSu/U/KGo0H9+83+4D07OzvpEDxcxOkzMXFx0hWmpKZ5BhQuKSVl09Zt0hUqdODwkWPsroClePn7q+mqiSKdbo+vv3QFAADW7eKVqBnzXNPS06VDoFxR0dEffz6PhRdWhwEArMPpc+fcli5T8n2t/Z/sPfeTj+zt+ZiyDup7XK6+kQaUbK9fwPlLl6UrVCU7J2fNJu5XgIXo9fq9fgHSFSbm5e+vU/AXigAAKNzZCxdnu7rl5ORKh0DprsfEfvTZvFQGRVaFh5WwAhevRH2+aElRUZF0SKl6de82b9YMrVYrHYJHkpB4U30H5hiNRk8vH+kK2AqDwbB8tbuSh7JWx/37zekZrKOBhew/fER9i/vSMzLVdKgRAACWdDLyNMe749HFJSR89NnnSSkp0iF4VAwAoHTXY2I+W/hlvoI/D3V9orPbnNmODg7SIXhUnt7eSr5JosKCDoZwGB8sJjY+ftuvv0tXqMSJyMjA/QelK2BD1HplrpquNQYAwGKOHT8xb9HiwsJC6RBYk8Sbt5gBWBEGAFC0hMSbs1wXZuco95lm5w7tF82d4+zkJB2CR5Wbmxew74B0hVkUFhZ6BQRKV8CG7PDcdT0mVrrC6hUUFq5cu166Ajbk3IWLUdHR0hVmce36jdPnzktXAABgTY5HnHJbukxNNwPBYm4nJc9ydcvIzJIOwcMxAIByJSWnzJjvmp6RIR1SqnZtWi+aN9fFxUU6BOXgExSUX1AgXWEue3z9lHxRNlRGr9cvX+Ouyv00lrT5p+23bidJV8CG7NzrJZ1gRp5sAgAA4JGdvXBxwVdf63j6XxJ7e/tqVatWq1qV057LEJ+QOIfDo6wBh5ZAodIzMmbOX5CckiodUqrWLVsscZ1XrWpV6RCUg8Fg2O3tK11hRimpqQePhA59epB0CGzFpStRHl7ez02cIB1irS5FRe3y5vYOWM7tpOSjx09IV5jR0eMnbt6+3ahhQ+kQAACU7vLVa3O/WGSbJ/9otdrHGzRo2rhx0yaNmjVpUrtWrSouLlVcXFxcXKpUcbnzz073nPRQVFSUX1CQl5efm59XkF+QX1CQX1CQlZ0dn5gYF58Qm5CQlJxis0vxoqKj5375v8Xz5jpxNoaCMQCAEmXn5MxydUu4eVM6pFTNmzZd4jq/RvXq0iEonyNh4beTk6UrzMvDy5sBACxpy8+/DOzX9/EGDaRDrE9xcfHy1e42+60CROzy9ikuLpauMCODwbDL2/f//vaWdAgAAIoWExc3Z6GtLNy2s7Nr1aJFx3ZtmzRu1LRx4+ZNmzRq2LBc6/qdnJycnJxq1axZ2g/Q6fWJN2/GxifEJSTEJSRGXYuOiYszUb4VOHv+woKvvl44Z7a9PSfNKBQDAChOfkHBpwu+UPK50o0bPf6V2/zatUr9qx+K5aHqcw/uuHQl6uLlK506tJcOga3ILyhYsWbdYtfPpUOsz/adnkr+ZAf1KSgo8AveJ11hdv7B+9565aUqnNAIAEAp7hzdnpWVLR1iXk0aNerZrWvPbl17dO1Ss0YNs76Xo4NDi2bNWjRr9ue/SUvPiDh95tSZMxGnz6SkpZn13ZUg/GTECvd1H/33/6RDUDIGAFCWoqKiuV8sunz1qnRIqRo2qL/UzbVunTrSISi3qGvR5y5ekq6wBA8v788YAMCCTp4+Hbj/wMihQ6RDrElsfML233dKV8C2+O/bn5ObK11hdrl5eX5BwVMmjJcOAQBAifLy8z/7YlFqWrp0iFnUqV27V/euPbt169mta4N69QRLHqtTe8SQwSOGDL7zlf+dYcDpc+dz8/IEq8zKNyi4WdMmL0yeJB2CEjAAgIIUFxe7Ll565vwF6ZBS1atbd6mbq+xnEVSYuq89vNeho8eSU1Pr160rHQIbsnbzlj69erE16tEtX+1exH1rsKxdqr4F5167vH2fHT/Ozs5OOgQAAGUxGAxuX32tvtNpHBwcnurz5Ojhw/r07KHAU2iaN23SvGmTZ8eP1ev1oeHHfYOCI06fUeVBoBt/3NakUaMBfftIh+BBivuogM0yGAyLlq84fuqUdEip6tSu/bWbK9fKWam09IyQ0KPSFRZSXFy828dWnvJAIbKys1dv3CRdYTV2+/iev2QTG5KgHGEnTsYnJkpXWEjirVvqvusYAICK+W79xpORp6UrTKll8+b/+dtbO77fMG/mJ/1691Lg0/97OTg4DB7w1P/mzd26ds0bL73YsEF96SITMxgMi79Zee36DekQPEjRHxiwKctWuyv5+WzNmjW+WjC/SeNG0iGooD2+fjpbWmzrGxhcWFQkXQHbcuDwEZ64PYrk1NTvt/0sXQGbYzvb4O7w9PKWTgAAQFl27tnr5R8gXWEa1apWnTB61KqlSzasXP7cxAnmPuLf5BrUr/f6iy9sW+e+xHXekEEDnRwdpYtMJr+g4PNF/0vPyJAOwX0YAEARVm3YFLBvv3RFqapXr7bEdV7L5s0e4cdCiXQ6nXdAoHSFRWVlZwfuPyBdAZvz7boNefn50hVKt8J9Hb9KsLDrMbGnzpyVrrCoyLPnrsfESFcAAKAUxyNOrd+yVbrCBGpUr/72qy9v37T+/f/8q0PbNtI5ldWre7fPPv5w+6b1Lz83tYqLi3SOaSSnpH7x9XJVnnFkvRgAQN7mn35W8nElVatU+d+8uW1btZIOQcUFHwzJyMyUrrA0Ty8f6QTYnJTU1A2q+L7CfPaFHA4/GSFdAZvj6W2LnxF27mUTAAAAGo1GczspefGKb639gWz1atXeeOnFrevWvPL8c6p5Vn5HzRo1/vbaK1vXrXl+8iRnZ2fpHBM4c/7CDz//Il2BuxgAQNgvHp4//+4hXVGqKi4uX37+Wcd27aRDUCkeNnkOQGx8/InISOkK2BzvgMCzFy5KVyhUVnb2mk3fS1fA5mRlZwcfDJGuELA/5FBGZpZ0BQAAwnR6vdvSr7Oys6VDKq5a1aqvTXt+2zr31198oVrVqtI55lKrZs1/v/XGFvdVk8eNcbT+Q4F+8fAMO3FSugJ/YAAASXt8/Tdt/Um6olTOzs5uc2Z36dRROgSVEnn23PWYWOkKGR57bHHyAVlGo/GbNWt1er10iBKt2bQ5M4vHkbA0L/+AIpu8FaZIp/Py95euAABA2JqN31+5ek26ooKquLi8/NzUrevWvPnyS9WqqfbR/73q1qkz/Z//+GH1d+NGjnBwcJDOqTij0bhk5XdJySnSIdAwAICkwAMHV2/cJF1RKkdHx3kzP+7RtYt0CCrL1q49vNeJyMi4hATpCticuISEbTt+la5QnOMRp2xzFTZkFRcX7/H1k64Qs9cvQM88EgBgwwIPHLTei3/79Oy5YeU3f3vtlRrVq0u3WFqD+vU+fOc/61cs69q5k3RLxWXn5Cxc+rW1nz2lDgwAIOPwsbBlq9Yo9m8BrVY79+MP+/bqJR2Cykq8dcuWj9s2Go0enIAMCb/u2hN9g+s37yooKFi5dr10BWzRwSOhqWnp0hVi0tLTDxwOla4AAEBGfGLit9b5JWjtWrU+/fD9RfM+a9igvnSLpGZNmiz/cuF7//6n9R58dCnq6lYWhykAAwAIOBl5etHyFcXFxdIhJdNqtbM/fH9Av77SITABTy8fxc6ZLCPowMGc3FzpCtgcvV6/fLW70WiUDlGKTdt+vp2cLF0BW8QY2MOGNwICAGyZwWBY/M23BYWF0iHlNmrokO+/Wzls8NPSIUoxcczoTd+teKpvH+mQCtq+0/Ny1FXpClvHAACWdu7CRdfFX+l0OumQktnb2388/Z0hAwdIh8AEcvPy/PftFwzQarVarVYwQKPRFBQW+gQEyTbANl2+enXnHp67aTQazcXLV2z5DBYIOn/p8uWrkt9uOSng/rqo6Ohz3EwOALA92379TfbLgApo1LDhEtd5M96bXqOGzZ35U7a6jz3m9umsz2d8XKd2bemWcisuLl6y8jvbvJJKORgAwKKirkXP/fJ/ih1B29nZvf+ff40c8ox0CEzDL3hffn6+YED/J3sPVMBWkt0+vja+DQJStmz/5ebt29IVwvR6/bLV7nwMQoT44vfXXpymhJ37tnwbEADANl2Kivr5dw/pivIZP2rkxm+/6dW9m3SIcg0e8NT3q1aOHGp9z6ziEhI2bt0mXWHTGADAcmLj4z91+yI3L086pFTv/P3tcSNHSFfANIxG4y5vH9mGZ8ePmzpxgmyDRqNJSkk5dPSYdAVsUUFh4Qr3ddIVwn7+3SMmLk66ArYoKSXlSFi4YICzs/OE0SMnjR0j2HDH0eMnbidxBhcAwFYUFhUtWfGdYk9d/isnR8eP/vt/H/zfv52cnKRblK56tWoz33v3vX//01EB+yzLZZe3b+TZc9IVtosBACzk5q3bM+cvyMzKkg4p1T/feP3Z8eOkK2AyoeHHb91OEgxo0axZj65dnujYoV2b1oIZd4gvAoXNijh9xi94n3SFmJi4uF88PKUrYKN2e/vKfuc/bPDTNapXHzdyhIuzs2DGnY3nu3x8ZRsAALCYjT9ui09MlK54VPXr1V2+6IuxI4ZLh1iTiWNGf73Qte5jdaRDysFoNK5wX6fT66VDbBQDAFhCalraTNcFqWnp0iGlevPlF6dNmSxdAVMS3+8/edwfax6nTBgvW6LRaC5cvsKtO5Cy/ocf0zMypCsEGI3G5avdFXvnDdStoLDQJ0j4Aphnx429s05thAIOV/QLCi4oKJCuAADA7C5fvWZFt0917/LEmq+XdmjbRjrE+nTu0MF92dIunTpKh5RDws2b23/fKV1hoxgAwOwys7JmzneTXYtdtpemTnlt2gvSFTClq9evnz1/QTCgerVqI4cOufPPQwcNVMJFPeITEdis7JycVRs2SVcI2O3je+HyFekK2KiAfQdycnIFA7p27tS6ZYs7/zxlwjg7OzvBGI1Gk5Ob679vv2wDAADmZjAYVrivtZbbp56bNOGrBfNr16opHWKt6tSu/fXCBX8uPbQKOzx2JSTelK6wRQwAYF65uXmzXN1i4+OlQ0r13KQJf3/9VekKmJjnXm/ZgFHDhv554oGDg8OE0SNlezQazaGjx1LT0qQrYKNCQo+Gip5FbnlJySnf/7RdugK2y9Nb+PPgvccqNm/atFc3+Qv9dnlzChAAQOU8vX2uRl+Xrng4rVY78/13//P2W/b2PJasFK1WO/2f//jk3f86WcmVAEU63cp166UrbBEfaTCjgsLCOV98ee36DemQUk0cM/o/b78lXQETy8jMPHD4iGCAvb39A0P4iWNGi1/Ro9frrWgrKNTnu/UblXwJvMl94742Pz9fugI2KjwiIj5B8uTfenXrDurf795/M2WC/DVL8YmJYSdOSlcAAGAuKalpW7bvkK54OAcHh88+/nCkAk4IVI3Rw4a6zZntLH3r0iM6debsvpBD0hU2hwEAzEWn189btPjCpcvSIaUaNWzoe//+p3QFTG+Pr3+R6KHbT/bs0fjxx+/9N3Vq1x484Cm5oj94BQQWFRVJV8BGpaSlbdiyVbrCQoIOhJw4FSldAdvlIb0NbsLoUQ8s6Ov3ZO/GjR4v/WdYiIeX8K8MAADms2rjJuUvQHF0dPx8xsdPP9VfOkRtevfo/sVnn7pYyQxg/ZYfC3k0YVkMAGAWBoNh4dJlp86clQ4p1dCnB30y/R3pCpieTq/38veXbbhz7eEDlHAVcFZWdtDBEOkK2C6fwKDT585LV5hdZlaW++bN0hWwXbHx8RGnzwgGODo6jh9VwsF3JX5ytLBTZ85ej4mVrgAAwPROnzt/5FiYdMVDODk5LZg9c0DfPtIh6tSja5f/zZtbpUoV6ZCHS01L/23XbukK28IAAGaxZOV3R8OPS1eUalD/frM/eE/8PjqYw/6QQ+kZmYIBTRo16tOr51//fYe2bTp3aC9RdB9PLx/pBNguo9G4wn2dTnSDjgWs3vh9Vla2dAVsl8deb6PRKBjwzMABJd7mN3r4sKrS35EajUZPbz4PAgBUaN3mLdIJD+Hs7LxwzuwSv1mGqXTp3Gnx/LnVqlaVDnm4X3ftSc/IkK6wIQwAYHrfrFmr5PO8+j/Ze+4nH3HVjFqJ7+6fNHZMaf9JCZsAbsTGyq4MhY2LT0z88ZdfpSvMKOzEyf2HDktXwHZlZ+eI7/QqbaV/1SpVRg8favGcBwUfDMnKZkQHAFCVoAMhUdHR0hVlqeLi8uXcOb26d5MOUb/OHTosdv28evVq0iEPkZ+fbxVXVqgGz0BhYus2b/EJDJKuKFXvHt3nzZqh1WqlQ2AWp8+dl710uoqLSxlPNwYPeKpe3bqWLSqB+NnQsHG/7d5z9fp16QqzyC8o+HbdBukK2DSvgMDCwkLBgI7t23Vo17a0/zp53FjxFRhFRUVe/gGyDQAAmFBRUdH3P/0kXVEWrVbr+unM7l2ekA6xFR3btVu6wFX5MwC/4H2x8fHSFbaCAQBMaeuO337fs1e6olRdn+i84NNZjg4O0iEwF0/p5f8jhjxTxm47e3v7SWNGW7aoBOEREQmJN6UrYLuKi4uXr3Y3GAzSIaa3aeu2pJQU6QrYLoPBsMfXT7ah7IP+mzRq1Ken/Mb/Pb5+xcXF0hUAAJjG73v2JqekSleU5Z2//61XN9b+W1Tb1q3mzfhE4Ytfi4uLN/y4TbrCVjAAgMns3Ov14y/K3b/TuUP7RXPnODs5SYfAXG7evn30+AnBADs7u2fHP+SGw/GjRzpJ/yE0Go2e3mwCgKSoa9G/71butLhizl+6vNePZcWQdPBIaEqq5Pf/dWrXembggLJ/zJQJ4yyVU6rUtPSDR0KlKwAAMIHsnJwdHrukK8oyedzYSWPll8HZoJ7dur77r39IVzxE2ImTUdcUfXqVajAALlUm0gAAIABJREFUgGn4BAYp+c6Z9m3bLJo318XFRToEZrTL21d2TXGPrl2aN21a9o+pWaPGsKcHWaqoVAH7DuTm5klXwKb9uOPXxFu3pCtMRq/Xq3VbA6yI+C0440aOdHjYPsvePbq3aPaQz5UWwGl4AAB18NjrlZefL11Rqid79njn729LV9iu8aNGKmHtRRmMRuNPv/0uXWETGADABA4cPrJy7Xqj0SgdUrLWLVssnv+5VVyDjgrLLyjwD94n21D2uQd/UsJVwPkFBT5Byr2rA7agsLDwmzXrpCtMZtuvv3N+JWRdvBJ16UqUYIBWq504ZtSj/Mhnx8t/I3r56tXzly5LVwAAUCm5uXm7vH2lK0rVvGnTuZ98JH79j437z9tvKeEAxjKEhh+PvhEjXaF+fByissJOnFyy8jvFLnts0azpVwvm16heXToE5uUXFJybJ7mkvWGD+k/17fMoP7J1yxbdnuhs/qKH2C29YQKIPHvWNyhYusIErsfE7vBU9M5r2AKPvV6yAYP696v72GOP8iNHDh2ihFvpxH/FAACopJ17vXJyc6UrSlazZo0vPvuUhZji7O3t5874qEWzZtIhpWITgGUwAEClRJ4957Z0mV6vlw4pWeNGjy9ZML9WzZrSITAvo9EovvBh0pgxdnZ2j/iDp06cYOach7udnHwkLFy6ArZu/ZYf09IzpCsqxWg0Ll/jrtjPg7ARKalph44ek214xG1wGo3G2clp7IjhZs55uCNh4dzaDQCwXrl5eYq92s3e3n7ejI8bPd5QOgQajUZTtUqVL+Z+quQnY4ePhd2IjZOuUDkGAKi4i1ei5v1vSVFRkXRIyRo2qL/UzbVunTrSITC7o8dPyB4m7lTOZxkD+vZp2KC+OYseCYsfIS4nJ/e79RukKyrFw8tb9twVQKPR7PLxKS4uFgxo3bJll86dHv3HPztunFarNWfRwxUXF++WXj0AAECFeXr55OQodPn/c5MmdO/SRboCdz3eoMGcjz549DWLFmYwGNhRbW4MAFBB0TdiPlv4Zb5Sb5upV7fuUjfXBvXqSYfAEjylrz0c9vSgGjXKccyUnZ3d5EdeKWk+5y5eiroWLV0BW3f4WNjhY2HSFRV0Kylpy8+/SFfA1hUWFfkGCp+mNWV8+T6pNahfr3+fJ82W86h8g4ILCgulKwAAKDedXr/bR6Fj7BbNmr396ivSFXhQr+7dJo4ZLV1RqoNHQtMzrHtruMIxAEBFxCcmzl7glp2TIx1Ssjq1a3/t5tqoIdvNbEL0jZjIs+dkGypwn+G4ESOquLiYJ6ccdrIJwMZotVrxVbd/tWrDxtxcyTs8KmzFmnX5BQXSFXfZ29sP6t9PugKWFnTgYFZ2tmBAzRo1hg1+urw/a+qE8ebJKYfsnJyAfQekKwAAKLfggyEZmZnSFSVwcHCY/cF7jg4O0iEowb/eeqNJo0bSFSXT6XR7/fylK9SMAQDKLSk5Zeb8BekZSvxko9FoatWsudRtfpPGCv1LDSbnIb38v0unjm1atSzvz6pWrerwZwabp6gcQkKPWvsJ7CgXZyen5ydNlK54UGpa+rotP0pXlFvg/gMnT5+WrrjP5HFju3d5QroClia+DW7M8GFOTk7l/Vndnuhcgc+eJqfY05MBACiD+Gf/0rzy/HNtW7eSrkDJnJ2cZr3/rgIXhN3h5R+g42Y1s2EAgPJJz8iYOX9BckqqdEjJqlevttj1cyXfbw7TysjM2h9ySLZhcvmX/98xZcJ48TP4dDrdHl8/2QZY2JuvvNSiWVPpigf5BQWLb+Upl4zMrLWbt0hX3KdJo0b/eP1V6QpY2onIyJi4eMEArVY7aeyYiv3cCuyfM7n4hMTwiAjpCgAAyiHy7LnoGzHSFSVo37bNqy88J12BsnTq0H7as5OlK0qWnpEp/nhHxRgAoByys3NmzndLuHlTOqRkVatUWTzv87atmDbbEC9//yKdTjCg3mOPDX6qf8V+bvOmTXp172bqonLzDgjUif4awsIcHRw+efe/Slv3YTQav3Ffq9hb5f9q9cZNsoeuPMDe3v6Td/9bgVXYsHYee4QXAPbr3avC19oPH/x0rZo1TV1Ubh57FbqIEgCAEolvgi+Rk5PTrPfftbfnMaPSvfnyi0rYhVkiZf7ZVgc+MvGo8gsKPnX74kZsrHRIyaq4uHz5+Wcd2rWVDoHl6PX6vX4Bsg3jR4+qzJc4UxRwAnJGZmbwwRDpClhUx3btnp+suIOAEm/e2rJ9h3TFIzl6/MSBw0ekK+4zZcK4Lp06SlfA0uISEk5ERso2TC7n9b/3cnR0HD9qhElzKiLi9JnYeMldFAAAPLqbt26HnTgpXVGC1154vnlTxe0zxl9ptdpZ77/r6OgoHVKCa9dvXLx8RbpCnRgA4JEUFRV9tvDLy1evSoeUzNnZ2W3ObJ592JoDh0PT0tMFAxwdHSeMHlmZV+jXu5cSLuFhzG6D3nz5JQWelrZzr1fUtWjpiofIy8//dt0G6Yr7NG3c+G+vviJdAQGeXj5Go1EwoHnTpr26VWor26SxY8Q3JBmNRjYBAACshW9QsMFgkK54UIN69RS4wAiladWixXMTJ0hXlMwveJ90gjoxAMDD6fV618VLz164KB1SMidHx/mzZvTo2kU6BJbmsddLNmDwgP61a9Wq5Is8W4m1k6ZyPSbWuo5fR+U5OjjMeG+6+HO3BxQXFy9f467Ab2nutWHL1pRUBV2EY29vP+M9Dv+xRTm5uYH7D8g2TB5X2U9hdStxkp4JBR0Myc7Oka4AAOAhjEaj+Gf/Er316svKXFGO0rz8/FQlnMT4VwePhBZaz8GwVoQBAB7CYDAsWr7i+KlT0iEl02q1n338YZ+ePaRDYGnnLlyMihZeKWyS2wtHDx9WrWpVU+RUyk7paQosr0PbNi9MniRd8aCr0dd/3bVbuqJUZy9c9A4IlK64z9SJEzp36CBdAQE+AUEFhYWCAdWqVh019JnKv44STsMrLCz0UtiHNgAAf3XiVGRKWpp0xYPatm41cogJviSAJVWtUuX1F1+QrihBbl7eodBj0hUqxAAAD/H1qtWHjir0Y0+r1c7+8P0B/fpKh0CA+APrDm3bdmzXrvKvU8XFZdSwoaYoqpTwkxGJt25JV8DS3nj5RQUeBLR1x28JiUq8bV6n13+zZq3siSsPaNakyd9efVm6AgIMBsNuH1/ZhlHDhrq4uFT+dTp1aN+hrfwdTnt8/RS+/QgAAGWejvKvN9+QTkBFTBwzumnjxtIVJfDfp8Q/59aOAQDKsmrDxsD9B6UrSmZvb//x9HeGDBwgHQIBt5OSjx4/IdtQmWsPH/Ds+LGVuUnYJAwGg6eXj2wDLE+ZBwEVFRV9475WuqIE23b8GpeQIF1xl1arnfHedHZb26ZDR48lpaQIBtjZ2U0eO8ZUrzZlggl21FVSSmpqSOhR6QoAAEqVnZ0j/l3wX/Xt1bNnt67SFagIe3v7v7/+qnRFCU6fO38rKUm6Qm0YAKBU32/7ebePn3RFyezs7N7/z7/YZWazdvn4FhcXCwbUrlVryKCBpnq1xo8/3rdXT1O9WoX579ufm5cnXQFL69C2zbRnJ0tXPOj0ufNKO2kn+kbMr7v2SFfc5/lJEzu1N8E+JFgj8cvbn+zRo0ljk11iP2TQwMfq1DHVq1WY+OZCAADKEBxySKfTSVfcR6vV/uON16UrUHGD+vd7omNH6YoHGY3G/SGHpSvUhgEASrZ9p+f2nR7SFaV65+9vjxs5QroCMgoKCvyCgmUbxo0a4ejgYMIXVMIJyPn5+eK/sBDxxkvTFHgQ0MYft6Wmp0tX/MFoNC5f7a7X66VD7mrRrOmbr7wkXQEZl6OuXrh0WbbBhNvg7jw+mDhmlAlfsGIuXYm6eCVKugIAgJIdPHJEOuFBI4c806pFc+kKVMq/337Tzs5OuuJBij2K3HoxAEAJdvv4fr/tJ+mKUv3zjddNcvkqrJT/vv05ubmCAVqtduLo0aZ9zV7duynhCewuH19FnW8Oy3BQ5EFAObm5363bIF3xh517vC5fvSpdcZdWq53x7nTTjiFhRcSX/zdu9Hi/3r1M+5oTRo9yUsB5Vh5sAgAAKFJaesaFy1ekK+5jZ2f34tRnpStQWZ3atxuovJs1o6KjOQXItBgA4EGB+w+s3vi9dEWp3nz5xWlTFHdaBSxpl7fwtYcD+/WtV/cxk7+sEk5AvnU7KTT8uHQFBCjzIKAjYeFKWPpx8/btLdt/ka64zwuTJ3VoJ39pKkSkpqWJH1U/yXSn//+pdq1azwySv9jp0NFjKalp0hUAADzo8LEwpV1W36dXT2VeIYvyeuHZSdIJJVDCd4JqwgAA9zl8LGzZanfFLgF++bmpr017QboCksJOnIxPTJRtMNMGlBFDnqlRvbo5XrlcOAHZZinzIKDv1m+U3fGj0WhWuK8rKCyUbbhXi2bN3nj5RekKiNnj6yd7GlUVF5cxw4eZ45WnjJc/Da+4uHi3j/A6AwAA/kqBD0OnKuAYW5hE5w4dOrRV3OqiQ6GK+zNv1RgA4K7jpyIXLV8he7dqGZ6bNOFvr70iXQFh4ucetG7ZsmvnTuZ4ZWcnp7Ejhpvjlcvl7PkLV69fl66AAAcHh1nvv6u0g4DSMzLWbt4iGOAXvC/i9BnBgAdotdoZ73H4j+0qKirykr4fe/gzg6tVrWqOV27XprUSrqHzCQwqLCqSrgAA4K6s7OyzFy5IV9ynRbOmvXt0l66AyUydOEE64UGXoqLYl2lCDADwh3MXLrotWaq0O+X/NHHM6P+8/ZZ0BYRdj4k9deasbMPkcaY/9+CeFx+rhMevnIBss9q1af2i8s5YC9i3X+oDPz0jY/0PP4q8dWlenDK5Q9s20hUQE3QwJCsrW7bhWZNe//uAqRPl1xJmZWcHHTgoXQEAwF2hYeFKW6k5heX/6vLMwKfqPWb6g44rw2g0Hj3OAcUmwwAAGo1GE3Uteu6X/1PUEQf3GjVs6Hv//qd0BeR5evvInk9Vo3r1Ec8MNt/rN6hf76k+T5rv9R/RgcOhGZmZ0hWQ8fqL01q1aC5dcR+j0bjCfZ3IgtxVGzZl5+RY/n1L06pF89dfnCZdAUmeXj6yAT26djHrWWGD+verX6+u+V7/EXlKbzcEAOBeYScjpBPuU7NGjRFDnpGugClptVpzXPJUSSeVtBXb2jEAgOZGbNxst4W5eXnSISUb+vSgT6a/I10BeVnZ2cEHQ2QbxowY5uTkZNa3UMLOO51Ot8fXX7oCMhwcHGa8O10JO1HulXjr1g8/W/oa3iNh4eJXrd5Lq9XOeHe6A4f/2LCI02duxMbKNpjpFpw/2dvbK+Gbz5i4+BORkdIVAABoNBqNwWCIPHdOuuI+Y0cOdzbz98WwvPGjRzo7O0tX3Of02XNKu/vaejEAsHU3b92evcBNfDt5aQb17zf7g/fs7OykQyDPyz+gSPRMXss8lejauVObVi3N/S4P5eXvrxO9ZBKC2rVp/eLUZ6UrHuTp5X356jWLvV1uXt6q9Rst9naP4uXnprRr01q6ApI89govS29QzxLb1MaPVMQ3nx572AQAAFCEy1ev5eTkSlfcpdVqJ48z43mAkFKzRo1hg5+WrrhPTm7u5air0hUqwQDApqWkps10XZCali4dUrL+T/ae+8lH9vb8KYWmuLh4j6+fbEPf3r0eb9DAAm+khOMU0zMy94cckq6AmNenvaC0g4CKi4uXr3a32AKQDVu2pqQp6Mqp1i1bvjbtBekKSEpIvBkeIbz9f+LY0Rb4qqxGjepK+ObzRGRkXEKCdAUAAJqTCtuU1rVz5/p15c/rgzk8q7zRzsnTp6UTVIJHq7YrIzNrxnzXW7eTpENK1rtH93mzZijtGApIOXgkVHxSNcXM5x78adjgp2vVrGmZ9yqDBycg2zBlHgQUfePGDo9dFnij0+fO+wQGWeCNHpGDg8OM9/6rtN8OWJint7fsLThOTk7jR460zHtZ7BNuGYxGo/iNCwAAaDSak5HKegD6zMCnpBNgLq1btmjWpIl0xX2U9uffejEAsFG5uXmzF7jFJyRKh5Ss2xOdF3w6y5GTjvH/iZ970KxJk17du1nmvRwdHMaPttBDljJcu37j9Lnz0hUQ065N65emTpGueNC2X3+LTzTvZy6dTrfCfZ3sk9YHvPzc1LatWklXQFJubl7AvgOyDUOfHlSjRnXLvFerFs17dO1qmfcqQ+D+Azm5CjpyAQBgg/ILCi5eiZKuuEur1Q7q30+6AmaktAHPxStRhaJnQasGAwBbVFBQ8KnbF9eu35AOKVnnDu2/nDuHK2Xwp/OXLl++Knzu2+RxFr2TcNLYMUq46tOTTQC27bVpzyvtIKAinW75anezvsWWX3aYe8ZQLm1bt3pt2vPSFRDmExSUX1Ag22DhLeFTJshvAigoLPQJUNBmIACADTp38VJxcbF0xV1dO3eqXauWdAXMaPAAZQ0AiouLr1jwKjgVYwBgc3R6/eeLlly8ckU6pGTt27ZZNG+ui4uLdAgUxGOvl2xA1SpVRg0basl3rFunztNP9bfkO5bo6PETN2/flq6AGGUeBHT2wkUv/wAzvfjV69d/373XTC9eAXd+C7gLx8YZDIbd3r6yDZ07dmjb2qLbUJ7q82Sjhg0t+Y4l2u3ja7GrRwAA+KtLSlr+r8CnwzC5Vi1aNG3SWLriPhcvK/QBpnXhW0rbYjAY3L76OvLsWemQkrVu2XLx/M+rVa0qHQIFSUpJORIWLtswatjQKhYfSinhKmCDwbBL+qkTZLVr0/rl5xR3ENDGH7elpJr+hl6DwbB8tbui1li9+sJzrVu2kK6AsCNh4beTk2UbLH8ov52dnYX33pUoKSXl0NFj0hUAANulqEefWq1WCcvUYG5KG/NcUOoKZuvCAMCGGI3Gxd+sPHb8hHRIyVo0a/rVgnk1qlvoeFlYi93evrLP46SeQXRq365ju7aWf98H+AfvEz93ArJem/aC0p5B5+blfbt+g8lf9vfde6OuRZv8ZSusXZvWrzz/nHQF5Ilvg6v7mMymtDEjhlt++v5XHpyGBwCQczFKQY8+u3TqyPk/tuCZAQOkE+5ziQGAKTAAsCHfuK/bf/iIdEXJGjd6fMmC+bVq1pQOgbIUFBb6BgXLNvTu0b1pY5kdcErYBJCbl+cn/VsAWVqtdsZ705VwKcW9joYfP3Ak1IQvmHjr1o87fjXhC1aSo6Mjh/9Ao9FEXYs+d/GSbMP4UaNEjgKrVrXqqGFDLP++D7hw6fJlTp4FAEiIS0jIyVHQdfSDFfZcGGbSumWLJo0aSVfclZqWnpSSIl1h9fjG0las27zFN1Ch95g1bFB/qZtr3Tp1pEOgOAH7DmTn5Mg2WPjaw3s9M3BA3cfkPy52efsajUbpCkhq26rVS1Ofla540JqNm0z498M3a9YVFhaa6tUqT4E3MEPETunl/46OjhNGj5R692fHj7Ozs5N69z+Jb8IAANgmpV0A0Ld3T+kEWIjSTgFS2seCNWIAYBN+/OXX3/co6FbDe9WrW3epm2uDevWkQ6BEnt7C++4bNWzYt3cvqXfXarUTRo+Wevc/Jd66dVSpR4fBYl6b9kLrli2lK+6TnpG59vsfTPJSvkHBirodp12b1i9NVdzVC7C8tPSMkNCjsg1PP9W/Tu3aUu/etHHjJ3v0kHr3P4WEHk1NM/29IwAAlO3y1avSCXfVfazO4w0aSFfAQnp26yqdcJ/rMTHSCVaPAYD6/b5771YlHWtwrzq1a3/t5tqoYUPpECjR8YhT8QmJsg2Txo6RXXs4YfQoJ0dHwYA7PDkB2eZptdoZ7/1XaQcBBew/EHH6TCVfJC09Y/2WH01UZAJOjo6z3n+Xw3+g0Wj2+PrpdDrZBsFtcHdMmWDp+4f/Sq/X7/H1k64AANic6zGx0gl3PdGxo3QCLKdT+3YiJ0CW5kZsnHSC1ePbS5XzDghU1HONe9WqWXOp2/wmjRV0shgURfzcAxdn57Ejhss21K5Vc8iggbINGo0m8uy56BuM3G1d21atXn5OccvSv3FfW1hUVJlX+Hb9BkUdrvrai9NaNGsmXQF5Op3OOyBQtqF92zadOrSXbejTq2fTJjI38dzLKyBQfBgDALA1MXHx0gl3MQCwKS4uLq1btpCuuEtRHwtWigGAmu0/dPjbdRuUeXh39erVFrt+zjMOlCY2Pr7yC3srafgzg6tVqyrboNFopkyUvwpYo9F4sAkAGs2rLzyvtIOAbt1O2vzTzxX+6YeOHjtyLMykRZXSoW3bF6dMlq6AIgSHHMrIzJRtEF/+f8eU8fKbALKysgMPHJSuAADYkIzMrMysLOmKu57oxADAtihq5JN465ZOr5eusG4MAFTr6PETS1Z+ZzAYpENKULVKlcXzPm/bqpV0CJTLY6+3+OxqsjIefLRt1aqLAr7Y2h9yKCNTQV+AQoQyDwLa5e17OaoiB6Tm5uat2rDJDEUV5OToOJPDf/D/iZ+9VqtmzSFPD5JtuGPU0CHVq1WTrtB4evlIJwAAbEhMnILO/3Fxdm7Xmgc4tkVRI5/i4uL4hATpCuvGN5nqdOrM2S++Xl5cXCwdUoIqLi5ffv5Zh3ZtpUOgXNnZOUEHQ2Qbund5olWL5rINf5o6cYJ0gqZIp/Py95eugLy2rVq9/NxU6Yr7FBcXL1u9pgKf8tb9sCUtPd08URXxxssvNm/aRLoCiqCEg9fGjRzhqIxpn4uLy+jhQ6UrNDdiY8X3JgIAbIeizjzp0K4ti1RsTRcl7QDgGoDK4wNYhS5evjJ/8VdFlTsT2UycnZ3d5sxWwnJmKJl3YGBhYaFsg0KW/98xsF/fBvXqSVdo9voF6Nl2B43m1ReeU9pBQNdjYrfv9CzXT4k8e84veJ/ZisqtY/t2057l8B/8QfwWHK1WO3HsaNmGe00eN1YJzx089nIaHgDAQhQ1AFDUYnBYRr26jzWsX1+64q6Em7ekE6yb/FfSMK1r12/M+eLL/Px86ZASODk6zp81o0fXLtIhUDSDwbDbx0+2oX69ugP79ZVtuJe9vf2kcWOkKzRp6en7Dx+RroA8rVY76/13lXYQ0Pbfd8Y98rbQoqKib9zXip8z9icnJ6eZ7023s7OTDoEiJN66FX4yQrZhQN8+9evWlW24V6OGDfs92Vu6QhMeEZGQeFO6AgBgE27eui2dcFfnDh2kEyCgc0cF/b4npaRIJ1g3BgCqEp+YOHvBwpycXOmQkj3RqWOfnj2kK6B0IaFHU1JTZRsmjhmjhJWG9xo3coSzs7N0hcaTxY/QaDQaTeuWLV55/jnpivsU6XTLVrk/4g/esn1HopKWkLz1ykvNmnD4D/6wy9tH/A4nRW2Du2PqhPHSCRqj0ejpzedBAIAlJKUkSyfc1ZyvVG1Sp/btpBPuSkpW0EeENVLWEy5Uxu2k5JnzF2RkZkqHlOrUmbO7vLk/DQ8hfu6Bk6Pj+FEjZBv+qkb16sMHPy1doYmKjj574aJ0BRTh1Reea6uwq8DOX7q0x/fh+4eirkWL/z1zr84d2j8/aaJ0BZQiNy/PL3i/bEOrFs27d3lCtuGvenTtooS7eQL2HcjNzZOuAACoX1KK8Kq4P2m12oYNFHQUDCymcaNG0gl3JSWzA6BSGACoRFp6xsz5C5IV8xmiNOt++PHilSjpCijXxStRl6T/hAwZNLBmjRqyDSWaMmG8Ek4I8VDSk1MIsre3n/HudKUdBLRp60/JZW4hMhgMy9e4V+DGYDNxdnaeweE/uIdf8D7xgxwVuPz/jmfHj5NO0OQXFPgEBUlXAABULjsnR/zrgT81qFdPafvjYRmNGjaUTrgrmSOAKoePYTXIzs6ZOX9B4i0FnWZQGr1e/8XSZdnZOdIhUChPBTxcnjxeoQ8+WjZvpoQrNI4eP3E7ic130CjzIKC8/PyV7uvL+AG/7tp9Nfq6BYse4u1XXmrauLF0BZTCaDTu9vaVbahevdqIIc/INpRmxDODlTCh3+3tK35GEwBA3RS12LnR4wp6CgxLatSwgXIWKhUUFmZlZ0tXWDEGAFYvLz9/1gK3mLg46ZBHlZSSsnjFSukKKFFKalrI0WOyDZ07tG/fpo1sQxmmKOAE5OLiYs7ywp8UeBBQ2MmT+w8dLvE/JSTe3LrjN4sXleqJjh2nTpwgXQEFCQ0/fvO28I1/Y4YPd3Zykm0ojZOT09iRw6UrNLeTk4+EhUtXAADUTFH3nSpqGTgsydHRsW6dOtIVdyn/1BMlYwBg3QqLiuZ+sSjqWrR0SPmER5za/ruHdAUUZ7ePr/i5HJPHyR8vUIb+T/Zu/Pjj0hUav+B9BQUF0hVQBGUeBLRm0+YSt5otX+NeVFQkUVQCZ2fnGe/9VzlraqAE4mes2dvbTxo7WrahbJPHjdVqtdIV8r9TAAB1S01Lk064ix0AtqxRI/nnD39iB0BlMACwYnq93nXxV1Z6IeeWX3acPndOugIKUlhU5BMofKhundq1nxn4lGxD2ezs7CaNGyNdocnJzRW/oxLK0bpli1dfUNZBQBmZmWu+3/zAv/QOCDxz/oJQUQn+9uorTZR0rRbEXb1+XfyPaN9ePRW+yq9+3boD+/WVrtCcu3jJ6tbfAACsiKKOTVbCEjRIUdRXhtk5Cvq4sDoMAKyVwWD4Ytk3J05FSodUUHFx8ZfLVqSlZ0iHQCmCDhwUH+dOGD1KCesKyzZm+LAqVapIV2g4BQj3euV5xR0EFHTg4InIu58iU9PTN/64TbToPl2f6Dx1ovyJXlAUz73e0gmKuGX3oZRwGp5Go9nJJgAAgNlk5yroQaeiHgHDwhT1u88AoDIYAFirpd+tPnIsTLqiUtIzMr5ctpxb1HCHp5fwgw8HB4cJo0fJNjyKalWrjho6RLpCk3DzZtiJk9IVUAp7e/uZ7ynuIKAV7usKCgvv/PO3a9fn5OZKF/3Bxdn5k+nvSFf0ZlNXAAAgAElEQVRAWTIyMw8cPiLb0LRJ4949uss2PIounTq2a9NaukITEnqUhSwAADNR1A6Ahg3qSydATGMlHQDFAKAyGABYpVUbNgYdOChdYQJnzl/Y/NN26QrIOxEZGRMXL9vwdP9+j9WpLdvwiKaMH6eEc8NZ/Ih7tWrR4tUXnpeuuM/tpOTvt/105zldaPhx6Zy7/v76a+ykxgP2+PoX6XSyDZPHjpUNeHRTFLBTQafT7fH1k64AAKiToh50VqtaVToBYurVrSudcJeiBmNWhwGA9dm4ddtuH/V8v7HDcxfriKGIcw8myD9NeERNGjfq07OHdIXm1Jmz12NipSugIK88P7Vda/lluffa7eMXHhGxasMm6ZC7und54tnxVvOYFZah0+u9/P1lG6pWqTJ6+FDZhkc35OlBdWrXkq7QeAcE6qTHNgAAVcpSzADA0dHR3p4nh7ariouLdMJdihqMWR0+jK3M9t89dnjskq4wJaPR+NW3q5KSU6RDICYuIeG49G0W7Vq37tyhg2xDuTyrjBOQxQ9ugqLY29vPeG+6o6OjdMhdBoNh3qIl6RlKOaajiovLxxz+g7/YH3IoPSNTtmHk0CGK+gavbI7KOLUvIzMzOOSQdAUAQIVyFPOg08XZWToBklxcFPQHIL+gQDrBijEAsCa7vH2//+ln6QrTy8rOXrj0a71eLx0CGZ5ePkajUbZhsrUtyO3Ts0ezJk2kKzTBIYfEr26GorRq0VxpBwEVFxdLJ9z1jzdeU9Q9WlAID+lhqp2d3eRxY2QbymvC6NFKuHfk/7F333Fd1f3/x89nsLdsZIiKWxy4J3sqYF3ZMi3N3Jqz4ag0G670annZrm911VUCyhYUMMWJC/dEGbJk82F8xu8P+WWZIOPweb3P+Tzvf31v19cOj0IFzvv9fr2xEA4AAJ2hvqGBOqEJU+9/QfsMWdog0ojXhh2ABQDB2Hcg7bOvvqau6CyXrl7b+c131BVAoLqmhvxCC3NzM9/x42gb2iGSgQnIDQ0NsUnJ1BXAlmefnMLC/ZwMGjxwYHiIwN6xghacyT5//eYt2oahnp4sLCq3SRcry4ljR1NXcDdu5Zw+l01dAQAAYqNsZOVFp6EBQ+9/QfuYOgKiwgJAB2ABQBgOZh7Z+unn5LukO1VMfELaocPUFaBt8ckp5Me4Qv39mRpa0kqBvt6mJibUFdyehESmdlgDOalUunIRW4OAWGBkZLQCw3/gUVjYQi7QeymmhDExDe/3vbHUCQAAIDbs7HTGCQAdhxMAooEFAAE4nnXq/Y926MIrto8+/Tw3P5+6ArRHrVbHxCfQNshksskhQbQN7WNoYBDs50tdwZXeK0vH0h38HYODgMjNnj7N3s6WugKYU1BYmHn8BG2Do739yGFetA3t09ujZ99evagruGMns/Lv3qWuAAAAUWHn/Q9T739B+/TkcplMRl3RBJPDOwILAKw7d+HiO5u2NDY2UodoQ61CsX7TlgZmpt1BZzuYeaSohPj+51HDh9nZ2NA2tFtEWAgLX4yx+RH+CYOA/mqI58DJwYJcaITOFh2XoFaraRsmhwRJJBLahnZ7YjL9IQC1Wh0dF09dAQAAosLOTmcjLADoPHamALHz50KIsADAtMvXrq959736+nrqEO25mXN7x3++oK4ALSG/9pDjuCnCnHtwn4Od3UivodQV3JVr189fukxdAWzBIKA/GRsZrVi4gLoCWKSoq0tK3U/bYGhgEOLvR9vQERPGjLbp0oW6gktMPVBTW0tdAQAA4sHOTmcDfX3qBCDGzhgolZKVkzFChAUAduUXFLy5/t1ahYI6RNuS9x9IpP55GLTg8rXrF6jfGndzdR00YABtQwexsPmR47jdOAQA/+Du5jptKgYBca+8ON3OVqjHjKBTJaakkr819p0wnoXrZNpNKpWyMMdPoVDge1cAAOAROyOAsOca2NnUJZXiJXb74b8du27m3K6sqqKuoPHJF1/duJVDXQGdi4VXxhGhwdQJHTVowAB3N1fqCu7Q0WPk05yAQc88oeuDgLwGDQoLDKCuABZpNJroOOJbcIR7/e9fhQUG6DOwOTEmLkGj0VBXAACASMgZGPR6X12dDk2kgEdiZyqJXE9OnSBgWAAAFtXX16/ftEUHTz/ojtKysozDmbQNpiYm/t4TaRt4MWUS/SEAlUoVw8CbLGCNVCp9bckifWb2jGiZibHx8kXzqSuAUUdOnCS/Odazfz93Nzfaho6zMDf3GT+OuoIrKCw8fOw4dQUAAIiEXM7Ki866OryW0XXsLALpMfPnQoiwAACMyiso2PrJZ9QV0Fn2xCeQjzUM8vNh5zabjvCbMN7c3Iy6gotPSaljZmsAsMPNxWXa1KeoK2jMeWmGrbU1dQUwioVjcJFhodQJ/JjCxr8IC59TAAAQB3Z2OiuYefkLVNj5MZ+dhTEhwgIAsCvjcGZ0XDx1BfCvsbExNnkfbYNUKg0PEfz8n/v09fVD/f2pK7jq6prk/WnUFcCip5+I7N2zJ3WFtg0bMljQd6tCp7qZk3P6XDZtg62N9diRI2gb+NLDvZtn/37UFdzZ8xeu3bxJXQEAAGLAzk7nuvo66gSgVN/QwM6QQ3b+XAgRFgCAaf/59vuLV65SVwDP9qWlV1YS328xbMhgJwcH2gYehYcGyxgYExkVF0edACySSqUrFy/QqUFApiYmyxdg+A806/e99H9bTgoKFNNFaixMw+M4LoqBzywAAIgAOzud2Rn/AiTq6hhaAWLnz4UQief7fhAlpVL57uatVVXV1CHAp6hY+oMdopl7cJ+ttfW4USOpK7jcvPxjWVnUFcAiNxeXaU9Ppa7QnjkvzbCx7kJdAYwqr6g8kHGQtkFfT09k11OPHTnC3s6WuoJL++NQeUUFdQUAAAienpyVrTPsjH8BEkytABno61MnCBgWAIB1RSUlH2zfQV0BvMk6e/bW7du0Dc5OTsOHDKZt4B0jmx93Y/MjNOPpKRE6MghohNfQYD9f6gpgV2xSckNjI23DxHFjLMzNaRv4JZFIWJjs19DYuCchiboCAAAEz9CQlcvqGliaAAPax9QMKFNTU+oEAcMCAAjAsaxTP/32O3UF8GP3HvoXxOEhQdQJ/Ovfp7dHj+7UFVzWmbM5d+5QVwCLdGQQkKmJybL5c6krgF1KpXJvIv0L4ohQUR2Duy80wN/QgP51SWxSUqNSSV0BAADCZsbMi06NRoNDALqMqRMA7Py5ECIsAIAwfP/fX89kE1+XBx2XV1Bw/NQp2gYjI6MgkW7OZeEQgEajYWHEE7BJFwYBzZ/1knUXDP+BZqX9cfheWRltQ99evXr37EHb0BlMTUz8vSdSV3Bl5RXkI54AAEDomHrRWVxSSp0AZGoUtdQJD5iZmlAnCBgWAEAYVCrVxq3b75WVU4dAh0TFxqnVatqGAO+JxkZGtA2dxGfcWCtLS+oKLiU9A/d2QHPEPQho1DCvAB9v6gpg2u69sdQJXGRYCHVCZ5kyKVQikVBXcLtj6Q87AgCAoJmbmVEnPFBQWEidAGQKi4qpEx4wM2Xoz4XgYAEABKOsvHzj1m3kr4+h3WpqapMPpNM2SCSSiFD6GcGdRC6XTwoKpK7g6uvrY5P3UVcAo0Q8CMjM1PRVDP+BFmVfuHj1xg3aBitLywljRtM2dB5XZ+ehnp7UFdz1m7fOZJ+nrgAAAAFj6gRAwV0sAOgupj77ZmYM/bkQHCwAwN/o6emxfCnc2fMXvvnxZ+oKaKeElFSFQkHbMHjgAFdnZ9qGTjU5OFCPgVerexISsVYHzXFzcXnhGREOApo/a6a1lRV1BTCNhY3hk4IC5HI5dUUnmjKJiesNohj4XAMAgHCZsjTqJP/uXeoEIMPUZ9+cpYUxwcECADwgk8nWLF+6btUKmUxG3dKsX6Kij544SV0BbaZWq6Pj6UfDR4Yx8V6g8zCytbOktDT90GHqCmDX1MiIPr08qCv4NHrEcH/vCdQVwLTCouLDx47TNsjl8jAGDop1qpHDvJwcHagruMzjJzAwAQAA2g0jgIARTH32cddaR2ABAJrIZLI3l706ZuQIz/79ZjzzNHVOszQazYc7Pi4qLqEOgbY5dPQY+fA4ezvb0cOH0TZoAQtXATOy0RWYJZVKVy5aKJpBQOZmZkvnzaGuANZFxyeoVCrahnGjRurCOZUpDCz2q9Xq6LgE6goAABAqOxsb6oQHmBoCA1rGzmdfJpNZdxH/97GdBwsAwN1/F7Nq8cI/Nw4/+68nRgwdQh3VrKrq6g2btyiVSuoQaAMWrj0MDw5m4W7Azta7Z49+vXtRV3CXrly9ePkKdQWwy9W56/Rn2V1sbpMFL89k4f5tYFldXV1iSip1BRcRKtrrf/8q0NfH2MiIuoJLSt2vqKujrgAAAEGys2VoAeBuURF1AtCoqamtqq6mrmhiY91FF97ndB4sAAAnkUiWLZjnO2H8X//H119dwtSa80MuXb2285vvqCugta5ev5F98RJtg4GBQUiAH22D1kyZPIk6gcMhAHispyLCRTAIaOyokQ99AQX4p6T9B6pramgbenZ3H9C3D22DdhgbGQX5+VBXcDW1tSys+gAAgBDZsvQ2pr6+/l5ZOXUFEGBq/o+drS11grBhAUDXSSSSxXNmB/k+/GOSmZnpmpXLWb4mLiY+IQ1DxgWChRfBvuPHmenMjTETRo+ysbamruAOZh4pLi2lrgB2iWAQkLm52atzX6GuAAFgYRqMjmz/vy8iNEQqpf8xJzouQaPRUFcAAIDwGOjrW5ibU1c8kF9QQJ0ABJi6AZjlPcqCQP+dMdCaN/PFSc1cB9e3l8fL06dpvagNPvr089z8fOoKeIyy8nIW7oPVqRcfUqk0PDiIuoJTqVQx8fTvvIBlrs5dZzz7DHVF+y2a/bKlhQV1BbDu6ImT5N+umJub+enSUZWujo7Dh9BPs8y/ezfz+AnqCgAAECSmpgBdvHqVOgEI3M7No054wJ6lPxFChAUAnfbKi9Nbvi/0ycmTxo4aqcWitqlVKNZv2tLQ0EAdAi3Zk5DY2NhI2zCwX98e7t1oG7QsLChAX1+fuoJL2Jdajz+h0KKnIoU6CGj86FHe48ZSV4AAsHAMLsTfT0/Ip23a4YnJLX2LqzVRDHz2AQBAiJgaeHKeeqIvkLh4+TJ1wgMO9vbUCcKGBQDd9eJzzz4VEf7YX7Zy0QInBwetFLXHzZzbO/7zBXUFNKtRqYxN2kddoVvb/+8zNzPzHT+OuoKrrKradyCNugKYJpFIVi5ayMJ6VZtYmJsvnoPhP/B4N3Nunzp7jrZBJpOFBwfTNmjf0EGebi7O1BXc6XPZN27lUFcAAIDwdGXpPcz5Swy9CAatuXDlCnXCAyx8XydoWADQUdOm/uv5p55sza80MTZeu2o5y69mkvcfSEzdT10Bj5aanlFeUUHbYNOly/jRo2gbSLR8vkdromLjqROAda7OXWc88zR1RdsseuVlSwuGBrMCs6Li4smnwI8a5sXUGAGtiQwLpU7gGDkCAgAAgtPN1YU64YHyioo8XAOgY27dvlNdXUNd8YCbC0N/IoQICwC6aGpkRJtmLvd0d58388XOLOqoT774Crur2MTCyfewoEAWbgLUvu7d3AYN6E9dwd3OzT1x+jR1BbBOWIOAJowZPXHsGOoKEIDKqqrU9AzqClbeg2tfgI+3qakJdQV3IONgeUUldQUAAAiMK2OvOzEFSNecv8TQZ9zG2trE2Ji6Qth08aWYjpsyKXT2jBfa+k9NCgr0YWCcSHPq6+vXb9pSq1BQh8DfsHDsXU9Pr7lrrnUBI4cAdu+hXwcCxkkkklWLhTEIyNLCYslcDP+BVolNSia/qcjNxWXwwAG0DVQM9PVD/P2oK7iGxsbYpCTqCgAAEBg3F2eJREJd8UA2pgDpGKYWADD/p+OwAKBbJgUFzp81s33/7LL5c12d2f0jl1dQsPWTz6gr4G9YOPM+YcxoXR7TMWbEcHs7+sujTpw+fScvj7oCWOfSteuMZwUwCGjxnNnmZmbUFSAAKpVqT0IidQUXEapz0///KjI0VCaTUVdwexOTlUoldQUAAAiJoYEBCz/K/ekCS6+DQQvOX2RoyYepiVgChQUAHRLi79eRTYuGhobrVi03NDDgNYpPGYczWRg4A/fl37179MRJ6gouMkznrv/9K4lEwsIFyBqNZvde/NmEx3sqIrxf717UFS3xHjdWN+8UgXZIP3S49F4ZbYOpiUmA90TaBlp2tjajhw+jruDulZWl/XGYugIAAASmG0tTgG7n5lVVV1NXgJaUlZfn371LXfEAU38WBEpOHQBa4jdxwrIF8zr4EDcXl8VzZm/69yc8RfFv13c/9OnVq69wBkmLWHRcvFqtpm3o49Gzjwdvvxm++uHHGAb2crYV+WfhvpS09FkvPG9qQj+LGVgmkUhWLl44Z+kK8qkpj2Rlabn4ldnUFSAYLCx8Bvr6GBoa8vW0leveuXztGl9P0xpGtt7v3hvr7z2BugIAAITE3c3tCAOb6u7TaDSnz2VjK4yOOM/YxKfeHj2pEwQPCwA6YeLYMasWL+TlUQE+3mfPX0hM3c/L03inVCrf3bx157YtZmam1C06rVahSEo9QF3BRYTydu1hQ0NDXPI+Be6ZaK+6+vr45JSpUyKoQ4B1zk5OLz73zK5vv6cOeYTFc2bjiwu00vlLl8nflUulUh7n/1y7cfP0uXN8PU0HXb1xI/vCxQH9+lKHAACAYPRh7KVnxuFMLADoiGMns6gTHjAyMurm6kpdIXgYASR+Y0eOeHPZq1Ipb5/rRa+83L1bN76exruikpIPtu+grtB1CSmp5HcyW1pYeI8bw9fTUjMO4sBjB8XEJzByHAEY96/wyQwOAvIZP27cqJHUFSAYu/fGUidwwwYPcnJw4Otp0fEJfD1KZ/3OwO8KAAAQkL6MfUt89MRJNs/pAr/UavWho8eoKx7o3bMnUxdiCxQWAERu1DCvtSuX8/j2n+M4fX39dauWGxsZ8fhMfh3LOvXTb79TV+gujUYTE0f/miAsMEAu5+2QUzQD/0ZCV1RScjDzCHUFCMD9QUD6+vrUIQ90sbJa9MrL1BUgGEUlJSz81BQZxtsxuKqq6gMH/+DraTor8/iJwqJi6goAABAMK0tLpu4BVtTVHcs6RV0Bne7U2XOVVVXUFQ9gyjcvsAAgZl6DB617baVMJuP9yV0dHZd2+EaBTvX9f389k51NXaGjDh87XlBYSNsgk8kmBwfy9bRzFy7euHWLr6fpMha2xIIgODs5vfTcs9QVDyyZ+4qZKYb/QGvFxCWoVCrahq6OjsOHDuHrafEpKdjx13EqlQoHKQAAoE369mLrEEDGIdxpL37phzOpE/6GtaMwAoUFANEaPHDA+jde0+NvB/RDvMeO4XGwLO9UKtXGrdvvlZVTh+giFl7yjh05wrpLF76eFh0Xz9ejdNyFy1cuXxXeBZJA4snwSYwMAvKbOGHMiOHUFSAYdfX1CSmp1BVceAhv36RpNJq9CUl8PU3HJaak1tXVUVcAAIBgsLYAcORkVmNjI3UFdCK1Wn3o6FHqir/BCQBeYAFAnAb07bNh9RudPT9h7ksv9u7J1qU0f1VWXr5x6zbMHNey6zdvnT1/gbqCz7kHpffusTDJQTQwARlaiZFBQF2srBbOnkXbAMKSvD+N/M4YI0PDID8fvp52+NjxwmIMruFHdU1N0v4D1BUAACAY/fqwtQCgUCgwBUjcTp/LrqxkaP6Pq7OzpYUFdYUYYAFAhPr08nhv3RpDA4PO/kByuXzNymWmpiad/YHa7ez5C9/8+DN1hW5hYft/927dBvbry9fT9iQmkU9yEJODmUdK792jrgBhYGEQ0NJ5c0xN2P0yBwyKioujTuD8vSeaGBvz9TTcgsMv/PcEAIDW69WjB49f03mRwdh8GOBXOmNTnrwGe1IniAQWAMTGo0f3D95aa2RoqJ0P52Bnt2rxIpbv4/4lKvroiZPUFbqivKIi7Y9D1BVcZFgIX49qVCrjk1P4ehpwHKdUKvckJFJXgGA8GT6pf58+VB89wGfiqOHDqD46CNHxrFO5efm0DRKJhMevgzl37uBSJX7l5ufjW1MAAGglqVQ6aEB/6oq/OXL8RD1uBhIptVrN2vwDr0GDqBNEAgsAotK9W7cP316n5fXh0cOH/StisjY/YptoNJoPd3xcVFxCHaIT9iQkNVAPBDQzNfWbMJ6vp6X/cbi8ooKvp8F9scn7cJkktJJEIlm5aIFB559p+yebLl0WzMLwH2gbFqacDR44wNXZma+nRcclaDQavp4G9+2OpT8mAgAAQuE1mK0XoLUKRTLG2YnU8VOnKyorqSsekMvlrC2ACRcWAMTDzcVl0zvrzExNtf+hX35h2oC+ZDs0H6uqunrD5i1KpZI6ROSUSmVsUjJ1BRfi78fj0HBc/9sZKiurUtIzqCtAMLo6Ob703DPa/7hLF8w1MWHrwDUw7nZubtaZs9QVXGQob9v/a2prU/HXdSc4dfbczZzb1BUAACAMDO6AjorFj8niFMXYHoW+vXsZamvAiehhAUAknJ2cNq9/y8LcnOSjS6XS1cuXUX301rh09drOb76jrhC5Awf/KCsvp22QyWThIcF8Pe3S1auXr13j62nwV7v3svWNBTDuicnaHgQU6OszYuhQbX5EEIHde+PIN8vb29mOHjGcr6clpR5Q1NXx9TT4k0ajicIOAwAAaJ2uTo72trbUFX9zJy/vOK4CFp2cO3dY2MvyVwyufgkXFgDEwMnBYcuGt60sLQkbbKy7vLF0iVTK7u+omPiENMYuMxEZFuYejPAaam/H2/dGuKav8zD4vQWwTCKRrFysvUFANtbW82e9pJ2PBaJRVVXNwtmmycFBPN7MhCtbOk9qekZlVRV1BQAACANrU4Awzk6UomLjyfeyPGTE0CHUCeLB7utaaCV7O9vNG9627tKFOoTzGjzouX89QV3Rko8+/Tw3n/hqPrE6e/7C9Zu3qCv4vP63vKIi43AmX0+Df8IhAGiTro6OLz3/rHY+1rIF87R8mw6IQNy+ffX19bQN+vr6of7+fD3tWFZWXkEBX0+DhzQ0NLAwOBEAAARh9PBh1AkPO3n6zO3cXOoK4E1VNRN7Wf7Kwd7Oo0d36grxwAKAsNlYW29e/7adjQ11SJPpzzw9xHMgdUWzahWK9Zu24PbRzrCbge3/rs7OQz09+XpabNK+RuoLjcXtWFZWXj5eLUEbPKmVQUAh/n7Dhwzu7I8CIqNWq2Pi6TfL+44fZ2bG211QMTgG18n2JCSqVCrqCgAAEACvIYONjYyoK/5Go9HgJgAxiUum38vykHGjRlEniAoWAASsi5XVlvVvO9rbU4c8IJFI3lz2ahcrK+qQZt3Mub1j5y7qCrG5W1R05MRJ6gouIpS36f9qtToO+/I6mUajiYrDIQBom84eBGRnYzN35oud93wQq4zDmSWlpdQVXGRYKF+PyisoOH7qNF9Pg0cqvVeWjumUAADQCnpy+Ugv5q6n2peWXlVdTV0BPFCr1QwOfpwwGgsAfMICgFBZWlhsXv9WVydH6pCHWVpYrF6+VCaTUYc0K/lAWmJKKnWFqETHxZNvYTMxNg708ebraQczj5Tcu8fX06A5yfvTampqqStASLo6Os58/rlOerhEIlm2YB5ru6tAEFi4BWdA3z493Lvx9bSY+ETWhsCKEqbhAQBAK40fM5o64WH19fV7EpKoK4AHGZlHikvo97L8lY21dd/evagrRAULAIJkbm626Z11rs7O1CGP5tm/34xnn6GuaMknX35941YOdYVIKOrqElP2U1dwgb7ehoaGfD0tOg6HGbVBUVcXn5JCXQEC88TksAF9O2UQUIi/H4MXrAH7Ll65eunKVeoKLoK/7f91dXXJ+w/w9TRoweVr185fukxdAQAAAjB86JBOPQjbPv+LjsGd9iLw6+5o6oSHjRs1kjpBbLAAIDympiYfvrXO3c2NOqQlzz45ZaSXF3VFs+rr69dv2lKrUFCHiEFS6v6aWuJN3BKJJCKEt+t/r9+8lX3xEl9Pg5bFxCWo1WrqChCYlYsXGvL984+9rS2G/0D7RDGw/d+mSxceT0nvS0sn/8quO1i4RQkAANhnaGDA4D1VNbW1P/zyP+oK6JD9GQev3rhBXfEw73FjqRPEBgsAAmNsZPT+ujU9u7tThzzea0sWsXM78T/lFRRs/eQz6goxiGJgs7zX4EE8jsOKice1h9pTWFx86Ogx6goQGCcHh5d4HQR0f/iPEX+niEB3lJTey8g8Ql3BhQUFSqW8fVePr4PadOjosaKSEuoKAAAQAN8J46kTHiE2KTmvoIC6AtqpUan8+v9+oq54mLOTU/8+vakrxAYLAEJiZGi4ce3qPh4e1CGtYmZmumblcrlcTh3SrIzDmVGxGL3aIZnHT+QX3KWu4PPaw6rq6v0H/+DradAa2PwI7fDE5LCB/fry9bSwwIChgzz5ehrolJj4BPJbcPT09CYFBfD1tFNnz+XcyeXrafBYKpUqJg4rLgAA8HhjRgy3MDenrniYUqn88vv/o66AdoqKjSssLqaueFiQnw91gghhAUAwDAwMNqx+vZMGH3eSvr08Zk9/gbqiJbu+++EiA3N7hYuFy+ucHBxGeg3l62kJ+1Lr6+v5ehq0RvbFS1evM3fkENi3YtECXgYBOdjbzXlxOh9FoHPqGxri99FfZDJhzChLCwu+nobt/9oXn5JSh+89AADgcWQyGZuHAP44chRX2ghRVVX1z7/vpq54mEwmC/Dxpq4QISwACIO+vv76N14bNGAAdUibPTE5bDx/Q2l5p1Qq3928taqqmjpEkG7m5Jw+d466ggsPCeLrURqNZk9iIl9Pg9b7HYcAoO2cHBxmTuvoICCJRLJ8wXwerxAHnZKSls7CxXc8HoMrKi45cuIkX0+DVqqurhRE2vgAACAASURBVEnen0ZdAQAAAhDi70ud8Gi7vv2OOgHa7Idf/1ddXUNd8TCvwYOsrayoK0QICwACoKent27VCuFOJ1i+cL6TgwN1RbOKSko+2L6DukKQWNj+b2hgEOznx9fTMo8dLyxi7vibLsg4nHmvrJy6AoRnyqSwgf37deQJk4ODBg8U3uI6MIKFQYK9e/bkcTjknoRE8olGuikqjv73EgAAsM/dzc2jR3fqike4cPlKxuFM6gpog4K7hbFJydQVjxDsx+gql9BhAYB1Mpls9fKlPE440T4TY+O1q5br6+tThzTrWNapn377nbpCYCoqK1mYle/vPdHExJivp0Vj7gGRxsbGPQk4ewHtsWLh/HYPAnK0t589g+k5dcCyE6dPszArPyIshK9HNTQ0JKSk8vU0aJPcvPxjWVnUFQAAIADMvh79/Otva2pqqSugtb74/ofGxkbqiodZWVqOHj6MukKcsADANJlM9vrSJWNHjqAO6aie7u7zZ71EXdGS7//765nsbOoKIdmbmNzQ0EBdwUWE8vbi43Zu7ulz+D1AJi55H4PffwD7nBwcZr3wfDv+QYlEsrwDiwcAUQwcg7O0sPAeN5avp+3POMjCRCOdxcLBSgAAYJ/fxAlGRkbUFY9QUlr68RdfUFdAqxzMPHIw8wh1xSNMDg6Sy+XUFeKEBQB2SaXSVYsXeo8dQx3Cj7DAAL+JLN5Xc59Kpdq4dTuGkLSSUqncm5hEXcENGtC/m6sLX0+LjkvQaDR8PQ3aqryiIjU9g7oCBCkyLLQdg4DCQ4IHDejfOUUgfnfy8o6fOk1dwYUG+uvx9zNSDE5ikco6c/Z2Lv2ZEgAAYJyJsXGQrw91xaOlph9k87Uy/FV5ReWOnbuoKx5BX09vcnAgdYVoYQGAXSOGDmHzhvd2e3XeXFdnZ+qKZpWVl2/cuk2tVlOHCEDaH4fvlZVRV/B57WGtQpGCt8/UdjMwTRsEauXCBW3ay+/k6IDhP9ARUbHx5GvGMplsclAQX0/Lvnjp2o2bfD0N2kGj0eAQAAAAtEZkWIhUyujbvO07/1NeUUFdAS3Z9tnnFZWV1BWP4D1urKWFBXWFaDH6VwZwHCcT3bEXQwODdauWszxv4ez5C9/8+DN1hQDsjo2lTuDsbGzGjBjO19OSUvcrFAq+ngbtczPnNqYwQfs4OtjPemFaK3+xVCpdsXCBAcM30wDjqmtqUtLSqSu4sSNH2Fh34etpMbgFhwEp6RlVVdXUFQAAwLqujo4jhg6hrni0ysqqrZ9+Tl0BzUrefyDz2HHqikd7YvIk6gQxwwIAaJWbi8viObOpK1ryS1T00RMnqSuYln3h4tXrN6gruEnBQTzueoiJx9wDJvy+l35tCQQqMizEs3WDgCJCgwf269v5RSBa8ckpiro66go+j8GVlpX9ceQoX0+Ddquvr49N3kddAQAAAjBlchh1QrOOHD+RmJJKXQGPUFRS8tlX31BXPJpn/3493LtRV4gZFgBA2wJ8vEP8/agrmqXRaD7c8XFRcQl1CLtYmNOir68fFujP19OOZ53KKyjg62nQEcdOZuXfvUtdAUK1YtECI0PDln+Nk6ND688KAPyTWq1mYbN8927deFzHik1MUiqVfD0NOmJPQiLGUQIAwGMN9fTs5upKXdGsz7/+trComLoCHrb1k89qamupKx5t6pRI6gSRwwIAEFj0ysvdu7G7sldVXb1h8xb8JPxIhUXFhxk4L+Y9bqy5mRlfT4tm4FUO3KdWq6Ni46krQKgc7e1nTnu+hV8glUpXLlqI4T/QEQczjxSV0O8SiAgN5utRSqUyDrvOmVFSWppxOJO6AgAABOCZJ9h9YVqrULz94ab6hgbqEHjg972xWWfOUlc8mkeP7iO9hlJXiBwWAICAnp7eulXLjY2MqEOadenqtZ3ffEddwaLo+ASVSkVdwUWGhvD1qPy7d0+cOs3X06DjkvYfYHZXArAvMixk0ID+zf1/p0wKHdC3j3aLQGxYOAZnZmrqP3ECX09LP3S4rByX9TEE0/AAAKA1fMaPc3Zyoq5o1rUbN9//aAd1BTQ5efrMF9/9QF3RrBeenkqdIH5YAAAaXR0dly2YR13Rkpj4hLRDh6kr2FJXX5+YSj/Lr1+f3h49uvP1tJh4nLVni0KhwMhI6IjlC+c/chCQs5PTzOefoygC8bh87fqFS5epK7hgf199/g6y4Bgcay5duXrxylXqCgAAYJ1UKn32ySnUFS05dOTo1//3E3UFcHfy8t7dso2FrZyP1LO7++jhw6grxA8LAEBm4tgxEfzt4+4MH336eW5+PnUFQ5JS91dX11BX8Ln9v66+Pnn/Ab6eBnyJjk/QaDTUFSBUjvb2s154eBCQVCpduXgBj+9MQTftZmBrtlQqDQ/hbf7P5WvXL+FdM3tY+J0GAADs8/ee6OTgQF3Rkp9/352SlkFdodOqqqvXbHy/uob+TU5zpk19ijpBJ2ABACjNfWlG7549qSuaVatQrN+0pQFz6/6/6Dj6TYJdrKwmjBnN19NS0tJZ/kKos+4WFrFw1QQIV0Tow4OAnpg8qV/v3nRFIAalZWUsDGcfOczLwc6Or6dFx+HaFRYdzDxSUnqPugIAAFgnlUqfYfsQAMdxH332+XkGDlDqJpVK9c6Hm/ML7lKHNKt7t25jR46grtAJWAAASnK5fO3K5WamptQhzbqZc3vHzl3UFUw4ejKLhfMQYYEBMpmMr6exsKQBj4QJyNBBfx0E5NK168znn6UuAsHbE5+gVCqpK/g8BldRWZmBaYdMUqlUMRjNBAAArRDo4+1gz9vOgM7Q0Nj4zoebiopLqEN00Y6du85kn6euaMnL/zi6DZ0ECwBAzN7OduXihRKJhDqkWckH0jCRnJHT6HK5fFJQIF9PO30uO+fOHb6eBvw6d/7CtZs3qStAwBzt7V+ePo3jOJlMtnLxQj09PeoiELbGxsbY5H3UFZyrs/PQQZ58PS0ueV9DYyNfTwN+xe9LqcchVAAAeByZTMb+NVdl5RVvbthYXlFJHaJbfovZm8D2uyyvwYOGDx1CXaErsAAA9EYPH/ZURDh1RUs++fLrG7dyqCso5dy5c+rsOeoKbvzoUV2sLPl6Gq49ZBwLa04gaOEhwa8tWbzhzdf79vKgbgHB25eWXllZRV3BhYcE8fUotVq9NzGZr6cB7yqrqlLS0qkrAABAAHzGj2N5tPJ9OXfurFi7rqy8nDpEV+xJSNr13ffUFS2RSqVzXpxOXaFD5NQBABzHcbNeeP7C5cvZFy9RhzxafX39+k1bPtu6ydjIiLqFxu9741i4lDUyjLe5BxqNpn+f3ngt+Ei/74ll4TuztD8OvzJjuqWFBXUICJi/9wTqBBCJqFj6WfnGRkaBvj58Pa2sooLHr6pi0tDQ+MMvv7LwbU9UbFxYYAB1BQAACMArL05fvmYddcVj5NzJXbZ63eb1b9tYd6FuEbnouPjPvvqGhW9mWhDo4+3u5kZdoUOwAABMkEqla1Ysm7tsZXlFBXXLo+UVFGz95LO1K5dThxCorKran3GQuoLz6N6dxzs8JRIJ4+dOCNXXN/zwy6/UFVxjY+OehKTpz0ylDgEAXZd19uyt27epK7hAX58/b7boOGsrq6enRPL1NJE5f/HSyTNnqCu4nDu5J06fHjZ4MHUIAACwzrN/vzEjhh8+dpw65DFy8/OXrV67ZcM7drY21C2i9Wt0zBff/UBd8RhGhoYvMT+6SmQwAghYYd2ly+uvLpZK2f09mXE4Myo2jrqCQFzSvvr6euoKPrf/Q8vCggLkciaWh2OTkhoZuHITAHTc7j30X/0lEklEaDB1ha4IZ+Y/NQu/9wAAQBBmz3hBJpNRVzxeQWHhstVrCwoLqUPE6effdrP/9p/juKefmMLjeGdoDXZftoIO8ho86PmnnqSuaMmu7364eOUqdYVWqVSqPQmJ1BWchbm5z4Tx1BW6wtrKauzIEdQV3P3bog4wcPoEAHRZXkHB8VOnqCs4r8GDnJ2cqCt0xejhw+xtbakrOI7jTpw+fScvj7oCAAAEwNnJaUpYKHVFqxQWFy9bvS4vv4A6RGy+/++vX//4E3XF47l07fr0lAjqCp2DBQBgywtPTx3iOZC6ollKpfLdzVurqqqpQ7Qn/VBmyb171BVcaIC/Hht70nVERCgr5y126+SxGwBgR1RsnFqtpq7gIpn5a1kXSCSSyfzdt9wRGo2GhfsnAABAEGY8+7StjTV1RauUlJYuXb3m3IWL1CHi8cV3P7AwyPexJBLJkrmvMDJyQKdgAQDYIpFI3ly21LqLFXVIs4pKSj7YvoO6Qnt2742lTuBkMhkjP4frjoH9+rq7uVJXcBzHXb9560z2eeoKANBRNTW1yQfSqSs4R3v7EV5DqSt0S4i/n76+PnUFx3HcvgNp1TU11BUAACAAhoaGC16eRV3RWmXlFaveeic6LoE6RPBqampXv/ver9Ex1CGtEuDjPWhAf+oKXYQFAGCOpYX5m8uWsjy97ljWqZ9++526QhsuXL58+do16gpu9PBhttbC2MggJuwcAtDNuzcAgAUJKakKhYK6gosIDZZIJNQVusXczMx77BjqCo7juLr6+vjkFOoKAAAQhrEjR4waPoy6orWUSuWnX3616d8fNzY2UrcI1a3bdxasfO3YySzqkFYxNzeb8+J06godhQUAYJFn/34vPvcMdUVLvv/vr2eys6krOt3uvUy8eMX1vyT8Jk4wNTGhruA4jss8fgKXRAGA9qnV6uh4+ukrhgYGwX5+1BW6KJyZhfCY+AQW5lABAIAgLJr9sqGBAXVFG+w7kL7kjdVFJSXUIcKTfujw4tfeyCsQzG0Kc2ZMNzczo67QUVgAAEY988SUkV5e1BXNUqlUG7duv1dWTh3SiYpLS/84cpS6guvm6jpowADqCl1kaGAQ4ONNXcE1vYPDyVAA0LpDR48VFhVTV3B+EyeYmBhTV+ii3j179PHoSV3B3Z8/eTDzCHUFAAAIg52tDeP7Kf/p6vUb85avPHX2HHWIYKjV6v98+/27W7Yp6uqoW1pr1PBhgb4+1BW6CwsAwK7Xliyys7GhrmhWWXn5xq3bRLwhKyYuQaVSUVdg+z8ldoZOJKXuF9B3NgAgDizcgsPUQDYdxM4hgN2YhgcAAK32ZPjkgf37UVe0TWVl1Rvr3/2/X//HwlsIxpWVl7/+zobfYvZQh7SBpYXF8gXzqSt0GhYAgF1mZqZrVi5n+XLws+cvfPPjz9QVnaK+oSF+H/3AWVNTE3/vidQVuquro+PQQZ7UFRzHcTW1tYkpqdQVAKBDrl6/kX3xEnUFN2hAf0auZNdN3uPGWpibU1dwHMdduHT58rXr1BUAACAYqxYvNDIyoq5oG5VK9d3Pv8xdtvLS1avULeyK35cyc9ESwZ2WWDp/rqUFE99T6SwsAADT+vbymD39BeqKlvwSFX30xEnqCv4l7z9QVV1NXcEF+/oa6OtTV+i0SGY2P0bHJWg0GuoKANAVjGy4xvZ/WnpyeYg/KxcwMHIkBQAABMHBzm7ezBepK9rj1u3bS15f/dlX39TV11O3sCUvv2DF2rc++mxndXUNdUvbhPj7jRkxnLpC12EBAFj3xOSw8aNHUVc0S6PRfLjj46Jisd1XExVLf+2hVCoNDwmmrtB1I4d52dvZUldwHMfl372befwEdQUA6ISy8vL0Q4epKzhbG+uxI0dQV+i6ySFBMpmMuoLjOC7jcGbpvXvUFQAAIBgh/n6jhrF7sWIL1Gp1VGzcy4tePZ51irqFCSqV6qfffn9l6fIz2eepW9rM0d5+/qyXqCsACwAgBMsXzndycKCuaFZVdfWGzVuUSiV1CG+OZ526k5dHXcENHzLE0cGeukLXSSSS8GBWlmGi2NiQCwCitychsbGxkbqCmxwcLJXie3VidjY2jLw9USqVexISqSsAAEBIli2YZ2VpQV3RToXFxW9u2PjB9h0VlZXULZQuXb06b/nKb378uaGhgbqlzfT19detWmFoaEgdAlgAACEwMTZeu2q5PsOjYC5dvbbzm++oK3jDyNyDyEmYe8CEEH8/Rv70nT6XfeNWDnUFAIhco1IZm7SPuoLT19cPC/SnrgCO47jwUFYWwmOT97GwNAUAAEJhZWn55rKljBxla5/U9IMz5i38/r+/1tTWUrdoW0Fh4eaPP13y+uqbObepW9ppwcsze3Z3p64ADgsAIBg93d0ZPzQUE5+QxsC4gI67nZt78vQZ6grO2clp2ODB1BXA3b+O23vcWOqKJoysTgGAiKWmZ5RXVFBXcN5jx5ibmVFXAMdx3FBPT5euXakrOI7jKiur9qWlU1cAAICQDB444IWnp1JXdEhNbe0Pv/z6wpz5P/8epSMXAxQWFW/79POXFixO3n9ArVZT57RToK9PaAC2s7ACCwAgGGGBAX4Tx1NXtOSjTz/Pzc+nruioqNh4Fq5ajWBmtx0w9ek4kHGwvEKnT4ACQGdjZNpYZFgodQI8wM6lRCzc0gQAAMLy/FNPjhg6hLqio6qqq7/+vx+nvTLv1+gYIQ7DaaXi0tIdO3e9uGBRQkqqSqWizmm/7t26LZkzm7oCHsACAAjJq/Pmujo7U1c0q1ahWL9pi6C/FFVVV6cwsLPM2Mgo0NeHugIe6NWjR59eHtQVHMdxDY2NsUlJ1BUAIFqMjBrr17uXR4/u1BXwQKCvt5GREXUFx3Hcrdu3s86cpa4AAACBef3VJXY2NtQVPKiorPziux9emLsgOi5BZGPxSu/d++SLL2fMWxiblCz0OyZNTU3eem0FI5OE4T4sAICQGBoYrFu13NDAgDqkWTdzbu/YuYu6ov3ikvexcKQuwGeiMRs/ZsOfIkJYuZJhb6Lgvx8CAGYxMmcsIhTb/9libGTkP3ECdUWT3XuZ+F0KAAACYmZmum6VeF7I3isr+/TLr6bOfPmTL768dvMmdU6HaDSa41mnNmze+sLcBTHxiSJY1ZDJZGtXLndycKAOgb/BAgAIjJuLy5K5c6grWpJ8IC0xJZW6oj3UavWehETqCk4ikYQz864Z/jRx3BhLCwvqCu7+d3sH/jhEXQEAIpR/9+7REyepK7guVlYTx46mroCHsTMN71hWVl5+AXUFAAAITG+PnisXLZBIJNQhvKmuromJT5y3bOXcZSui4xKqa2qoi9qm4G7hNz/9/NzsuW9u2JhxOFMEr/7vWzxn9lBPT+oKeBgWAEB4/L0nhLB9kcgnX37NwgCBtso4nFlcUkpdwQ3xHOjqzMRVe/BXenJ5aIAfdUWTKGx+BIBOEB0Xz8I1a2GBATKZjLoCHubm4jJoQH/qCu7+VsGoOHwdBACANvMeN3b6M8K+EPiRrt+89emXXz09c/YH23ecyc6mznmMhoaGlLSM5WvWzZi/8Kf//V5SSv8ShkdPRYbj4l82yakDANpj0exZl69eu3HrFnXIo9XX16/ftOWzrZuENceGkRPluPaQWZOCg36JimHhJqKrN26cu3BxYL++1CEAIB61CkVS6gHqCk4ul08KCqSugEeLCA05k32euoLjOC55f9pLzz1nYmJMHQLwwIIVr0ml2F/IinfeWNXHg4kbvIA106Y+dScvf3/GQeoQ/jU0NKSmH0xNP2hlaTl00MAhnp5DB3naWltTdzXJuXPn1NnsU2fPnj6XXatQUOd0irGjRr4yYzp1BTwaFgBAkPT09NatWr5gxWs1tbXULY+WV1Cw9ZPP1q5cTh3SWpeuXr145Qp1BedgbzdqmBd1BTyarbX1qOHDDh05Sh3CcRy3e28sFgAAgEcJKaks/DA2ftTILlaW1BXwaGNHjrCxtmZhp56iri4+JeWpiHDqEIAHyisqqBPgAWUjbsyCZq1YtOBuYeGFy/Q//neSsvLy+ysBHMc5d3XyGuQ5xNNz8MABJsbaXji/W1R0+uy509nZWWfOlZWXa/mja1kfj55vLF1CXQHNwgIACFVXR8dlC+Zt2LyVOqRZGYczo2LjpkwKow5pld17YqkTOI7jJgcHiWkoofhEhAQzsgCQefxEYVGxvZ0tdQgAiIFGo4mJS6Cu4DiOi5yEY3Dskkqlk4ICv/3pZ+oQjuO4mLiEJydPwoZrAABoKz25fMPqN5a+ufZ2bi51S6fLzcvPzcuPiU+UyWQe3d27d+vm0rWri3NXZydHR3t7fr+M1jc05OUX3M7Ly83Lz83Pv3j5Sv7duzw+n2Xubq7vrVtjIJZbpkUJCwAgYBPGjI4MC42Oi6cOadau737o06tX316sn74sKb2XkXmEuoIzMDAI8Wdlyjw80hDPga7Ozix8p6hSqaLj4ue8NIM6BADE4PCx4wWFhdQVnEf37v1696augJaEBfr/+L/fWLimr7C4+NDRY+NHj6IOAQAA4TE3M/vg7bVL31hTWFxM3aIlKpXq0tVrl65e+/N/kcvlTg4OLs5dXbt2dXKwNzExMTE2NjI0NDQ0NDIyNDI0NDI01P/LG21FXZ1CUaeoUyjq6uoUdYq6OkVdXem9e3kFBbl5BbfzcktK72k0GqJ/P0pdHR0/fHudmakpdQi0BAsAIGxzXpx+8fKVy9euteLXElAqle9u3rpz2xYzM6b/KoyJT2BhsLvvhPH4msG+8JCgT774irqC4zguMXX/jGefNjQ0pA4BAMHbvZeJY3ARYSHUCfAYlhYW40ePYmR08u69sVgAAACA9rG1tv7w7XVLV68pK9fR+V1KpfJ2bu7t3NxDzf8auVxuaGigbFTWNzTo5sv9x7K1sd70zltWlphgyTocGgVhk8vl61atYPmtcVFJyQfbd1BXtKShoSF+Xwp1BcdxXGQoXnwIQKCvDyO3W1fX1CQycGMnAAjd9Zu3zp6/QF3BmZub+Y4fR10BjxcRGkyd0CT74qWr129QVwAAgFB1dXJ8f91aUxMT6hB2KZXK6uqauvp6vP1/JCtLi03vvGVna0MdAo+HBQAQPDtbm9eWLGJ5cPyxrFM//fY7dUWz9qWlV1ZVUVdwA/v17d7NjboCHs/I0NDfeyJ1RROWJ4ABgFAwsv0/1N9fT0+PugIer1/v3j27u1NXNPmdjd+9AAAgUD3cu21Y/YYRDlVD21lZWm5e/7azkxN1CLQKFgBADEYO83oqIpy6oiXf//fX0+eyqSseLSo2jjqB4zguMgzXHgpGRGgwI0tueQUFR0+cpK4AAAErr6hI+6OFk99aIpPJJocEUVdAa0WEsHIIIONw5r2ycuoKAAAQsAF9+7z/1loTY2PqEBASG2vrjzZucHNxoQ6B1sICAIjErBeeH9C3D3VFs1Qq1XvbtjP4E9rJ02dy7tBf6GpjbT1u1EjqCmgtV2fnQQP6U1c0weZHAOiIPQlJDQxc6Dp6+DA7G5yeFgx2bi1qbGzck5BIXQEAAMLWv0/vD995i5EvbcA+R3v77e+929XJkToE2gALACASUql0zcrllhYW1CHNKisv37h1m1qtpg75G0bmHkwKCpRK8deRkEQwc2HDqbPnbubcpq4AAEFSKpWxScnUFRzHcZG4/ldQ9PX1g/x8qSuaxCXva2RgEQsAAAStd88em9e/bWFuTh0CrHPu6rRt4wZ7O1vqEGgbvHED8bC2snr91cUsv0c+e/7CNz/+TF3xQG5+/vFTp6krOH09vbDAAOoKaJsxI4bb2lhTVzRhZIwVAAjOgYN/lJXTH87r5uo6aMAA6gpom/CQIEa+5yyvqEjNOEhdAQAAgtfDvdvWd9+xsrSkDgF29ezu/tHGDTbWXahDoM2Y+LYVgC9egwc9/9ST1BUt+SUqmp2R5VGx8SzcZT9h7BhLC2w0EBipVDopKJC6oklqxkEWLrIGAMFhZIYYtv8LkaO9/fAhQ6grmmAhHAAAeOHm4rLjg43OXXGtKzzCiKFDPtq4geXBG9ACLACA2Lzw9NQhngOpK5ql0Wg+3PFxUXEJdQhXXVOz70AadQXHcVwkM8NkoE1CAwL09PSoKziO4xoaGhgZ4gEAAnL2/IXrN29RV3CmJiZ+EydQV0B7RISychXwjVs5p89lU1cAAIAYONrb//uD91i+YRFIhAUGbFj9hqGhIXUItBMWAEBsJBLJm8uW2nRh90RSVXX1+k1blEolbUb8vhRFXR1tA8dxfXp59PboSV0B7WFpYT5hzCjqiiZ7EhJVKhV1BQAICSO34AT5+RgaGFBXQHsMHzrEydGBuqIJI8dZAABABMxMTTetf3vi2DHUIcAEiUQyc9rzr86bw8jwQ2gffPJAhCwtzN9cvlQmk1GHNOvytWs7v/mWMECtVu+JTyQM+BO2/wtaRAgrn77Se2Xphw5TVwCAYNwtKjrCwEQ+qVTKzl+k0A7hwUHUCU2OnczKv3uXugIAAERCTy5fs2LZ1MgI6hAgZmBg8OayV599cgp1CHQUFgBAnAb26/vic89QV7QkJj4xje595R9HjhYWF1N99D9ZWVpgW4Gg9e3dy6N7d+qKJtj8CACtFx0Xz8KxoeFDhjg62FNXQPsF+fkycoBDrVZHx8VTVwAAgKjMnvHCikUL9PX1qUOAhqO9/Y73N3qPG0sdAjzAAgCI1jNPTBnp5UVd0ZKPPv08Nz+f5EPv3svEZXGhAQFyuZy6AjoknJkJyFeuXT9/6TJ1BQAIgKKuLjFlP3UFx3FcBK7/FThTExOfCeOpK5okph6oqa2lrgAAAFEJ8vX56L0NdjY21CGgbcOGDP50y4c93LtRhwA/sAAAYvbaq4vsbW2pK5pVq1Cs37SloaFByx/38rXr5y9d0vIH/SeZTDY5OJC6AjrKd/w4czMz6oomjEz0BgDGJaXuZ+E9qbOT0/Ahg6kroKMiQlhZCFcoFImpTKxsAQCAmPTq0ePzbZuHeA6kDgEtkUgkzz75xHtrV5uZmlK3AG+wAABiZmZqumblMpb3mN/Mub1j5y4tf9CoWCZeko4bNdKa4buaoZX09fWD/XypGBeYfQAAIABJREFUK5ocOnqsqKSEugIAWBfFxqSUCGZOUEFH9HDv1r9PH+qKJjFxCRqNhroCAADExtzM7IO31j4VGS6RSKhboHOZmZq+/drKmdOew+daZLAAACLXx8PjlRkvUFe0JPlAWmJKqtY+XGlZWfqhTK19uBbg+l/RmBwSJJUy8dVEpVLFxCVQVwAA0zKPn8gvoL8r1cjIKNDXh7oC+MHOWk5BYeHhY8epKwAAQISkUukrM6ZvWP2GlaUFdQt0lkED+u/avm3MyBHUIcA/Jl7ZAHSqKZPCxo8eRV3Rkk++/PrGrRztfKw9CYlKpVI7H6sFPdy7DejXl7oC+OFgZzdi6BDqiibxKSl19fXUFQDALkZmhQV4TzQ2MqKuAH5MGDPaytKSuqIJI7/DAQBAlEZ6Dd21/aMRXkOpQ4Bncrn85enTtmx4x8YacxrECQsAoBNWLFrQ1dGRuqJZ9fX16zdtqVUoOvsDNTY2xiXt6+yP0hrY/i8y4cx8Qqura5L3p1FXAACjbubknD6XTV3BSSSSCGb+2oSOk8lkk4ICqCuanD1/4drNm9QVAAAgWpYW5hvXvLng5Vn6+vrULcAPZyenHR9sfHpKJHUIdCIsAIBOMDYyWrNyGctfn/IKCrZ+8llnf5SU9IyKysrO/iiPZW5m5jthPHUF8Gn4kMHsrLFFxcVRJwAAo3bvZeLvhyGeA12du1JXAJ/CAgNkMhl1RZMoNn6fAwCAiEWGhXy25cNePXtQh0CHyGSyKZPCPt+2uVcPfCpFDgsAoCt6urvPn/USdUVLMg5nRsV27g9snf38Vgrx92N5MQbaZ3JIEHVCk9y8/GNZWdQVAMCcisrK/Qf/oK7gOI7D9n/xse7SZSwzA3PT/jhUXlFBXQEAACLn5uLyyaYP5s580cjQkLoF2sPdzXX7++/On/WSoYEBdQt0OiwAgA4JCwzwmziBuqIlu7774eKVq5308KyzZ2/m3O6kh7eeTCabHMzKm2LgUbCvLzvfNzCyyRcAmLI3MbmhoYG6gnOwtxs9fBh1BfCPnXWdhsbGPQlJ1BUAACB+EonkycmTvtjx0fAhrNwJB62hr6c349lnPt+6uY+HB3ULaAkWAEC3vDpvjpuLM3VFs5RK5bubt1ZVVXfGwxk5Dz7Sa6i9nS11BfDPxMSYnclOWWfO5ty5Q10BAAxRKpV7E5l4JTo5OEgikVBXAP88+/dzd3OlrmgSm5TUqFRSVwAAgE6wt7N9b93qN5e9amVpQd0CjzfEc+Cu7dumTf0XO9MLQQuwAAC6xdDAYN2qFSyfUCsqKflg+w7eH5tXUHAs6xTvj22HiDBW9scB7yKZ+eRqNJqo2HjqCgBgSNofh++VlVFXcAYGBiH+ftQV0FnCQ4KpE5qUlVccyDhIXQEAADrEZ/y4bz79+F8R4Xp6etQt8GhODg5vv75q0ztvdXVi5QI/0BosAIDOcXV2XjznFeqKlhzLOvXTb7/z+8yo2Hi1Ws3vM9vBzcV5qKcndQV0Fnc3t4H9+lJXNElJz+ikwzQAIES7Y2OpEziO43zHjzMzNaWugM7i7z3RxNiYuqLJbjZufgIAAN1hYmw858XpX/77ozEjhlO3wN8YGRnNnPb8lx9vZ+fKItAyLACALvL3nhAS4E9d0ZLv//vr6XPZfD2tprY2+UAaX0/riPAQVnaIQycJZ2YCcn19fWzyPuoKAGBC9oWLV6/foK7gmBoTD53B0MAg0NebuqLJ9Zu3zmSfp64AAACd4+Tg8M4br21e/3b3bm7ULcBJpdJAX59vP/342Sen6Mnl1DlABgsAoKMWzZ7VvVs36opmqVSq97Ztv1dWzsvTEvalKhQKXh7VESbGxoE+E6kroHONHzWyi5UVdUWTPQmJLBx8AQByjGyFHtivbw93dr/3AF6EhwSzc8dDFBu/8wEAQAcNHjhg57Ytry1Z7OToQN2ioyQSyfjRo77YsW3logVdrCypc4AYFgBAR+np6a1btZydY9r/VFZevnHrto6/vtRoNNHxTAxDD/T1MWT49gXghUwmCwsMoK5oUlJamn7oMHUFABArLCo+fOw4dQWH7f86wtnJaeggVqYdZh4/UVBYSF0BAAA6SiKR+HtP+OaTfy9fMM/B3o46R7eM9PL6bOumdatWuDo7U7cAE7AAALqrq6Pj8oXzqStacvb8ha9//KmDDzl09FhhUTFPRe0nkUgiQlm5GQ86VVhQgJyZo4WMbPsFAELR8QkqlYq6grOxth4/ehR1BWgDOys9arU6Oi6BugIAAHSaVCoN9vf79tOPF8+ZbWNtTZ0jfl6DBv37w/ffXfNGT3d36hZgCBYAQKeNHz0qMiyUuqIlv0bFHD1xsiNP2L2XiWsPhw0e3NURF83rBGsrK3ZuFrp05erFy1eoKwCATF19fWJKKnUFx3HcpKBAqRTfeOuEUcO87O1sqSuaJKXuV9TVUVcAAICuk8lkk4ODftj56YpFC7q5ulLniJBMJvMZP+7zbZs/eHtt314e1DnAHPwcArpuzovT+3j0pK5olkaj+XDHx0XFJe37x6/duHnuwkW+o9ojchIru+FAC9jZ/IhDAAA6Lil1f3VNDXUFp6enx854NOhsEolkcnAQdUWTmtpaRtbAAAAA5HJ5kK/PFzu2vbd29RDPgdQ5ImFoYBARGvzNp/9+c9mr2PUPzcECAOg6uVy+duUKM1NT6pBmVVVXr9+0RalUtuOf/Z2N7f9Ojg4jhg6lrgDtGdivr7sbK9s6DmYeKS4tpa4AABqMzD+ZOHaMpYU5dQVoT4i/n76+PnVFk+i4BI1GQ10BAADwwPChQza989au7VsDfbzZ+YopOLY21jOeffrHL3YunP2yo709dQ4wDQsAAJydrc1rSxZJJBLqkGZdvnZt5zfftvWfKisvZ+QG1PAQTP/XOewcAlCpVDHxTLwBBAAtO3riZG5+PnUFx3FcJDN/JYJ2mJuZeY8dQ13RJP/u3czjJ6grAAAAHubu5rZy8cJfvv5iwcuzundzo84RDJlMNmr4sHfXvPnjrp3Tpj5lbmZGXQQCgAUAAI7juJHDvKZGRlBXtCQmPjGtjW/z9yYmNTY2dlpRaxkZGgb7+VJXgLb5TZxgamJCXdEkYV9qfUMDdQUAaBsjE8D6ePTszfCwQegk4Syt+kSx8WcBAADgn0xNTCLDQv7z0daPN70f4u9nZGREXcQuOxub6c88/eOuzze8+fpIr6Esb2MF1sipAwBYMXPac+cvXcq+eIk6pFkfffp5T/duzk5OrfnFjUplbFJy50c9nt/ECSbGxtQVoG2GBgaBvj6M3EFdWVW170DapKBA6hAA0J5bt++cOnuOuoLjOC4iNJQ6AQj07tmjj0fPS1evUYdwHMedPpd941YONlcCAADL+nh49PHwmD/rpczjJw5mHjmWdaq+vp46igldrKwmjBk9cczoAf36UreAUOEEAEATqVS6ZuVySwsL6pBm1SoU6zdtaWjdRub9GQfLyis6P+oxJBJJZBhDO+BAm8JDgtjZkhAVG0+dAABatTs2joW551aWFt7jWBkFA1rG1CEARg7EAAAAtMzQ0NBn/Lh1q1b89t3Xq1csGz96lIGBAXUUDUsLi8nBQVvfXf/L118seHkm3v5DR2ABAOABayurN5YtkUrZ/XNxM+f2jp27WvMrd+9l4se8QQMGuLm4UFcAja6Ojl6DB1FXNLmdm3vi9GnqCgDQksqqqtT0DOoKjuO40IAAuRwnbnWU97ixFuasXP58IONgeUUldQUAAEBrGRoYeI8dc38l4J03XosIDe7q6Egd1emkUmnvnj2nTf3X9vc3/vrNl4vnzPbs3486CsQAP5A82tiRIz26d6dt6OHuThugm4Z6ei6Z+8plNs5rNyevoKDlr3ylZWV9PHr2YWDicID3ROoEoDRt6lN2NjbUFU1KSu9RJ3DjRo3q4+FBGKCnp0f40UEL3FxcQgP8qSs4PepX3rfv5PpPnEDbcN/kkCDqBCCjJ5fPeWlG9oWL1CFNbufmWlow8RLBo0cP8r+pWN7x01bOTk7k/z2BNVZWltQJD/P3nqBQ1NE29O/TmzYA2sfQwGDMiOFjRgznOK6wqPjE6dMnT585fS67qrqaOo03Nl26eA0ZPGzIYK9BnmamptQ5IEISFg5HAwAAAAAAAAAAALRGzp07Fy9fuXjl6sUrV3Lu5KrVauqiNpDL5T27u/fv07tPr179evWys2Vl2xyIFRYAAAAAAAAAAAAAQJAUdXWXrly9dvNmzp3cnDt3cu7kKhQK6qi/MTUxcXNxcXdzdXNx8ejRvVeP7jicDdqEBQAAAAAAAAAAAAAQieLS0ls5t3Pu5N4tKiwsLikqLikqKa6urtHChzY3M7OztbGzsbGztXWwt3N3dXVzcbbu0kULHxqgOVgAAAAAAAAAAAAAADGrq6srLC4uKimtqKisqq6qrqmtqq6uqq6uqqquqqluaGhobFSq1CqlUqlsVDYqlUql8v64Hj25XK4n19fTv/9/6+vrmZiYmJuampmZmpqYmpuZmpqYWJib29rY2NlYGxoaUv+LAjwMCwAAAAAAAAAAAAAAACIkpQ4AAAAAAAAAAAAAAAD+YQEAAAAAAAAAAAAAAECEsAAAAAAAAAAAAAAAACBCWAAAAAAAAAAAAAAAABAhLAAAAAAAAAAAAAAAAIgQFgAAAAAAAAAAAAAAAEQICwAAAAAAAAAAAAAAACKEBQAAAAAAAAAAAAAAABHCAgAAAAAAAAAAAAAAgAhhAQAAAAAAAAAAAAAAQISwAAAAAAAAAAAAAAAAIEJYAAAAAAAAAAAAAAAAECEsAAAAAAAAAAAAAAAAiBAWAAAAAAAAAAAAAAAARAgLAAAAAAAAAAAAAAAAIoQFAAAAAAAAAAAAAAAAEcICAAAAAAAAAAAAAACACGEBAAAAAAAAAAAAAABAhLAAAAAAAAAAAAAAAAAgQlgAAAAAAAAAAAAAAAAQISwAAAAAAAAAAAAAAACIEBYAAAAAAAAAAAAAAABECAsAAAAAAAAAAAAAAAAihAUAAAAAAAAAAAAAAAARwgIAAAAAAAAAAAAAAIAIYQEAAAAAAAAAAAAAAECEsAAAAAAAAAAAAAAAACBCWAAAAAAAAAAAAAAAABAhLAAAAAAAAAAAAAAAAIgQFgAAAAAAAAAAAAAAAEQICwAAAAAAAAAAAAAAACKEBQAAAAAAAAAAAAAAABHCAgAAAAAAAAAAAAAAgAhhAQAAAAAAAAAAAAAAQISwAAAAAAAAAAAAAAAAIEJYAAAAAAAAAAAAAAAAECEsAAAAAAAAAAAAAAAAiBAWAAAAAAAAAAAAAAAARAgLAAAAAAAAAAAAAAAAIoQFAAAAAAAAAAAAAAAAEcICAAAAAAAAAAAAAACACGEBAAAAAAAAAAAAAABAhLAAAAAAAAAAAAAAAAAgQlgAAAAAAAAAAID/x96dR9d5H/advu/dV4AruFMkRVLcKZKyLS/aLFvWYsmyZckxY8uOkzTtpE23mXaatumc9vRk0k6WJqdO0rReMs5J04ybpGnqWF5k2bK1WZJlmZIt7iS4gSQIEATufu/8AUqWGe0C8ANePM/h0QEuwXs/siUbeL/vfV8AIIYMAAAAAAAAEEMGAAAAAAAAiCEDAAAAAAAAxJABAAAAAAAAYsgAAAAAAAAAMWQAAAAAAACAGDIAAAAAAABADBkAAAAAAAAghgwAAAAAAAAQQwYAAAAAAACIIQMAAAAAAADEkAEAAAAAAABiyAAAAAAAAAAxZAAAAAAAAIAYMgAAAAAAAEAMGQAAAAAAACCGDAAAAAAAABBDBgAAAAAAAIghAwAAAAAAAMSQAQAAAAAAAGLIAAAAAAAAADFkAAAAAAAAgBgyAAAAAAAAQAwZAAAAAAAAIIYMAAAAAAAAEEMGAAAAAAAAiCEDAAAAAAAAxJABAAAAAAAAYsgAAAAAAAAAMWQAAAAAAACAGDIAAAAAAABADBkAAAAAAAAghgwAAAAAAAAQQwYAAAAAAACIIQMAAAAAAADEkAEAAAAAAABiyAAAAAAAAAAxZAAAAAAAAIAYMgAAAAAwiRrdC+db/d1EJ3QIAMCskw4dAAAAQAydrH+/v/ZIITVvYXZjX3ZT6BwAgNko6na7oRsAAACIg2rn3P7Rr+4b+3K9M7qh/P7N5bvSUT50FADA7GUAAAAA4I3rJjpHaw/vH/3qvrGvnGse3N6ze1fvzy7IXBG6CwAAAwAAAACv30jr+N6xL+8dve/A2NfqneE1xffs6v3UxvIHkq40CwAwbRgAAAAAeE3aiebhsW/tG7tv7+iXBxp7ut1uT3rpjt5P7Or91Jz0qtB1AABcygAAAADAKznXPLB39Mt7x+47OHZ/ozOaSCRSUXpd6dZdvT+zvnRrlEiGDgQA4KV5byYAAACXanarB8fuHz/Z/2xj3wuPz8uu2dXzqR29nyinFgcNBADg1RkAAAAAuGig8cy+0S/vHbvvcPVbrU79hcfTydzG0h07ez91efE9QQMBAHgdDAAAAACzWr1zfv/YV/eN3rd37MvDzf5Lfrcvt2lX76eu7Pl4ITkvUCAAAG+QAQAAAGA2Ol5/Yt/ol/eO3tdfe7jdbV3yu9lkcUvl7l29P7cif3WgQAAA3iwDAAAAwGwx1j6zb+wr4xf5GW2dfsmvWZrfuav3U9squ3PJypQHAgAwkQwAAAAAcdZNdI7WHt43et/e0S+fqD/R6XZe8svyqd7tld07ez+1JHfllDcCADApDAAAAAAxNNjct3/sa/vHvnZg7Ou19vArfOXKwjt29X5qS+WeTFSYwkAAACadAQAAACAmxtpn9o997cDY1/aPfW2oeeSVv7iUWnBl78d39XxqQXbDVAUCADClDAAAAAAzWKtbO1T95v6xr+4f/dqpxtPdbveVvz6KojXFG6/q/bkN5TtSicxUZQIAEIABAAAAYIbpJrrH648fGP3a/rGvH6l9u9Wpv5Y/1ZNeuqP3Ezt7fmZuZvXkNwIAEJ4BAAAAYGZ4/rL+Xz84dn+1fe41/qlUlF5XunVX78+sL90aJZKT3AgAwDRiAAAAAJi+Xtdl/S8xN7NqZ+8nd/b8TCW9dNICAQCYvgwAAAAA08vrvaz/JdJRdmP5Azt7P3V58T2T1ggAwAxgAAAAAAjvjV3W/xILcxuv6v3Z7T0fKybnT0IjAAAzjAEAAAAgmDd2Wf9LZJPFzZW7dvZ86rLCuyY6EACAGcwAAAAAMKXezGX9L7E0v2NX789uq3w0l+yZuEAAAGLCADDrnKx/f2FuYyqRCR0CAACzSKtbO1x9cP/YV/eNfuUNXNb/EvlUz9bKR3b1/tzS3M6JawQAIG4MALPOw0O/0+m2PrT4s6FDAAAg5ibksv4vFkXRyvw7d/Z+ckvlnkxUmKBMAABiywAw6+wd/fJI68Si3NZ3zv1HoVsAACCGBhrPHBp74ED1G2/msv6X6M2s2NFz75U9H5+XuXxCnhAAgNnAADC7nKw/NdI6kUgkvnLml/uyG9eVbgldBAAAcXCm8cMDY/cfrH7zUPWB0dbpiXraTLKwsXzHjp5PXl58z0Q9JwAAs4cBYHZ5bvRL4x90uu0/Pfnxv7XiwQXZDaGjAABgRjrbfO7g2AOHqg8cHHtgpHVyYp98ReHqHT33bq18xN19AQB4wwwAs8ve0b9+4eNae/gLx+/8hZUPFZJzg0YBAMCMca554GD1gYNj9x8Y+8b4m2snVk966ZU9H9/Re+/8zPoJf3IAAGabqNvthm5gitQ6w7+2f3G723rxg6uK19y77EvpKBeuCwAAprWh1qEDY/cfGnvgYPWB4Wb/ZLxEOpm7onT7zt5PrC2+L0pEk/ESAADMQt4BMIvsG/vKJUf/E4nEobFv/cmJj3x06ReTiVSgLgAAmHaGW0fGL+9zYOwbQ83Dk/dCy/JX7ei5d1vPR/PJOZP3KgAAzE4GgFlk7/M3ALjEjy781Z+d/Jm7Fv/hlBcBAMA0MtI6fqB6/8Gx+w+OPXCueWhSX6ucXnRlz8eu7Lm3L7tpUl8IAIDZzAAwi+wd/fLL/dZT5/84l+x9f9/vTG0RAAAENtI+cXDsG+OX9znb2DfZL5eKMutLt+3o/fj60m3egwsAwGQzAMwWx+tPXGideoUveHTo9wqpuTfO/9dTGAUAAAGMtgeev7zP/Wcaz03Niy7Jb9/R84ltPbuLyflT84oAAGAAmC32jv71q37NA2d/tZCc+465/3BKigAAYOqMtc8crD4wfnmfM80fdbvdqXndYmr+9p7dO3o+uTi3bWpeEQAAXmAAmC1eywCQSCT++vQ/6SRa75r7f0x+EQAATK5qZ/Dg2DcOVb95cOyBgcaeKTvon0gkUlF6benmHT0f31C+I+nHLgAAAvGd6KxQ6wz31x59jV983+lfbnaqN8z/lUmOAgCAiTfWPnO4+uDh6oMHxu4/1Xh6Kg/6j1uU27yj5xPbe366lOqb4pcGAIBLGABmhWO1Rzvd9mv/+vvP/pt6Z+Tmhf9+MqMAAGBiDLUOHa5++0j124fGvjWVl/d5sUJq7tbKPTt6P7ksd9XUvzoAALwkA8Cs0F977PX+ke+c+61md/T2vk9PThEAALwppxo/ODJ+0L/64HDzaKiMZJS6vPjeHT33bix/IBVlQ2UAAMBLMgDMCq/9+j8v9tjQHzQ7Yx9c/JkokZyEKAAAeB06idax2nePVL99uPqdI9UHx9qDYXsWZK/Y2fuJ7T0fq6SWhC0BAICXYwCYFd7YAJBIJL53/o9qnfN3L/lCJipOdBQAALyKRnf0aPWhI9XvHKp+q7/2SLNTDV2UyKd6tpTv3tH7yRX5q0O3AADAq4iCXB+TqTTUOvwbB9a+mWdYmt/508v+3JlNAABMgfG7+B6pfefQ2LdO1r/X7rZCFyUSiUQySq4uvntHz72byh9MR/nQOQAA8Jp4B0D89Vff4On/Lzhee+I/HXnHTy/9i8W5bRMUBQAAPzYd7uL7cuZn1+7ouffKno/3pJeHbgEAgNfHABB/b/j6Py823Oz/L0evu3vJF9aXbpuIKAAAZrvxu/gern7rUPXB881joXMulUuWN1fuurLn3lWFa0O3AADAG+QSQPH3n49ed6T6nQl5qmSUumXhr79tzi9OyLMBADCrvHAX30PVB49UH6y2h0IXvYQoilYVrtvRc+/myl3ugwUAwEznHQAx10m0T9SfnLBn67b/auAfnG48e0vfb6YSmYl6WgAA4moa3sX35czJrNzR84kdvffOSa8K3QIAABPDABBzp+rfn/Cfsh4d+v3jtSc+svRPetMrJvaZAQCIgRffxfdE/clOtx266JVkk8VN5Q9e2XPvmuK7Q7cAAMAEMwDEXH/tsUl62t89fNVdSz6/rnjzZDw/AAAzy6nGD45WH+qvPXKk+vDZ5nPT/0KjySi5qnD99p7dmyt3ZaNy6BwAAJgUBoCY6689MknPPNYe/KNjH7h23j+7Yf6/ihLRJL0KAADTU60z3F975Gj14SO1h47VHq21z4cueq0W57Zt79m9rfLRSnpp6BYAAJhcBoCYO1X/weQ9eafb+cbZf3u09sjdi//fYmrB5L0QAADTwUDjmf7aI0erDx2pPnSm+aPpf5r/i/Vmlm+rfHRbz+5F2S2hWwAAYIpEM+u7dl6vX92/sNoemuxX6cksu2vx51YXrp/sFwIAYCqNn+Y/fmGf/trDM+g0/xfkUz2by3dt69ntm1UAAGYhA0CcVTvnfnVf39S8VjJKXj3n771nwb9NR7mpeUUAACbD+Gn+/dVHjtQeOt14dob+vJCKMmtL77uy52NXlN7vG1QAAGYtA0CcHa8//nuHr57KV1yY2/jhxZ9fktsxlS8KAMCbUe+cP1p7uL/2yNHqo/21h6fg/aOTannhrdsru7dWPuIalQAA4B4AcTbYPDjFr3i6/ux/OvLOG+b/y2vm/dMokZziVwcA4DU60/jhkdpD/dVHjtYeOd14ptPthC56s+ZlL99e2b29Z/e8zNrQLQAAMF0YAOLsXPPA1L9ou9v86plf+dHo/7pr8efmZS6f+gAAAP6mRvfC0erDR2sPHa0+2l97pNo+F7poYpRSC7ZU7t7Ws3tFfkrf+QoAADOCASDOzjUCDADjjlYf/vThXe+e/6/ePvfveysAAEAQZ5vPHak+dLT6UGxO839BJlnYUHr/tp7d60o3J/1QAwAAL8M9AOLsc/3vOzD29bANS/JX3rHod5flrgqbAQAwG9Q7I8dqjx2tPXSk+nCcTvN/QTJKripcv71n96byh3LJSugcAACY7gwAcfabB9edax4KXZFIRsm3zvk7N87/N35IAwCYWO1u40T9e8dqjx2vP95ffexs87k4neb/YotzW7f3/PTWyk/1pJeFbgEAgBnDABBbnUT7X+8tdbrt0CEXVdJLbln461sqd4cOAQCYwbqJzkDjmWO1x47VHjtWe/xU/el2txk6ahL1pJdu6/no9p6PLcpuCd0CAAAzjwEgts41D/zmwStCV1xqXenm2xf9zpz0qtAhAAAzxmBz37Ha48dqj/XXHjtZ/16jMxa6aNLlkpVNlTu3VXavKd4YJaLQOQAAMFMZAGJr/9hXP99/S+iKl5BO5q6e83evm/fPXREIAOAljbSO99cePV5/Yvy4f/wu5f9yUlH68tJN2yu7N5Y/kI7yoXMAAGDGMwDE1pPnP/9nJ38udMXLKqf73j3//9rV+7NRIhm6BQAgsFpn6Fjtu8dqj/XXvnus9thI60Tooqm2vPDW7ZXdWysfKaYWhG4BAID4SIcOYLJU24OhE17JhdbA/zj1vz0y9B/ft/DfrS3eFDoHAGBKNbtjx2tPHK9fvLDPuebB2Xlezrzsmu2Vn97es3teZm3oFgAAiCEDQGyNdab1ADDuVH3PH/bftq70vvct/Hd92U2hcwAAJksn0TpZ//5iD0aNAAAgAElEQVSx2mPHa48fqz0+0NjT6bZDRwVTTM3fWrlnW8/uFfmrQ7cAAECcGQBiqzZzrhW7d/TL+8e+uqPn3uvn/4ve9MrQOQAAE+NM44f9tceO1R47Vn/8ZP2pVqceuiiwTDK/oXT7tp7d60o3J/0kAgAAk8+33bE1zS8BdIlOt/348Ge/d/4LO3s/ed28X+5JLw9dBADwug21Dh+rffd47fH+2mPHa4/XOyOhi6aFZJRcWXjX9sruLZW7c8me0DkAADCLuAlwbH3+2C37R78auuKNSEfZXb0/e+38f1ZJLQndAgDwsrqJzunGD0/UnzxRe/JE/amT9e9V20Oho6aXvtym7ZXd23p296ZXhG4BAIDZyAAQW//56LVHqg+FrnjjMsn8Vb0/f828f1pOLQrdAgCQSCQSrW7tZP37J+tPnaw/dbz+5Kn695udWuio6aiSXrKt56e2VXYvyV0ZugUAAGY1A0Bs/f6Rq4/VHg9d8WZlkoW3zvnb18z9J8XUgtAtAMCsU+sMj5/gf7L+1In6U2caP2x3W6Gjpq9iat6m8ge3VO5ZXbwhSkShcwAAAANAfH368M6T9adDV0yMbLL0ljm/8I45f7+SXhq6BQCIs5HW8RP1752sP3W8/r0TtSeGWod9t/yqcsnKxvIdWyr3rC3d5Na+AAAwrRgAYuu3D2050/hR6IqJlIoy23p+6h1z/+Gi7NbQLQBATJxrHjj+/EX8T9SfvNA6FbpoxsgmS1eUbt1c+fD60m3pKBc6BwAAeAkGgNj6zYPrzzUPhq6YFGuK737nvH+4rnhz6BAAYIbpJFoD9WdO1p86UX/yeO3Jk/Wn6p2R0FEzTDqZW1e8ZWvlnivK789EhdA5AADAK/EW3dhqJxqhEybLgbGvHxj7+qLclnfM/QfbenanEpnQRQDANNXsVk/Wnxq/iP/x+pMD9R+0urH9HmlSpaL0muJ7tlbu2Vj+QC7ZEzoHAAB4TbwDILZ+4+Daoebh0BWTrpJecvWcX3zLnL+dT/aGbgEAwqt2Bk/Uvnei/uSJ+pMnak+dbT7X6XZCR81gySh5WeHarZV7NlfuKiTnhc4BAABeHwNAbP32oc1nGs+FrpgiuWR5W89Hr+r9+SW5HaFbAICp0+rWTzeeHWjsOVV/+mT96YH6D863joeOioMoipbn37a1cs+Wyt3l1OLQOQAAwBtkAIitTx/eebL+dOiKqbYsf9Vb5vytrZWfckVaAIifbqJ7rrn/VP0HA409A/U9J+tPn23u7XTbobtiZVn+qi2VD2+p3N2bXhm6BQAAeLMMALH1+0fefqz23dAVYeRTvVf2fOyq3p/vy24O3QIAvHFj7TMn698/1Xh6oL7nVGPPQH1PozMaOiqeFuU2b618ZEvlnnmZy0O3AAAAE8YAEFv/5ej1h6vfDl0R2GWFd1015+c2lz+cjnKhWwCAV9Hsjg00njlVf/pU/elT9T2nGk+Ptk6Hjoq5+dm148f9+7KbQrcAAAATzwAQW5/rf9+Bsa+HrpgWiql523s+dmXPx5fkrgzdAgBc1E10zjaeO/X8xXxONb4/1Dzkhr1TY05m5ZbK3Vsq9yzN7QzdAgAATCIDQGz98fEPP3vhL0JXTC99uU3bK7u39ezuTa8I3QIAs85I6/jJxvcH6nsGGntO1p8+3Xi21amHjppdKunFmyt3bancszL/jtAtAADAVDAAxNb/GPg73x36z6ErpqMoii4rXHNlz8c2lz+cS1ZC5wBAPNU7I6caT5+qX7x8/6n609X2udBRs1QptWBz5a7NlQ+vKlwXJaLQOQAAwNRJhw5gspRSfaETpqlut3to7JuHxr75V8lf2lC6fVvP7nWlm5P+XQCAN6HaOXe68eyZxo/ONH400Hh2oP6D4dZRJ5qElU/1birfuaVyz5rijclEKnQOAAAQgIOesVVKLQydMN01O7WnR/706ZE/Labmb67ctan8wdXFG/x4DACv6nyrf6DxzPjh/tONH51p/HCkdTJ0FBdlk6UN5fdvqdyzrnRLKpEJnQMAAITkEkCx9fTIf/vTEz8dumKGKaTmbii/f2P5zrXF96WjXOgcAAivk2gPNvZecri/3rkQuotLZZL5tcWbt1buuaL8/kxUCJ0DAABMCwaA2DpYvf+zR28KXTFT5ZLltaWbN5XvvKJ8WzYqh84BgCnS6I6ebjx7uv7sC8f6B5v7291m6C5eVirKrCneuLVyz8bynW5uBAAAXMIAEFtnGj/87UNbQ1fMeOlkbk3xxk3lOzeUbi+mFoTOAYCJNNoeGGg8c7r+7JnmxcP951vHfHM4IySj1OriDVvKH95U+WAhOS90DgAAME0ZAGKr3W38m32VTrcTOiQmklFyaf6q9aWb1xbftyz/ligRhS4CgNehm+gONQ8ONJ4Zv1Xv+OH+ansodBevTxRFK/Pv3Fq5Z3PlrlKqL3QOAAAw3RkA4uw3D6471zwUuiKGiqn560o3rSvdsrZ0UzE5P3QOAFyq2a2ebew93Xj2dOPZ8WP9Z5t7W5166C7eoCiKluXfsqX84S2Vu3vSy0PnAAAAM4YBIM7+8Nit+0a/EroizrwtAIDgGt3Rs429g839g419g839Z5v7Bxv7RtonfI8XA8kouTx/9ebKhzaVP9SbXhE6BwAAmHkMAHH2VwO/9MjQ74aumC2KqXmXFa5dXbx2VeG6xbltoXMAiKFG98LZxj7H+mMvGSVXFt61ufyhTZUPVVJLQucAAAAzWDp0AJNofnZ96IRZZKw9+OyFP3/2wp+/MAasKV6/unhDX3ZT6DQAZp56Z2Swuf9sY+/Z5nODzf1nG/sHm/sutAZCdzGJklFqVeG6zZUPbSp/0PX9AQCACeEdAHG2f+wrn++/NXTFbFdKL1xVuG514dpVxeuMAQD8TbXO8Nnm3sHG/sHmPsf6Z6FUlFldvGFz+UMbK3e6txAAADCxDABxVu2c+7/3L/Jf8fRRSM1Znr96ReGtK/JvX55/Wy5ZCV0EwJSqdYbONvcNNvafbT53trF3/Bo+Y+3B0F0EkI6ya0rv2Vz+0IbyHYXk3NA5AABAPBkAYu63Dm0YbOwPXcFLSEbJhdlNK/JvW1F4+8rC2+dnXK8JIFZGWsfPtQ6dax4abOwbbO5zrJ9xmWT+8uJNmysf2lC6PZfsCZ0DAADEnAEg5v6/kx///vn/GrqCV1dIzV2Rv3pZ/qql+Z1Lczsr6aWhiwB4dd1E90LrxLnWoaHm4aHmoaHm4XOtw0PNQ8PNI61uI3Qd00gmWVhXumVz+UNXlG/LRuXQOQAAwGxhAIi5h4Z++0sD/zh0Ba9bOb1oaX7X0tyOJbkrl+Wv6kkvD10EMKt1E53zrf5zzUNDzcNDrUNDzcPnmoeHW0fON/sd6OcVZJOlK0q3bqrctb50SyYqhs4BAABmHQNAzB2tPfQHR64NXcGbVUotWJLfuSy/a0nuyqX5XXPSl4UuAoinlzzQP9Q8dL7V3+62QtcxY+RTPetLt24u37WudHM6yofOAQAAZi8DQMy1uvVf3b+g2amFDmEi5VO9i7JbF+e2Lrr4a4uLCQC8Lp1Ea7h55Fzz0FDr8PjVe8bP6B9pHXegnzesnO7bULp9Q/mOy0vvTSUyoXMAAAAMALPAHx67bd/ofaErmERRFM3NrO7LbhmfBBbnts7LrIsSUegugPDqnfMjrePDrf7h1tEXDvQPtQ6NtI53up3QdcREb2bFpvKdG8t3Xla4xv//AgAA04oBIP4eGvoPXxr430NXMKUyycLC7Ma+7KYF2fXzs+vnZ9YtyK53CQIglrqJ7mj71HCr/3yz/3zr2EjrxEj7+HDz2PlW//nWsUZnNHQgsbUwu2FT5YMby3cuze0M3QIAAPDSDADxd7rx7O8c2ha6gsCSUbInvXx+dv3C7BXzM+vmZ9ctyK7vTV/mREVgRmh2qyOtY8Ot8UP8x0daJ4Zbx863+s83+y+0T3W67dCBzBZRFC3N7dpUvnNT5YPzM+tD5wAAALwKA8Cs8OsHVw83+0NXMO1kkvl5mbXzs+sXZNYtyF4xvgoUkvNCdwGz1Fj7zHCr/3zr+RP5W8fHj/KPtI5X20Oh65jVklHqssI1G8t3bCzf2ZteEToHAADgtTIAzAp/ceoXHh/+TOgKZoZiat5PvlFgw/zM2lSUDd0FxEGrW7vQPjncfP5E/vaJ883+54/yn2h3m6ED4Sekk7k1xRs3le/cULq9mFoQOgcAAOB1MwDMCs+N/q8vHPtA6ApmqmSU7E2vnJ9dPzdzWW96RW9mZW96xZzMykp6WSqRCV0HTCO1ztBoe2CkdXK0fXq0NXChfWq0PXChdXq0PTDaHrjQOlnvXAjdCK8ulyyvL92ysfzB9eVbslE5dA4AAMAbZwCYFTqJ9r/bv2ysfTZ0CLESRVE5tag3s7I3vXJOZkVvesX4PDAnvdJpkhA/nURrtDVw4eKh/FOj7YHR9unx4/sX2idHWwOj7dNO4WdGK6bmbyi/f2P5zrXFm7z1DQAAiAcDwGzxPwf+7qNDvx+6gtkikyw8Pwas6M2s6E2v7Ekvm5NZ2ZtemY7yoeuAl9DoXhhtDYw8fyh//Pj+yPiB/tbAaHug2jnnewZiaU5m5Yby7RvLd64qXBslkqFzAAAAJpIBYLY4XH3wvxy9IXQFJEqpBeNvGujNLC+n+srpxaXUwlKqr5JeXEotSke50IEQK91Ep9YZqrWHxjqD1fZgtX2u2h6sdYaqnXPV9uBo++yF1snxY/3NTjV0LEypJfkrN5bv2FD6wOLcttAtAAAAk8UAMIv8xsHLh5pHQlfAK8kly+X04lKqr5TqK6cXllJ95dSiUrqvlFpYSS8upfryyTmhGyG8Znes2h4caw9WO4PV9mCtMzx+cL/WGaq2B8c656rt8ceH6p3znW4ndC9MF6kos6p43YbS+zeUb+9NrwydAwAAMOkMALPIV8/8i28O/lroCnhTUlGmnF70kgtBObWokJqbT87JJXtCZ8Lr1k40a+1z1fbgWGew1r54hn6tM1S9+OC5anv88cFq+5xL7cPrkktW1pbet7F8x/rSrflkb+gcAACAqWMAmEWGW0d+8+D6TrcdOgQmVzJK5pI9+eScfGpOPjknn5xTSPXmk3Py43990QeF1ByDAROo1a01OhfqnfO1zvlG50Kje6HRGW10Llz81R2td87XO+frP/HghfE/0uzUQudD3PSkl24o376hfMfq4g2pRCZ0DgAAQAAGgNnlj4/f/eyFPw9dAdPLKwwGuWRPJipmksVMVMgki9monEkWsxcfKWaTZfc0jo1uotvu1tvdRqtba3Vrzc5YvXvxGH29M1IfP6DfGW38+MGLR/NfdBx/1MIK08Gi3JYN5duvKL1/ef6toVsAAAACMwDMLoeqD3zm6HtCV0B8RFGUiQrjI0E2WX5+LShmksXs+GYw/mBUeP7xUirKpKJMKsqmEtlUlE1G6VSUTUXZdJR94cHxX8konUykQ/8thtFNdLqJTrfb6SY6nUSr0223u/VWt9buNlrPH6NvdWrjj7S7zYuPdP/GI51aq1trduvtbuOFg/vjj7cTjXa3Mf4FrW6t3W2F/psG3rhklFqRf/vG8h0byx+Ym1kTOgcAAGC6MADMOp8+vPNk/enQFcBrEkVRKpF5YRK4OBj8jZEgipKJRCJKJKNEMoqSUeIlPk0movGPL/7u8x9f+mmUHD/s3k10Ot3WT3zQ7XQS3Rc/fvEA/SVfNgGPu2kt8Jpkk8XLizdtLN9xRfm2QnJe6BwAAIBpxwAw6zx+/jN/cfIXQlcAALxB5XTfFaXbrii/f23xJpdiAwAAeAUGgFmn3W381qErhpv9oUMAAF6HxbltV5RvW1+6dUX+6tAtAAAAM4MBYDZ6bPg//eWpXwxdAQDwKtLJ3OrCDRvK719furU3vSJ0DgAAwAxjAJiNOonWfzi48VzzUOgQAICXUE4vuqJ06/rSrWtLN2WiYugcAACAmcoAMEs9cf5zf37y50NXAABcFEXR4tz2DaXb15dvXZa7KnQOAABAHBgAZqlOov3bhzYPNvaHDgEAZrVMMr+6+O4rSrdeUbqtJ708dA4AAECsGABmr2cufPG/Hv+p0BUAwGzUk146fkffNcUbM1EhdA4AAEA8GQBmtc8fu3n/6NdCVwAAs0IURUtyO64o3eYiPwAAAFPDADCrnWn+6NOHdra6jdAhAEBsZZPFNcUbx4/7V1JLQucAAADMIgaA2e4rZ375W4P/PnQFABA387Nr15duWVe6eVXhunSUC50DAAAwGxkAZrtmd+y3D20ebvaHDgEAZrxMMr+qcP360s3rS7fMzawJnQMAADDbGQBI/Gj0L//o2IdCVwAAM9XczKrxk/1XF29wR18AAIDpwwBAIpFI/MWpv/X48GdDVwAAM0Y6mbuscM34yf7zM+tD5wAAAPASDAAkEolEo3vhPx7aea55MHQIADCt9WaWj5/sv6Z4YzYqhc4BAADglRgAuOhw9cHP9t/Y6XZChwAA00sqyqwsvHNd6aZ1pVsWZbeEzgEAAOC1MgDwY/ed+T8fHPz10BUAwLRQSS9ZX7p5Xenmy4vvzSUroXMAAAB43QwA/Fgn0frM0XcfqT4UOgQACGP8ZP+1pfeuLd60JHdl6BwAAADeFAMAP2GkfeL3Dr91pHUydAgAMHXmZlavK920tnTTmuK7s1E5dA4AAAATwwDApY7UvvPZo+9pd5uhQwCASZRLllcVr19XvGld6X1zM2tC5wAAADDxDAC8hEeHfvd/DvxS6AoAYIJFUbQ4t31d8X1rSzetLLwjmUiHLgIAAGASGQB4aX9+6ueeGP586AoAYAKU031ri++9vPTetcX3llJ9oXMAAACYIgYAXlon0frCsQ/sG70vdAgA8EZcvJ1v8T2Xl967NLczdA4AAAABGAB4Wc3u2GeO3nis9t3QIQDAa+V2vgAAALzAAMArGWuf+YOj15xt7AsdAgC8rHyqZ1Xh+rXF97idLwAAAC9mAOBVDLUO/cGRa0ZaJ0OHAAA/looyKwpvv7z47jXFG5fn3xolkqGLAAAAmHYMALy6U42nP3f0ptH2mdAhADCrRVHUl928tvTeNcV3rypcm4mKoYsAAACY1gwAvCYDjT2f67/pQmsgdAgAzDo9mWXjZ/pfXryxnFocOgcAAIAZwwDAa3W68exn+997oXUqdAgAxN/4Zf0vL7778uKNC7IbQucAAAAwIxkAeB3ONH/02aPvHWmdCB0CADGUjrLLC1e7rD8AAAATxQDA6zPY3P+5/puGmkdChwBAHERRtCi79fLSjS7rDwAAwIQzAPC6XWif/MKxO47XngwdAgAz1dzMqjXFG1YXb1hTfHc5tSh0DgAAAPFkAOCNaHRH/9vxjz43+qXQIQAwY/Rklq0pXL+6eMOa4g296ZWhcwAAAIg/AwBvUDfR+auBX3p06PdDhwDA9FVOL1pTvH5V4bo1xRvmZdaGzgEAAGB2MQDwpjx47v/56pl/3ul2QocAwHRRTM1bVbx+TeH6VcXr+rKbQucAAAAwexkAeLP2jv31F098Yqw9GDoEAILJp3ovK1yzpnj96sINi3PbQucAAABAwgDAxBhqHf6vx+92W2AAZpVcsryy8K7VxWtXF29YmtsVJaLQRQAAAPATDABMjFa3/j8HfvGJ4c+HDgGASZRJFlbk376meP2q4nXL829NJtKhiwAAAOBlGQCYSN8d/oMvnf5HzU4tdAgATJhcsrKy8M5VhXddVrzGQX8AAABmEAMAE2yg8cwXT37iRO17oUMA4I0rpuZdVrh2VfFdlxWuWZLb4fI+AAAAzEQGACZeJ9H62plf+fa5X+90O6FbAOC1qqQXrypcc1nhmsuK1yzKbgmdAwAAAG+WAYDJcqT27S+e+OS55qHQIQDwsuZkVq4qXLOqeN2qwjXzMmtD5wAAAMBEMgAwiRrdC18a+EdPnP+cf8wAmD4WZNevKlxzWfGaVYVretMrQ+cAAADAZDEAMOkOVx/8y4FfHKg/EzoEgFkqiqK+7Obxy/usKl5bTi0KXQQAAABTwQDAVOgkWg8O/vsHBn+12amGbgFgVsgkC8vyb7ms8M6VhXesyL89n+wNXQQAAABTzQDA1BlqHfrLU39v7+hfhw4BIJ7K6UUrC++8rPCOlYV3LsntSCZSoYsAAAAgJAMAU+0HI3/6pdP/eKR1InQIADNeFEULsxsvK7xzZeGdK/Nvn5tZE7oIAAAAphEDAAHUOyP3n/3Xjw7/bqtTD90CwAzzwrV9VuSvXlF4eyE5N3QRAAAATFMGAIIZah3+2pl/+fTIn3S6ndAtAExrL1zbZ0X+7UvzO5OJdOgiAAAAmAEMAAR2sv7UfWd+ed/ofaFDAJhGklFqYXbjisLVK/PvWFl4+7zM2tBFAAAAMPMYAJgWDlbvv+/0PztWezx0CADBlNILl+fftiL/1uX5ty0vvDUblUMXAQAAwMxmAGAaeXrkT7529lcGGwdChwAwFVJRZnFu+4rC25bn37Yi/za38AUAAICJZQBgeukmOk+P/Mm3Bn/tVH1P6BYAJl5vZvny/NUr8m9dXnjb0tyudJQLXQQAAACxZQBgmvrh6P/45uCv9VcfDR0CwJuSSRaW5natKLxtef6tK/JXV9JLQxcBAADAbGEAYFo7MPb1bw7+2oGxr4cOAeC1iqJoXmbt85fyf9vi3PZkIhU6CgAAAGYjAwAzwLHaY98c/LUfjf5lp9sJ3QLAS5iTWbk0f9Wy3M6l+V3L8lflk3NCFwEAAAAGAGaOc80Djw7/3hPDn6u2z4VuAZjtyum+pfmrluevWpZ/y7LcVcXUgtBFAAAAwKUMAMwwrW7t+yN//OjQ7x6vPRm6BWAWKabmLc1ftSy/a2lu57L8VT3p5aGLAAAAgFdhAGCmOlp7+NGhT+8Z+WKr2wjdAhBDuWR5SX7nsvyupbldy/K75mXWhi4CAAAAXh8DADPbaHvg8eHPPHn+D8829oZuAZjZssnioty2pbkdS/O7luXfsjC7MUpEoaMAAACAN84AQEwcqX3nqfNf+MHIn1bbQ6FbAGaGYmr+kvyOJbntS3I7luZ3zMusc8QfAAAA4sQAQKy0u41nL/zF90a+sH/0vna3FToHYHrpzSxfnLtyaW7HkvyVS3JX9qZXhi4CAAAAJpEBgHgabQ88df6Pnhr5oxO1p0K3AISRjJLzMmuX5ncsvniO/85Ccl7oKAAAAGDqGACIucHmvj0jX9xz4b8frz0RugVgcqWj7MLcpqW5HUtyOxbnty/Obc9GpdBRAAAAQDAGAGaL4daRZy782Z6R/3609pB/7IF4qKQXL8ptW5zbuii3dVF2a19uUzKRDh0FAAAATBcGAGadkdbxZy782TMX/uxI9dvuEwDMIJlkoS+7+eLh/tzWRbmtxeT80FEAAADA9GUAYPaqd87vG/vK3tEv7R398kjrZOgcgJ8QRdGc9GUvnOC/OLd1XmZdlIhCdwEAAAAzhgEAEolE4kT9e3tHv/Tc6F/31x7pdNuhc4DZKJ/qWZTd9qIT/Ldko3LoKAAAAGAGMwDAT6h1hvaNfuXA2NcOVO8fbBwInQPEVi5ZWZjb2JfduDC7cWF246Lc1t70itBRAAAAQKwYAOBlDbeOHhz7xsHq/QfG7h9u9ofOAWawQmrOwuymvuzGhbmNC7Mb+7KbetLLQ0cBAAAAMWcAgNdksLnvwNj9h6oPHBr71vnW8dA5wLRWTM1fmN3Yl9vYl928MLuxL7epnFocOgoAAACYdQwA8LqNtI4frT18rPbd/tpjx2vfrXcuhC4CQiqnFy3MPn8xn9zGvuymUqovdBQAAACAAQDenG6iO9DYc6z2WH/1kf7aYwONPe4hDDGWS1bmZ9ctyK6bn1k/P7tufnbdgsz6XLIndBcAAADASzAAwERqdseO1b57rPZYf+27x2qPDjWPhC4C3qBUlJmbWT0/u35Bdt38zMVj/ZX00tBdAAAAAK+VAQAm0YX2qf7aI89fLOjxavtc6CLgJURR1JNeNj+zfkF23fzsuvmZdQuy6+dkVicTqdBpAAAAAG+cAQCmzoX2yVP1Hww09gzU95xq7Dldf8b9A2CKpaJ0b2blvMzaeZnVczOr52ZWz8usnZ9dl4kKodMAAAAAJpgBAEIabh0ZaDwzUN8z0Nhzqr7ndOPZZqcaOgpiIp/qnZe5fG5mzbzM6nmZy+dmVs/LrulNr4wSydBpAAAAAFPBAADTSDfRPdfcf6r+g9ONZ083nj1V33Om8cNWtxG6C6a1ZJTsSS9/0Un9a+ZmV8/PrM0n54ROAwAAAAjJAADTWifRHmoePNvcN9jYP9jcf7a5f7Cxb6h5yCrALJRO5nrTK+ZkVs1Jr+jNrOhNr+xNr5iTuWxO5rJkIh26DgAAAGDaMQDAjHS+1X/JKjDY3N/ojIbugglQSi3ozazsTa+ck1kxfoi/N7NyTnplKdUXOg0AAABgJjEAQHxcaJ8cbB441zw42Nh/trl3qHlkuHVkpHW80+2EToNL5VM9ldTSSnppT3rpnMxlvekVvZkVczOretMr01E+dB0AAABAHBgAIOY6idb5Vv9Q88hQ8/Bw68hw8+i51uHh5pHh1lE3HGZSZZPFSnr8EP+SSnppJbWkkl5aSS/pSS+tpJdlokLoQAAAAICYMwDA7DXaHhhqHRluHhlqHh5qHR5qHh1uHTnf7B/rnPW/DLwWuWS5lO4rpfouHuVPLenJLK+kxg/xL80le0IHAgAAAMxqBgDgUp1Ee7R16nz7+Ejr+IXWqQvtkyOtE+dbJy60Tl5on7zQOtnutkI3MukyyXwp1VdMLSil+srphaVUXym1sJTqK6UXFlMLyqm+UmpROsqFzgQAAADgZRkAgNenm+iOtU+PtE6OtI+PXFwFTp1vnRhpHR//2JWFprlMMl9Iziuk5uWTcwqpeR+/m8UAAAVFSURBVMXU3HxyTim1sJhaUEovLKX6yqm+UrovG5VDlwIAAADwphgAgAnW7jaqncGx9mC1PVjtDNbaw9XOYLV9bvzT6sVPB6vtwVpnyA2K37woijJRIZfsGT+gX0jNKyR7C6l5hdTci48k5+ZTc/LJOcXUvEJyXirKhk4GAAAAYCoYAICQap2hanuwOv7X9rlqZ7DWHmp2q83uWLMz1uyONTo//vjFf210Rjvdduj8iZGK0ukon47yqWQuG5WyyXIu2ZNL9uSSpWyynE2Ws1E5l6zkkj3ZZDmbvPgF+Yuflp2qDwAAAMBLMgAAM1Un0Wp0Ljy/B7x4Iai2E41Ot9XptrqJTjfR6XRbncTzn3Y7nUSr023/+JHxL+i2OolWt9vpJjrP/1Y3mUhFUTJKJKNEMhmlf+KDl3g8Nf5BKsqO/xo/rJ9O5i5+EOXTUT6TzKeibCqRTScvPhIlkqH/swQAAAAghgwAAAAAAAAQQ047BQAAAACAGDIAAAAAAABADBkAAAAAAAAghgwAAAAAAAAQQwYAAAAAAACIIQMAAAAAAADEkAEAAAAAAABiyAAAAAAAAAAxZAAAAAAAAIAYMgAAAAAAAEAMGQAAAAAAACCGDAAAAAAAABBDBgAAAAAAAIghAwAAAAAAAMSQAQAAAAAAAGLIAAAAAAAAADFkAAAAAAAAgBgyAAAAAAAAQAwZAAAAAAAAIIYMAAAAAAAAEEMGAAAAAAAAiCEDAAAAAAAAxJABAAAAAAAAYsgAAAAAAAAAMWQAAAAAAACAGDIAAAAAAABADBkAAAAAAAAghgwAAAAAAAAQQwYAAAAAAACIIQMAAAAAAADEkAEAAAAAAABiyAAAAAAAAAAxZAAAAAAAAIAYMgAAAAAAAEAMGQAAAAAAACCGDAAAAAAAABBDBgAAAAAAAIghAwAAAAAAAMSQAQAAAAAAAGLIAAAAAAAAADFkAAAAAAAAgBgyAAAAAAAAQAwZAAAAAAAAIIYMAAAAAAAAEEMGAAAAAAAAiCEDAAAAAAAAxJABAAAAAAAAYsgAAAAAAAAAMWQAAAAAAACAGDIAAAAAAABADBkAAAAAAAAghgwAAAAAAAAQQwYAAAAAAACIIQMAAAAAAADEkAEAAAAAAABiyAAAAAAAAAAxZAAAAAAAAIAYMgAAAAAAAEAMGQAAAAAAACCGDAAAAAAAABBDBgAAAAAAAIghAwAAAAAAAMSQAQAAAAAAAGLIAAAAAAAAADFkAAAAAAAAgBgyAAAAAAAAQAwZAAAAAAAAIIYMAAAAAAAAEEMGAAAAAAAAiCEDAAAAAAAAxJABAAAAAAAAYsgAAAAAAAAAMWQAAAAAAACAGDIAAAAAAABADBkAAAAAAAAghgwAAAAAAAAQQwYAAAAAAACIIQMAAAAAAADEkAEAAAAAAABiyAAAAAAAAAAxZAAAAAAAAIAYMgAAAAAAAEAMGQAAAAAAACCGDAAAAAAAABBDBgAAAAAAAIghAwAAAAAAAMSQAQAAAAAAAGLIAAAAAAAAADFkAAAAAAAAgBgyAAAAAAAAQAwZAAAAAAAAIIYMAAAAAAAAEEMGAAAAAAAAiCEDAAAAAAAAxJABAAAAAAAAYsgAAAAAAAAAMWQAAAAAAACAGDIAAAAAAABADBkAAAD+//bsQAYAAABgkL/1Pb7SCAAAAIYEAAAAAAAADAkAAAAAAAAYEgAAAAAAADAkAAAAAAAAYEgAAAAAAADAkAAAAAAAAIAhAQAAAAAAAEMCAAAAAAAAhgQAAAAAAAAMCQAAAAAAABgSAAAAAAAAMBTNfKvAj5Aa+wAAAABJRU5ErkJggg==;" vertex="1" parent="3mUuBoe2LMrYQuI42Ug3-5">
          <mxGeometry x="27" y="50" width="77" height="39.7" as="geometry" />
        </mxCell>
        <mxCell id="3mUuBoe2LMrYQuI42Ug3-21" value="&lt;font style=&quot;font-size: 10px;&quot;&gt;Hostname: kamailio&lt;/font&gt;&lt;div&gt;&lt;font style=&quot;font-size: 10px;&quot;&gt;IP: 172.20.0.20&lt;/font&gt;&lt;/div&gt;&lt;div&gt;&lt;font style=&quot;font-size: 10px;&quot;&gt;Port: 5060&lt;/font&gt;&lt;/div&gt;" style="text;strokeColor=none;align=center;fillColor=none;html=1;verticalAlign=middle;whiteSpace=wrap;rounded=0;fontStyle=1" vertex="1" parent="3mUuBoe2LMrYQuI42Ug3-5">
          <mxGeometry x="5.5" y="130" width="120" height="30" as="geometry" />
        </mxCell>
        <mxCell id="3mUuBoe2LMrYQuI42Ug3-12" value="Container" style="swimlane;" vertex="1" parent="1">
          <mxGeometry x="527" y="220" width="131" height="170" as="geometry" />
        </mxCell>
        <mxCell id="3mUuBoe2LMrYQuI42Ug3-14" value="" style="shape=image;verticalLabelPosition=bottom;labelBackgroundColor=default;verticalAlign=top;aspect=fixed;imageAspect=0;image=data:image/svg+xml,PHN2ZyB4bWxuczp4bGluaz0iaHR0cDovL3d3dy53My5vcmcvMTk5OS94bGluayIgeG1sbnM9Imh0dHA6Ly93d3cudzMub3JnLzIwMDAvc3ZnIiB2ZXJzaW9uPSIxLjEiIHZpZXdCb3g9IjAgMCA0MDAgMjAwIiBoZWlnaHQ9IjIwMHB4IiB3aWR0aD0iNDAwcHgiPjx0aXRsZT5wcm9kLUZyZWVTV0lUQ0hfbG9nbzwvdGl0bGU+PGRlc2M+Q3JlYXRlZCB3aXRoIFNrZXRjaC48L2Rlc2M+PGcgZmlsbC1ydWxlPSJldmVub2RkIiBmaWxsPSJub25lIiBzdHJva2Utd2lkdGg9IjEiIHN0cm9rZT0ibm9uZSIgaWQ9IlBhZ2UtMSI+PGcgZmlsbC1ydWxlPSJub256ZXJvIiBmaWxsPSIjMUIzMzZGIiB0cmFuc2Zvcm09InRyYW5zbGF0ZSgtOTAxLjAwMDAwMCwgLTEzMjEuMDAwMDAwKSIgaWQ9IlNJUFVTIj48ZyB0cmFuc2Zvcm09InRyYW5zbGF0ZSg5MTkuMDAwMDAwLCAxMzc2LjAwMDAwMCkiIGlkPSJGcmVlU1dJVENIX2xvZ28iPjxwYXRoIGlkPSJQYXRoIiBkPSJNMjI1LjI2MDI5LDE5LjYzMzk5NjQgQzIyNC4zMDcxMzgsMjMuMDI0NTM3IDIyMy4zOTE3OSwyNi4yOTIyIDIyMi40NjU0NDksMjkuNTU5NzgyNiBDMjE5LjAwOTcwMyw0MS43NzU5NDkzIDIxNS41NDg1OTQsNTMuOTkxODQ3OCAyMTIuMTE0NTY1LDY2LjIxOTAwNzIgQzIxMS45NTIwODcsNjYuNzk0Mzg0MSAyMTEuNzQwODEyLDY2Ljk4NDQ3ODMgMjExLjE1MDQyLDY2Ljk3MzY4NTggQzIwOS4yNDkyMSw2Ni45Mjg0NDIgMjA3LjM0MjYzOCw2Ni45NTYzMjYxIDIwNS4zOTc5OTMsNjYuOTU2MzI2MSBDMjAxLjY3MTQ0OSw1NC4wNTg4NzY4IDE5Ny45NTA1MzYsNDEuMTg5MzExNiAxOTQuMjI5MzU1LDI4LjMxNDExNTkgQzE5NC4xNzUxOTYsMjguMzA4NzUzNiAxOTQuMTIxMDM2LDI4LjMwMzEyMzIgMTk0LjA3MjIzOSwyOC4yOTc0OTI4IEMxOTMuOTgwMjc1LDI4LjU0MzM1NTEgMTkzLjg3MTY4OCwyOC43ODg5NDkzIDE5My43OTYwOCwyOS4wNDA0NDIgQzE5MC45Njg1MjksMzguODc2ODExNiAxODguMTQ2NjA5LDQ4LjcwNzgxODggMTg1LjMyNDY4OCw1OC41NDQxODg0IEMxODQuNTc3MTgxLDYxLjE0NzMyNjEgMTgzLjgxODk0OSw2My43NDQ1NjUyIDE4My4wOTg1MjIsNjYuMzU4Njk1NyBDMTgyLjk2MzEyMyw2Ni44MzkxNTk0IDE4Mi43NDY0ODYsNjYuOTY3NTg3IDE4Mi4yODU4NjIsNjYuOTYxOTU2NSBDMTgwLjM1NzU3Miw2Ni45MzQwNzI1IDE3OC40Mjk1NTEsNjYuOTUwOTYzOCAxNzYuNDE0MzkxLDY2Ljk1MDk2MzggQzE3MS45MzQ5NzgsNTEuMjEwMTQ0OSAxNjcuNDY2NTU4LDM1LjQ2Mzk2MzggMTYyLjk3MDc5LDE5LjYzMzk5NjQgQzE2NC4zMzA0MDYsMTkuNjMzOTk2NCAxNjUuNTk3NzksMTkuNjMzOTk2NCAxNjYuODcwNTM2LDE5LjYzMzk5NjQgQzE2Ny40NzcyODMsMTkuNjMzOTk2NCAxNjguMDg5MzkxLDE5LjY3MzA4NzcgMTY4LjY5MDUwNywxOS42MjI4MTU5IEMxNjkuMjE2MDE0LDE5LjU3ODE0NzggMTY5LjQ0MzM3NywxOS43NTY4NzM5IDE2OS41Nzg3NzUsMjAuMjkzMTA1OCBDMTcwLjY0NTg3NywyNC4zNzYyOTcxIDE3MS43NDU0MiwyOC40NDgxNzM5IDE3Mi44MzQyMzksMzIuNTIwMzE4OCBDMTc1LjAwNjI0Niw0MC42NDc0NDkzIDE3Ny4xODM2MTYsNDguNzgwNDc4MyAxNzkuMzU1NjIzLDU2LjkwNzYwODcgQzE3OS40MDQ0Miw1Ny4wOTIwNzI1IDE3OS40ODAyOTcsNTcuMjc2MjY4MSAxNzkuNTQ1MTgxLDU3LjQ1NTEwMTQgQzE3OS42MDQ3MDMsNTcuNDY2MzYyMyAxNzkuNjY0NDkzLDU3LjQ3NzM1NTEgMTc5LjcyNDAxNCw1Ny40ODg2MTU5IEMxODMuMzM2ODc3LDQ0Ljg4MTUzNjIgMTg2Ljk0OTQ3MSwzMi4yODAwODcgMTkwLjU2NzY5NiwxOS42NjE5MzQxIEMxOTIuOTQwMjU0LDE5LjY2MTkzNDEgMTk1LjI3NDczOSwxOS42NjE5MzQxIDE5Ny42NjMzODQsMTkuNjYxOTM0MSBDMjAxLjI3NjI0NiwzMi4yNjM0NjM4IDIwNC44ODg4NDEsNDQuODY0OTEzIDIwOC41MDE3MDMsNTcuNDY2MzYyMyBDMjA4LjU1NTg2Miw1Ny40NzE3MjQ2IDIwOC42MTUzODQsNTcuNDgyOTg1NSAyMDguNjY5NTQzLDU3LjQ4ODYxNTkgQzIwOC43NDU0Miw1Ny4yODE4OTg2IDIwOC44MzIyOSw1Ny4wNzUxODEyIDIwOC44ODY0NDksNTYuODYzMTAxNCBDMjEyLjE0NzAwNyw0NC42ODA0NDkzIDIxNS40MDc4MzMsMzIuNDk4MDY1MiAyMTguNjUyMzA0LDIwLjMxNTQ2NjcgQzIxOC43ODc3MDMsMTkuODAxNTY4OCAyMTguOTgyNjIzLDE5LjYxMTY2MjMgMjE5LjUyNDIxNywxOS42MjI4MTU5IEMyMjEuNDAzNzEsMTkuNjYxOTM0MSAyMjMuMjg4ODMzLDE5LjYzMzk5NjQgMjI1LjI2MDI5LDE5LjYzMzk5NjQgWiIvPjxwYXRoIGlkPSJQYXRoIiBkPSJNMzMyLjU0NDIwMywxOS42Njc0NTcyIEMzMzQuNTU1MDcyLDE5LjY2NzQ1NzIgMzM2LjUyMDM2MiwxOS42Njc0NTcyIDMzOC41Njg3NjgsMTkuNjY3NDU3MiBDMzM4LjU4NDg1NSwxOS45NDExNzY4IDMzOC42MTcwMjksMjAuMjE0ODY5NiAzMzguNjE3MDI5LDIwLjQ5NDE2NTkgQzMzOC42MjIzOTEsMjYuNDcwODk5MyAzMzguNjE3MDI5LDMyLjQ0NzY1OTQgMzM4LjYxNzAyOSwzOC40MjQ1IEMzMzguNjE3MDI5LDM5LjMwNjg2OTYgMzM4LjYxNzAyOSwzOS4zMDY4Njk2IDMzOS40NTA4NywzOS4zMDY4Njk2IEMzNDYuODgzMDQzLDM5LjMwNjg2OTYgMzU0LjMxNTIxNywzOS4zMDY4Njk2IDM2MS43MzkzNDgsMzkuMzA2ODY5NiBDMzYxLjk3Nzk3MSwzOS4zMDY4Njk2IDM2Mi4yMTEyMzIsMzkuMzA2ODY5NiAzNjIuNTMwMjksMzkuMzA2ODY5NiBDMzYyLjUzMDI5LDMyLjc0OTI4OTkgMzYyLjUzMDI5LDI2LjIzMDcyMSAzNjIuNTMwMjksMTkuNjczMDYwOSBDMzY0LjYxNjIzMiwxOS42NzMwNjA5IDM2Ni42MjQ0MiwxOS42NzMwNjA5IDM2OC42NzgxODgsMTkuNjczMDYwOSBDMzY4LjY3ODE4OCwzNS4zOTY5MzQ4IDM2OC42NzgxODgsNTEuMTI2NDkyOCAzNjguNjc4MTg4LDY2LjkwNjE4ODQgQzM2Ni42NzUzNjIsNjYuOTA2MTg4NCAzNjQuNjY5ODU1LDY2LjkwNjE4ODQgMzYyLjU3ODU1MSw2Ni45MDYxODg0IEMzNjIuNTc4NTUxLDU5LjczNDA4NyAzNjIuNTc4NTUxLDUyLjU0NTA5NDIgMzYyLjU3ODU1MSw0NS4yNjcwODcgQzM2Mi4yNjQ4NTUsNDUuMjY3MDg3IDM2Mi4wMzY5NTcsNDUuMjY3MDg3IDM2MS44MDM2OTYsNDUuMjY3MDg3IEMzNTQuMzMxMzA0LDQ1LjI2NzA4NyAzNDYuODU2MjMyLDQ1LjI3MjQ0OTMgMzM5LjM4NjUyMiw0NS4yNTAxOTU3IEMzMzguNzUxMDg3LDQ1LjI1MDE5NTcgMzM4LjU5NTU4LDQ1LjQ0NTY1MjIgMzM4LjYwMDk0Miw0Ni4wNzY3OTcxIEMzMzguNjIyMzkxLDUyLjcyMzkyNzUgMzM4LjYxMTY2Nyw1OS4zNzEwNTggMzM4LjYxMTY2Nyw2Ni4wMTc5MjAzIEMzMzguNjExNjY3LDY2LjMwMjkyNzUgMzM4LjYxMTY2Nyw2Ni41ODc2NjY3IDMzOC42MTE2NjcsNjYuOTA2MTg4NCBDMzM2LjU0NzE3NCw2Ni45MDYxODg0IDMzNC41NjU3OTcsNjYuOTA2MTg4NCAzMzIuNTM4ODQxLDY2LjkwNjE4ODQgQzMzMi41NDQyMDMsNTEuMTcxIDMzMi41NDQyMDMsMzUuNDU4MzMzMyAzMzIuNTQ0MjAzLDE5LjY2NzQ1NzIgWiIvPjxwYXRoIGlkPSJQYXRoIiBkPSJNMTU5LjAxNzE1MiwyMy44MjMyODEyIEMxNTcuMzU0Mjk3LDI1LjM4MTcwNTEgMTU1LjcyMzg4NCwyNi45MTIxMzc3IDE1NC4wNzczODQsMjguNDUzODA0MyBDMTUzLjk4NTE1MiwyOC4zNzU3ODI2IDE1My45MDkyNzUsMjguMzMxMDA3MiAxNTMuODYwNzQ2LDI4LjI2Mzk3ODMgQzE1MS45MjcwOTQsMjUuNjM4NjQwNiAxNDkuMjgzNzM5LDI0LjQ5MzU3MSAxNDYuMTUyOTQ5LDI0LjM5MzAyNzUgQzE0NC4xNTk3NzUsMjQuMzMxNTc1NCAxNDIuMjI2MTIzLDI0LjU4ODUxMDkgMTQwLjQzMzIzMiwyNS41ODI3OTIgQzEzNy40NDg1NjUsMjcuMjM2Mjg5OSAxMzYuMDgzODU1LDMwLjcwNDkwNTggMTM3LjE0NTMyNiwzNC4wMTcyMTAxIEMxMzcuNDQ4NTY1LDM0Ljk3MjUwNzIgMTM3Ljk3NDA3MiwzNS43NjU1OTQyIDEzOC43MTA4NTUsMzYuNDMwMjUzNiBDMTQwLjU0NjkxMywzOC4wODkzNTUxIDE0Mi43NzMwOCwzOC45NDM4NDA2IDE0NS4wNDI2ODEsMzkuNzAzNjgxMiBDMTQ3LjE5ODMzMyw0MC40MjQxMDg3IDE0OS4zOTIwNTgsNDEuMDQ5NjIzMiAxNTEuNTA5OTA2LDQxLjg2NTIzMTkgQzE1My44NzY4MzMsNDIuNzc1NzUzNiAxNTUuOTA4MDgsNDQuMjMzNSAxNTcuNDg0MzMzLDQ2LjMyMjY1OTQgQzE1OC42NzA0NzgsNDcuODk3ODQwNiAxNTkuMjI4NDI4LDQ5LjY5NjM2MjMgMTU5LjQwMTYzLDUxLjYyOTIxMDEgQzE1OS43NDI5NDIsNTUuNDM4NjAxNCAxNTkuMDg3NjY3LDU4Ljk5Njc2ODEgMTU2Ljc4NTYyMyw2Mi4xMTkyNDY0IEMxNTQuNDY3MjI1LDY1LjI2Mzk3ODMgMTUxLjI5ODYzLDY2Ljk3ODg0NzggMTQ3LjYyMDg4NCw2Ny43MjcxNTk0IEMxNDMuMDMzMTUyLDY4LjY2NTU2NTIgMTM4LjU3NTE4OCw2OC4xMDcwNzk3IDEzNC4zMDE2ODgsNjYuMTUxOTc4MyBDMTMyLjE0MDQwNiw2NS4xNjM0MzQ4IDEzMC4zNTMxNDUsNjMuNjgzMTY2NyAxMjguOTEyMjksNjEuNjMzMTUyMiBDMTMwLjU4MDUwNyw2MC4xNTI4ODQxIDEzMi4yNDMzNjIsNTguNjc4MjQ2NCAxMzMuOTQ5NjUyLDU3LjE2NDczMTkgQzEzNC4xODI2NDUsNTcuNDYwNzMxOSAxMzQuMzc3NTY1LDU3LjcxNzU4NyAxMzQuNTc3ODQ4LDU3Ljk3NDQ0MiBDMTM4LjEwNDEwOSw2Mi40ODc5MDU4IDE0NS4xOTQxNjcsNjMuNTc2OTkyOCAxNDkuNzI3NzM5LDYwLjMwMzgzMzMgQzE1Mi4zMjc2NTksNTguNDI3MDIxNyAxNTMuNDc2LDU1LjQ0OTg2MjMgMTUyLjczOTQ4Niw1Mi41MDA1ODcgQzE1Mi40Njg2ODgsNTEuNDI4MTIzMiAxNTEuOTE2MTAxLDUwLjU1Njc0NjQgMTUxLjA3MTI2OCw0OS44NjM5MzQ4IEMxNDkuNDE5MTM4LDQ4LjUwNjczMTkgMTQ3LjUwMTU3Miw0Ny43MDIzODQxIDE0NS41MjQ3NTQsNDcuMDE1MjAyOSBDMTQzLjU1ODM5MSw0Ni4zMzM5MjAzIDE0MS41NTk4NTUsNDUuNzQxNjUyMiAxMzkuNjI2MjAzLDQ0Ljk3NjQ0OTMgQzEzOC4zODAyNjgsNDQuNDg0OTkyOCAxMzcuMTYxNjgxLDQzLjg1OTQ3ODMgMTM2LjA0MDQyLDQzLjEyMjE1OTQgQzEzMi45MjA2MjMsNDEuMDYwODg0MSAxMzAuOTIxODE5LDM4LjIwNjUyMTcgMTMwLjQxMjY2NywzNC4zMzAxMDE0IEMxMjkuODExNTUxLDI5Ljc2MDg2OTYgMTMwLjkyMTgxOSwyNS43ODk0NTU4IDEzNC4yNTI4OTEsMjIuNjE2NzU5NCBDMTM2LjM0OTAyMiwyMC42MjI2NDcxIDEzOC44NTE2MTYsMTkuMzc3MDA3MiAxNDEuNjU3MTgxLDE4LjgyOTYyMTcgQzE0NS41MTM3NjEsMTguMDgxMTIyNSAxNDkuMzMyNTM2LDE4LjM3NzE3NjEgMTUzLjA3NTE2NywxOS41Mjc4MjI1IEMxNTUuNDk2NTIyLDIwLjI3MDc0NDkgMTU3LjQxOTE4MSwyMS43Nzg4OTcxIDE1OS4wMTcxNTIsMjMuODIzMjgxMiBaIi8+PHBhdGggaWQ9IlBhdGgiIGQ9Ik0zMTkuNjUzMTg4LDU1LjgxMjg5MTMgQzMyMS40MDkzNDgsNTcuMTgxMzU1MSAzMjMuMDk4NDc4LDU4LjQ5OTY4MTIgMzI0LjkxODk4Niw1OS45MTgyODI2IEMzMjMuODY3OTcxLDYwLjk5MDc0NjQgMzIyLjk0Mjk3MSw2Mi4xMTkyNDY0IDMyMS44NDEwMTQsNjMuMDI5NzY4MSBDMzE4LjI0MDIxNyw2Ni4wMDY5Mjc1IDMxNC4xMTkyNzUsNjcuNjU0NzY4MSAzMDkuNDkxNTk0LDY4LjA2NzkzNDggQzI5Ni45NjUyMTcsNjkuMTg1MTczOSAyODYuNTU0Mjc1LDYwLjM5MzExNTkgMjg0LjM5MzI2MSw0OC41OTAzODQxIEMyODIuNzA2ODEyLDM5LjM3OTUyOSAyODQuODMwMjksMzEuMTIzOTcxIDI5MS41NzYwODcsMjQuNTIxNDgxOSBDMjk1LjA4NTcyNSwyMS4wODYyNDY0IDI5OS40MTg0NzgsMTkuMzE1NTU1MSAzMDQuMjA3MDI5LDE4LjY3MzIwMjkgQzMwOC45MTI0NjQsMTguMDQyMDA0MyAzMTMuNDM1NTgsMTguNjYyMDIyNSAzMTcuNzU3NjA5LDIwLjcwNjQwNjUgQzMyMC4yMTA4NywyMS44NjI2NTY1IDMyMi41MjQ3MSwyMy44MDA5MjAzIDMyMy44MjUwNzIsMjUuNzI4MDAzNiBDMzIyLjE0NjY2NywyNy4wMzUyMDI5IDMyMC40NjU1OCwyOC4zNDc2MzA0IDMxOC43NjU3MjUsMjkuNjgyODQ3OCBDMzE4LjY0MjM5MSwyOS41NTk3ODI2IDMxOC41NDMxODgsMjkuNDgxNzYwOSAzMTguNDU3MzkxLDI5LjM4NjU3OTcgQzMxNS4wMzM1NTEsMjUuNDI2MzczMiAzMTAuNjkwMDcyLDI0LjA0NjcwMjIgMzA1LjY2Mjg5OSwyNC40ODIzOTA2IEMyOTkuNDE4NDc4LDI1LjAxODYyMjUgMjkyLjc4Nzk3MSwyOS42NjU5NTY1IDI5MC44ODE2NjcsMzguOTM4MjEwMSBDMjg5Ljk5NDIwMyw0My4yNDQ5NTY1IDI5MC4yMDMzMzMsNDcuNTA2OTI3NSAyOTEuODg5NzgzLDUxLjU5MDA2NTIgQzI5NC40Mjg4NDEsNTcuNzUxMTAxNCAyOTguOTQ2NTk0LDYxLjI5MjM3NjggMzA1LjQyOTYzOCw2Mi4wNzQ0NzEgQzMwOC43OTk4NTUsNjIuNDc2NjQ0OSAzMTIuMDM4Njk2LDYyLjA2ODg0MDYgMzE1LjAxNzQ2NCw2MC4yNDgwNjUyIEMzMTYuNTQ1NzI1LDU5LjMxNTAyMTcgMzE3Ljg1MTQ0OSw1OC4xMjUzOTEzIDMxOC45NjY4MTIsNTYuNzA2NTIxNyBDMzE5LjE4Mzk4Niw1Ni40MzI3NzU0IDMxOS4zOTMxMTYsNTYuMTUzNjY2NyAzMTkuNjUzMTg4LDU1LjgxMjg5MTMgWiIvPjxwYXRoIGlkPSJQYXRoIiBkPSJNNi41MzIxODkxMyw0MC41MTMzOTEzIEMxMy41NzM2MTA5LDQwLjUxMzM5MTMgMjAuNTYwODczMiw0MC41MTMzOTEzIDI3LjU4NTkxMyw0MC41MTMzOTEzIEMyNy41ODU5MTMsNDIuNTAyMDA3MiAyNy41ODU5MTMsNDQuNDM0NTg3IDI3LjU4NTkxMyw0Ni40NTEwODcgQzIwLjU4Nzk1MjksNDYuNDUxMDg3IDEzLjU4NDQ0MjgsNDYuNDUxMDg3IDYuNDk5NjY2NjcsNDYuNDUxMDg3IEM2LjQ5OTY2NjY3LDUzLjMwNDkzNDggNi40OTk2NjY2Nyw2MC4wNzQ4NjIzIDYuNDk5NjY2NjcsNjYuODk0OTI3NSBDNC40NDE0MjEwMSw2Ni44OTQ5Mjc1IDIuNDU4OTgyNDYsNjYuODk0OTI3NSAwLjQxNjk2ODU1MSw2Ni44OTQ5Mjc1IEMwLjQxNjk2ODU1MSw1MS4xNzY2MzA0IDAuNDE2OTY4NTUxLDM1LjQ1MjcwMjkgMC40MTY5Njg1NTEsMTkuNjczMDYwOSBDOS45ODI0NjU5NCwxOS42NzMwNjA5IDE5LjU0MjU2ODgsMTkuNjczMDYwOSAyOS4xNDYwNzk3LDE5LjY3MzA2MDkgQzI5LjE0NjA3OTcsMjEuNjExMzI0NiAyOS4xNDYwNzk3LDIzLjU0Mzk4NDggMjkuMTQ2MDc5NywyNS41NjA0NTggQzIxLjYzMzMzNywyNS41NjA0NTggMTQuMTA5ODQyOCwyNS41NjA0NTggNi41MzIxODkxMywyNS41NjA0NTggQzYuNTMyMTg5MTMsMzAuNTcwODQ3OCA2LjUzMjE4OTEzLDM1LjQ4NjIxNzQgNi41MzIxODkxMyw0MC41MTMzOTEzIFoiLz48cGF0aCBpZD0iU2hhcGUiIGQ9Ik02My4yNjk3MzE5LDUzLjI4MjQxMyBDNjMuMjEwMjEwMSw1NC43MTI1NDM1IDYzLjUxMzQ0OTMsNTUuOTUyNTc5NyA2NC4xMTQ4MzMzLDU3LjEwMzA2NTIgQzY1Ljc3NzY4ODQsNjAuMjc1OTQ5MyA2OC40OTEyODk5LDYxLjg2MjEyMzIgNzEuODQ0MDc5Nyw2Mi40NjAwMjE3IEM3NS43MTEzODQxLDYzLjE0NjkzNDggNzguNzg4MDE0NSw2MS42NzIyOTcxIDgxLjMzMzc3NTQsNTguNzU2NTM2MiBDODEuNTkzNTc5Nyw1OC40NjA1MzYyIDgxLjg0ODI4OTksNTguMTY0NTM2MiA4Mi4xNTE1MjksNTcuODE4MTMwNCBDODMuNjAzMTA4Nyw1OC45NjMyNTM2IDg1LjAxNjg4NDEsNjAuMDg1ODU1MSA4Ni40ODQ4MTg4LDYxLjI0Nzg2OTYgQzg1LjM3OTkxMyw2Mi43NTYwMjE3IDg0LjEwMTUzNjIsNjQuMDAxNjg4NCA4Mi42MDY1MjE3LDY1LjAwMTQ5MjggQzc5LjI0MzAwNzIsNjcuMjUyNTk0MiA3NS41MTExMDE0LDY3LjkyODI0NjQgNzEuNTY3NjUyMiw2Ny42ODgyODI2IEM2OC45MDgyMTAxLDY3LjUyMDcxMDEgNjYuNDE2NjA4Nyw2Ni43ODMzOTEzIDY0LjE0NzI3NTQsNjUuMzI1Mzc2OCBDNjAuNTQ1MTM3Nyw2My4wMTI4NzY4IDU4LjQzODI4MjYsNTkuNjExMjg5OSA1Ny41NDQzODQxLDU1LjQxMDcxNzQgQzU2LjQ4ODI3NTQsNTAuNDI4MzE4OCA1Ny4wOTUwMjE3LDQ1LjY4NTg4NDEgNTkuOTE2OTQyLDQxLjQwNzI4OTkgQzYyLjY0MTUzNjIsMzcuMjg1MDA3MiA2Ni41MDM0NzgzLDM1LjA3ODQxMyA3MS4zMDI0ODU1LDM0LjU5ODIxNzQgQzc0LjI4MTUyMTcsMzQuMzAyMjE3NCA3Ny4xOTU0MDU4LDM0LjU4Njk1NjUgNzkuOTAzNjQ0OSwzNS45OTQ1NjUyIEM4NC4wNzk4MTg4LDM4LjE2MTc0NjQgODYuNDYzMTAxNCw0MS43NTM0Mjc1IDg3LjQxMDg5MTMsNDYuMzk1MzE4OCBDODcuNjg3MzE4OCw0Ny43NDE1MjkgODcuODA2MzYyMyw0OS4xMjY2MTU5IDg3LjkyNTY3MzksNTAuNDk1MzQ3OCBDODguMDAxMjgyNiw1MS40MDAyMzkxIDg3Ljk0MTc2MDksNTIuMzEwNDkyOCA4Ny45NDE3NjA5LDUzLjI4MjQxMyBDNzkuNzAzMzYyMyw1My4yODI0MTMgNzEuNTI5ODQ3OCw1My4yODI0MTMgNjMuMjY5NzMxOSw1My4yODI0MTMgWiBNODEuNzUwNjk1Nyw0OC41MDY3MzE5IEM4MS43NTA2OTU3LDQ4LjI3MjEzMDQgODEuNzYxNjg4NCw0OC4wNzY2NzM5IDgxLjc1MDY5NTcsNDcuODgxMjE3NCBDODEuMzgyNTcyNSw0Mi45MzIwNjUyIDc4LjcwNjc3NTQsMzkuOTYwNTM2MiA3NC4zNTE3NjgxLDM5LjMxMjUgQzY5LjYxMjU1MDcsMzguNjAzMDY1MiA2NC45NjUwMjksNDEuNTEzMTk1NyA2My41ODkzMjYxLDQ2LjIyNzc0NjQgQzYzLjM3ODA1MDcsNDYuOTQ4MTczOSA2My4zMTMxNjY3LDQ3LjcxOTAwNzIgNjMuMTcyMTM3Nyw0OC41MDY3MzE5IEM2OS40NjA3OTcxLDQ4LjUwNjczMTkgNzUuNTc1OTg1NSw0OC41MDY3MzE5IDgxLjc1MDY5NTcsNDguNTA2NzMxOSBaIi8+PHBhdGggaWQ9IlNoYXBlIiBkPSJNMTI0LjIzMjMyNiw1My4zMDQ5MzQ4IEMxMTUuODIwNzI1LDUzLjMwNDkzNDggMTA3LjY0MTU4LDUzLjMwNDkzNDggOTkuNDE5NTM2Miw1My4zMDQ5MzQ4IEM5OS4zMTEyMTc0LDU0LjM2MDUwNzIgOTkuNTE2ODYyMyw1NS4zMTAxNzM5IDk5Ljg2OTE2NjcsNTYuMjE1MDY1MiBDMTAxLjIxNzc5LDU5LjY1NTc5NzEgMTAzLjg0NDc5LDYxLjUwNDcyNDYgMTA3LjI0MTAxNCw2Mi4zMTQ3MDI5IEMxMTEuMzAzMjM5LDYzLjI4MDk5MjggMTE0LjY1NjAyOSw2MS45NzM5Mjc1IDExNy4zOTY3MSw1OC44MjkxOTU3IEMxMTcuNjczMTM4LDU4LjUxNjMwNDMgMTE3Ljk0MzkzNSw1OC4yMDM0MTMgMTE4LjI3OTYxNiw1Ny44MTgxMzA0IEMxMTkuNzI1ODMzLDU4Ljk2MzI1MzYgMTIxLjE1NTk2NCw2MC4wOTE0ODU1IDEyMi42MTI5MDYsNjEuMjQ3ODY5NiBDMTIxLjE2MTMyNiw2My4yMDI3MDI5IDExOS40NjAzOTksNjQuNzc3ODg0MSAxMTcuMzY0MjY4LDY1LjgxNjgzMzMgQzExMi43NDQwOTQsNjguMTEyNzEwMSAxMDcuOTU1ODEyLDY4LjQwODcxMDEgMTAzLjExMzYzOCw2Ni43MTA3MzE5IEM5OC45MTU3NDY0LDY1LjIzNjA5NDIgOTUuOTkwODY5Niw2Mi4yNTMzMDQzIDk0LjQ0NzA1OCw1Ny45ODU3MDI5IEM5Mi40NDMxNTk0LDUyLjQ0NDU1MDcgOTIuNjc1ODg0MSw0Ni45ODczMTg4IDk1Ljc1MjUxNDUsNDEuODg3NDg1NSBDOTguNDE3MzE4OCwzNy40NjkyMDI5IDEwMi4zOTg1NzIsMzUuMTE3NTU4IDEwNy40MDM0OTMsMzQuNTk4MjE3NCBDMTEwLjQwNDI0NiwzNC4yODUzMjYxIDExMy4zMzk4NDgsMzQuNTgxMzI2MSAxMTYuMDY0NDQyLDM2LjAwNTgyNjEgQzEyMC40NzMzNDEsMzguMzE4MzI2MSAxMjIuODYxOTg2LDQyLjE2Njg2MjMgMTIzLjY2OTAxNCw0Ny4wODIyMzE5IEMxMjMuOTk5NjAxLDQ5LjA4NzQ3MSAxMjQuMDQ4MTMsNTEuMTQzMTE1OSAxMjQuMjMyMzI2LDUzLjMwNDkzNDggWiBNMTE3Ljg4OTc3NSw0OC41MjMzNTUxIEMxMTcuODg5Nzc1LDQ4LjI2NjUgMTE3LjkwMDUsNDguMDcxMDQzNSAxMTcuODg5Nzc1LDQ3Ljg3NTU4NyBDMTE3LjUyNjc0Niw0My4yNjE1Nzk3IDExNS4xODY4OTksMzkuOTQzNjQ0OSAxMTAuMjkwMjk3LDM5LjI4NDYxNTkgQzEwNS42MjY2ODgsMzguNjUzNDcxIDEwMS4wNzEzOTksNDEuNjA4Mzc2OCA5OS43MjgxMzc3LDQ2LjIzODczOTEgQzk5LjUxNjg2MjMsNDYuOTU5NDM0OCA5OS40NTE5NzgzLDQ3LjcyNDYzNzcgOTkuMzE2NTc5Nyw0OC41MjMzNTUxIEMxMDUuNTg4ODg0LDQ4LjUyMzM1NTEgMTExLjY5MzM0OCw0OC41MjMzNTUxIDExNy44ODk3NzUsNDguNTIzMzU1MSBaIi8+PHBhdGggaWQ9IlBhdGgiIGQ9Ik0yNjUuMTk2NDI4LDY2LjkxNzQ0OTMgQzI2My4xMDU5MjgsNjYuOTE3NDQ5MyAyNjEuMTM5NTY1LDY2LjkxNzQ0OTMgMjU5LjA3MDUxNCw2Ni45MTc0NDkzIEMyNTkuMDcwNTE0LDUzLjE3NjUwNzIgMjU5LjA3MDUxNCwzOS40MzU1NjUyIDI1OS4wNzA1MTQsMjUuNjE2MzMzMyBDMjU0LjA4NzMxMiwyNS42MTYzMzMzIDI0OS4yMDcwNjUsMjUuNjE2MzMzMyAyNDQuMjc4MDIyLDI1LjYxNjMzMzMgQzI0NC4yNzgwMjIsMjMuNjA1NDYzOCAyNDQuMjc4MDIyLDIxLjY3ODM4MDQgMjQ0LjI3ODAyMiwxOS42ODk4NDQ5IEMyNTYuMTM0OTEzLDE5LjY4OTg0NDkgMjY3Ljk5MTUzNiwxOS42ODk4NDQ5IDI3OS45MTg0MDYsMTkuNjg5ODQ0OSBDMjc5LjkxODQwNiwyMS42MDU3NDc4IDI3OS45MTg0MDYsMjMuNTQ5NjE1MiAyNzkuOTE4NDA2LDI1LjU3MTYzODQgQzI3NS4wNDQwNTgsMjUuNTcxNjM4NCAyNzAuMTY0MzQ4LDI1LjU3MTYzODQgMjY1LjE5NjQyOCwyNS41NzE2Mzg0IEMyNjUuMTk2NDI4LDM5LjM3OTUyOSAyNjUuMTk2NDI4LDUzLjEwOTQ3ODMgMjY1LjE5NjQyOCw2Ni45MTc0NDkzIFoiLz48cGF0aCBpZD0iUGF0aCIgZD0iTTM2LjkyOTQ4NTUsMTEuODY0MTg0MSBDMzguOTkzMTczOSwxMC45NjQ4Njk2IDQxLjAzNTE0NDksOS45OTg1MjYwOSA0My4xMjU5MTMsOS4xNzc0MjEwMSBDNTAuMDg2MjAyOSw2LjQ0NTk4OTg2IDU3LjMwNjI5NzEsNC43NTM1MDc5NyA2NC42NTEwNjUyLDMuNTYzNzQzNDggQzcwLjEyNzA2NTIsMi42NzU2MjAxNCA3NS42MzU3NzU0LDIuMTIyNjMxMDEgODEuMTcxMjk3MSwxLjc5MzA3MzYyIEM4Ny4yMzIzMjYxLDEuNDM1NTgzOTEgOTMuMjkzMzU1MSwxLjQwNzY1Njk2IDk5LjM1NDM4NDEsMS43MTQ4NzIyNSBDMTA1LjcyOTY0NSwyLjAzODg0NDc4IDExMi4wNzc4MjYsMi43MDM1NDcxIDExOC4zODI1NzIsMy44MDM5NDg1NSBDMTI2LjI1MjU4LDUuMTc4MDQyNzUgMTMzLjk2MDM3Nyw3LjExNjI3OTcxIDE0MS4zMjY4NjIsMTAuMzQ0ODUxNCBDMTQyLjMxODA4NywxMC43ODA1Mzk5IDE0My4yOTI5NTcsMTEuMjYwOTIzMiAxNDQuNDI0OTQyLDExLjc5MTU1MTQgQzE0My41MjU5NDksMTIuMTc2OTY4MSAxNDIuNzY3NDQ5LDEyLjUwNjUzNjIgMTQyLjAwMzg1NSwxMi44MzA1MDA3IEMxMzkuNzM5NjE2LDEzLjc5MTI2NzQgMTM3LjQ4MTAwNywxNC43NTc1ODQxIDEzNS4yMTE2NzQsMTUuNjg0ODM2MiBDMTM0Ljk0NjIzOSwxNS43OTA5NTY1IDEzNC41MDczMzMsMTUuNzYzMDE4OCAxMzQuMjc0NjA5LDE1LjYwNjYyNjggQzEyOC41MjIxODEsMTEuNjU3NDkzNSAxMjIuMjE3NDM1LDkuMDIxMDI4OTkgMTE1LjU4NzczMiw3LjE0NDIxNzM5IEMxMTEuMDEwNzI1LDUuODQ4MzMyNjEgMTA2LjM1MjQ3OCw0Ljk4ODEwOTQyIDEwMS42MzQ3MSw0LjQ3OTgxNTIyIEM5NS43ODQ5NTY1LDMuODU0MjIwMjkgODkuOTE4ODQ3OCwzLjc1OTI1MzYyIDg0LjA1MjczOTEsNC4yMTcyNzYwOSBDNzYuNjI2NzMxOSw0Ljc5MjYyNjA5IDY5LjM0NzExNTksNi4xODkwNTQzNSA2Mi4yOTQ4NjIzLDguNzAyNjQxMyBDNTcuMTAwMzg0MSwxMC41NTcxMTg4IDUyLjE2MDYxNTksMTIuOTUzNDA1MSA0Ny42NjQ4NDc4LDE2LjI0ODk3OSBDNDcuMzI5MTY2NywxNi40OTQ3NjA5IDQ3LjA2OTA5NDIsMTYuNTUwNjA5NCA0Ni42NzM2MjMyLDE2LjM3NzQ2MDEgQzQ0LjAyNDkwNTgsMTUuMjMyMzkwNiA0MS4zNTQ3MzkxLDE0LjEyNjQxMjMgMzguNzAwNjU5NCwxMi45ODY5MTk2IEMzOC4xMDQ5MDU4LDEyLjcyOTk1NzIgMzcuNTQxNTk0MiwxMi4zOTQ4MTIzIDM2Ljk2NzI4OTksMTIuMDkzMTgxOSBDMzYuOTUxMjAyOSwxMi4wMjA1NzYxIDM2Ljk0MDIxMDEsMTEuOTQyMzY2NyAzNi45Mjk0ODU1LDExLjg2NDE4NDEgWiIvPjxwYXRoIGlkPSJQYXRoIiBkPSJNMjM3LjQwOTk2NCw2Ni45MTc0NDkzIEMyMzUuNDA1Nzk3LDY2LjkxNzQ0OTMgMjMzLjQyODk3OCw2Ni45MTc0NDkzIDIzMS40MDMwOTQsNjYuOTE3NDQ5MyBDMjMxLjQwMzA5NCw1MS4xNTQzNzY4IDIzMS40MDMwOTQsMzUuNDMwNDQ5MyAyMzEuNDAzMDk0LDE5LjY3MzA2MDkgQzIzMy40MTI2MjMsMTkuNjczMDYwOSAyMzUuMzczMzU1LDE5LjY3MzA2MDkgMjM3LjQwOTk2NCwxOS42NzMwNjA5IEMyMzcuNDA5OTY0LDM1LjQwMjU2NTIgMjM3LjQwOTk2NCw1MS4xNDMxMTU5IDIzNy40MDk5NjQsNjYuOTE3NDQ5MyBaIi8+PHBhdGggaWQ9IlBhdGgiIGQ9Ik0zNi4wMzU4NTUxLDY2LjkxMTgxODggQzM2LjAzNTg1NTEsNTYuMzc3MDA3MiAzNi4wMzU4NTUxLDQ1Ljg4Njk3MSAzNi4wMzU4NTUxLDM1LjM0MTE2NjcgQzM3LjkzNzA2NTIsMzUuMzQxMTY2NyAzOS44Mjc1NTA3LDM1LjM0MTE2NjcgNDEuNzgyOTIwMywzNS4zNDExNjY3IEM0MS43ODI5MjAzLDM2LjkyNzM0MDYgNDEuNzgyOTIwMywzOC41MDI1MjE3IDQxLjc4MjkyMDMsNDAuMDc3NzAyOSBDNDEuODMxNDQ5Myw0MC4xMDAyMjQ2IDQxLjg4NTYwODcsNDAuMTIyNDc4MyA0MS45MzQ0MDU4LDQwLjE0NDczMTkgQzQyLjA2NDQ0MiwzOS45MzgwMTQ1IDQyLjE5OTg0MDYsMzkuNzQyNTU4IDQyLjMxOTE1MjIsMzkuNTMwNDc4MyBDNDQuMzkzNTY1MiwzNS44OTQwMjE3IDQ5LjI2ODQ0OTMsMzMuNzQzNDYzOCA1My4xOTUyNzU0LDM0LjczMjI3NTQgQzUzLjU0MTk0OTMsMzQuODIxNTU4IDUzLjc4MDMwNDMsMzQuODg4NTg3IDUzLjc1MzIyNDYsMzUuMzU3Nzg5OSBDNTMuNjQ0OTA1OCwzNy4yMjg5NzEgNTMuNTgwMDIxNywzOS4xMDAxNTIyIDUzLjQ5ODc4MjYsNDAuOTY1OTcxIEM1My40OTMxNTIyLDQxLjA0OTYyMzIgNTMuNDY2MDcyNSw0MS4xMzM1NDM1IDUzLjQ2NjA3MjUsNDEuMTIyMjgyNiBDNTIuMjUyODQ3OCw0MS4wMzMgNTEuMDY2NzAyOSw0MC44MjA2NTIyIDQ5Ljg5NjY0NDksNDAuODg3NjgxMiBDNDguNzkxNzM5MSw0MC45NTQ3MTAxIDQ3LjY0ODc2MDksNDEuMTc4MDUwNyA0Ni42MTk3MzE5LDQxLjU4NTg1NTEgQzQzLjkxNjg1NTEsNDIuNjQ3MzI2MSA0Mi41NzM1OTQyLDQ0Ljg4NzE2NjcgNDIuMDg2MTU5NCw0Ny43MDgwMTQ1IEM0MS45MDE5NjM4LDQ4Ljc1MjMyNjEgNDEuODIwNzI0Niw0OS44MzA0MjAzIDQxLjgxNTM2MjMsNTAuODkxODkxMyBDNDEuNzg4MjgyNiw1NS45NTI1Nzk3IDQxLjgwNDM2OTYsNjEuMDEzMjY4MSA0MS44MDQzNjk2LDY2LjA3Mzk1NjUgQzQxLjgwNDM2OTYsNjYuMzM2NDQyIDQxLjgwNDM2OTYsNjYuNTk4OTI3NSA0MS44MDQzNjk2LDY2LjkwMDU1OCBDMzkuODU5OTkyOCw2Ni45MTE4MTg4IDM3Ljk4NTg2MjMsNjYuOTExODE4OCAzNi4wMzU4NTUxLDY2LjkxMTgxODggWiIvPjxwYXRoIGlkPSJQYXRoIiBkPSJNNTguMzk1MTE1OSwyMS4wNjk1MTU5IEM3Ny42MzQzMTE2LDEwLjYyNDE3NDYgMTA2LjE3OTI3NSwxMS45MzEyMzk5IDEyMi4yOTg2NzQsMjEuMTgxMjM5OSBDMTIwLjQwODQ1NywyMS45ODU1ODc3IDExOC41NTYwNDMsMjIuNzc4NzU1MSAxMTYuNjkyNjM4LDIzLjU0OTU4ODQgQzExNi41NDY1MTQsMjMuNjExMDQwNiAxMTYuMjk3NDM1LDIzLjU1NTE2NTIgMTE2LjE2MjAzNiwyMy40NjAyMjU0IEMxMTAuNDQ3NDEzLDE5LjQ4ODc1OCAxMDQuMDc3NzgzLDE3LjMxNTg5MjggOTcuMjk2MzI2MSwxNi40Mjc3NTg3IEM4OC42NTcwOTQyLDE1LjI5OTQ0NjQgODAuMTk2NDI3NSwxNi4wODE0MzMzIDcyLjAxMjE4ODQsMTkuMzE1NTgxOSBDNjkuNDM5MzQ3OCwyMC4zMzIxOTcxIDY2Ljk4NTU1MDcsMjEuNjAwMTcxIDY0LjY5OTg2MjMsMjMuMTkyMTA5NCBDNjQuMzM2ODMzMywyMy40NDM0NjgxIDY0LjAyODIzMTksMjMuNDc2OTgyNiA2My42MjczOTg2LDIzLjI5ODIyOTcgQzYxLjkyMTEwODcsMjIuNTU1MzM0MSA2MC4yMDQwOTQyLDIxLjgzNDc3MjUgNTguMzk1MTE1OSwyMS4wNjk1MTU5IFoiLz48cGF0aCBpZD0iUGF0aCIgZD0iTTEwMy44MjI1MzYsMjkuMDAxMjk3MSBDMTAyLjQ0NjgzMywyOS41ODc2NjY3IDEwMS4yMzg5NzEsMzAuMTE4NTM2MiAxMDAuMDIwMTE2LDMwLjYxNTYyMzIgQzk5Ljg5MDM0NzgsMzAuNjY1NzYwOSA5OS42ODk3OTcxLDMwLjYxNTYyMzIgOTkuNTQ5MDM2MiwzMC41NDg1OTQyIEM5My40OTMzNjk2LDI3Ljc4OTE0NDkgODcuNDM3NzAyOSwyNy43ODM1MTQ1IDgxLjM3NjY3MzksMzAuNTQ4NTk0MiBDODEuMjM1OTEzLDMwLjYxNTYyMzIgODEuMDMsMzAuNjc3MDIxNyA4MC45MDUzMjYxLDMwLjYyMTI1MzYgQzc5Ljc2Nzk3ODMsMzAuMTUyMDUwNyA3OC42NDEzNTUxLDI5LjY2MDMyNjEgNzcuNTE0NzMxOSwyOS4wOTA1Nzk3IEM4Ni4yMTkxMTU5LDI0LjkxMjUyOSA5NC45MjMyMzE5LDI0Ljg5MDE2ODEgMTAzLjgyMjUzNiwyOS4wMDEyOTcxIFoiLz48L2c+PC9nPjwvZz48L3N2Zz4=;" vertex="1" parent="3mUuBoe2LMrYQuI42Ug3-12">
          <mxGeometry x="20.5" y="47.349999999999994" width="90" height="45" as="geometry" />
        </mxCell>
        <mxCell id="3mUuBoe2LMrYQuI42Ug3-19" value="&lt;font style=&quot;font-size: 10px;&quot;&gt;Network: bridge mode&amp;nbsp;&lt;b&gt;&lt;span style=&quot;background-color: initial;&quot;&gt;voip_net:&amp;nbsp;&lt;/span&gt;&lt;span style=&quot;background-color: initial;&quot;&gt;172.20.0.0/24&lt;/span&gt;&lt;/b&gt;&lt;/font&gt;" style="text;strokeColor=none;align=center;fillColor=none;html=1;verticalAlign=middle;whiteSpace=wrap;rounded=0;" vertex="1" parent="1">
          <mxGeometry x="194" y="180" width="260" height="30" as="geometry" />
        </mxCell>
        <mxCell id="3mUuBoe2LMrYQuI42Ug3-20" value="&lt;font style=&quot;font-size: 10px;&quot;&gt;Hostname: postgres&lt;/font&gt;&lt;div&gt;&lt;font style=&quot;font-size: 10px;&quot;&gt;IP: 172.20.0.10&lt;/font&gt;&lt;/div&gt;&lt;div&gt;&lt;font style=&quot;font-size: 10px;&quot;&gt;Port: 5432&lt;/font&gt;&lt;/div&gt;" style="text;strokeColor=none;align=center;fillColor=none;html=1;verticalAlign=middle;whiteSpace=wrap;rounded=0;fontStyle=1" vertex="1" parent="1">
          <mxGeometry x="177.5" y="350" width="120" height="30" as="geometry" />
        </mxCell>
        <mxCell id="3mUuBoe2LMrYQuI42Ug3-22" value="IP: 192.168.76.211" style="points=[[0,0],[0.25,0],[0.5,0],[0.75,0],[1,0],[1,0.25],[1,0.5],[1,0.75],[1,1],[0.75,1],[0.5,1],[0.25,1],[0,1],[0,0.75],[0,0.5],[0,0.25]];outlineConnect=0;gradientColor=none;html=1;whiteSpace=wrap;fontSize=12;fontStyle=0;container=1;pointerEvents=0;collapsible=0;recursiveResize=0;shape=mxgraph.aws4.group;grIcon=mxgraph.aws4.group_on_premise;strokeColor=#7D8998;fillColor=none;verticalAlign=top;align=left;spacingLeft=30;fontColor=#5A6C86;dashed=0;" vertex="1" parent="1">
          <mxGeometry x="94" y="80" width="636" height="410" as="geometry" />
        </mxCell>
        <mxCell id="3mUuBoe2LMrYQuI42Ug3-24" value="&lt;font style=&quot;font-size: 10px;&quot;&gt;Network: &lt;b&gt;host mode&lt;/b&gt;&lt;/font&gt;" style="text;strokeColor=none;align=center;fillColor=none;html=1;verticalAlign=middle;whiteSpace=wrap;rounded=0;" vertex="1" parent="1">
          <mxGeometry x="494" y="180" width="180" height="30" as="geometry" />
        </mxCell>
        <mxCell id="3mUuBoe2LMrYQuI42Ug3-25" value="&lt;font style=&quot;font-size: 10px;&quot;&gt;Hostname: freeswitch&lt;/font&gt;&lt;div&gt;&lt;font style=&quot;font-size: 10px;&quot;&gt;IP: 192.168.76.211&lt;/font&gt;&lt;/div&gt;" style="text;strokeColor=none;align=center;fillColor=none;html=1;verticalAlign=middle;whiteSpace=wrap;rounded=0;fontStyle=1" vertex="1" parent="1">
          <mxGeometry x="534" y="350" width="120" height="30" as="geometry" />
        </mxCell>
        <mxCell id="3mUuBoe2LMrYQuI42Ug3-26" style="edgeStyle=orthogonalEdgeStyle;shape=arrow;rounded=0;orthogonalLoop=1;jettySize=auto;html=1;fillColor=#FFFFFF;entryX=0.5;entryY=1;entryDx=0;entryDy=0;" edge="1" parent="1" target="3mUuBoe2LMrYQuI42Ug3-22">
          <mxGeometry relative="1" as="geometry">
            <mxPoint x="412" y="390" as="sourcePoint" />
          </mxGeometry>
        </mxCell>
        <mxCell id="3mUuBoe2LMrYQuI42Ug3-28" value="&lt;div&gt;&lt;span style=&quot;font-size: 10px; background-color: initial;&quot;&gt;Port: 5060&lt;/span&gt;&lt;br&gt;&lt;/div&gt;" style="text;strokeColor=none;align=center;fillColor=none;html=1;verticalAlign=middle;whiteSpace=wrap;rounded=0;fontStyle=1" vertex="1" parent="1">
          <mxGeometry x="374" y="494" width="75" height="20" as="geometry" />
        </mxCell>
        <mxCell id="3mUuBoe2LMrYQuI42Ug3-30" style="edgeStyle=orthogonalEdgeStyle;shape=arrow;rounded=0;orthogonalLoop=1;jettySize=auto;html=1;exitX=0.5;exitY=1;exitDx=0;exitDy=0;" edge="1" parent="1" source="3mUuBoe2LMrYQuI42Ug3-22" target="3mUuBoe2LMrYQuI42Ug3-22">
          <mxGeometry relative="1" as="geometry" />
        </mxCell>
        <mxCell id="3mUuBoe2LMrYQuI42Ug3-31" value="&lt;div&gt;&lt;span style=&quot;font-size: 10px; background-color: initial;&quot;&gt;Ports: 5080, 16000-16050&lt;/span&gt;&lt;br&gt;&lt;/div&gt;" style="text;strokeColor=none;align=center;fillColor=none;html=1;verticalAlign=middle;whiteSpace=wrap;rounded=0;fontStyle=1" vertex="1" parent="1">
          <mxGeometry x="527" y="494" width="133" height="20" as="geometry" />
        </mxCell>
        <mxCell id="3mUuBoe2LMrYQuI42Ug3-45" value="SIP accounts" style="shape=table;startSize=30;container=1;collapsible=1;childLayout=tableLayout;fixedRows=1;rowLines=0;fontStyle=0;align=center;resizeLast=1;html=1;whiteSpace=wrap;" vertex="1" parent="1">
          <mxGeometry x="150" y="610" width="180" height="150" as="geometry">
            <mxRectangle x="150" y="610" width="70" height="30" as="alternateBounds" />
          </mxGeometry>
        </mxCell>
        <mxCell id="3mUuBoe2LMrYQuI42Ug3-46" value="" style="shape=tableRow;horizontal=0;startSize=0;swimlaneHead=0;swimlaneBody=0;fillColor=none;collapsible=0;dropTarget=0;points=[[0,0.5],[1,0.5]];portConstraint=eastwest;top=0;left=0;right=0;bottom=0;html=1;" vertex="1" parent="3mUuBoe2LMrYQuI42Ug3-45">
          <mxGeometry y="30" width="180" height="30" as="geometry" />
        </mxCell>
        <mxCell id="3mUuBoe2LMrYQuI42Ug3-47" value="133" style="shape=partialRectangle;connectable=0;fillColor=none;top=0;left=0;bottom=0;right=0;fontStyle=0;overflow=hidden;html=1;whiteSpace=wrap;" vertex="1" parent="3mUuBoe2LMrYQuI42Ug3-46">
          <mxGeometry width="60" height="30" as="geometry">
            <mxRectangle width="60" height="30" as="alternateBounds" />
          </mxGeometry>
        </mxCell>
        <mxCell id="3mUuBoe2LMrYQuI42Ug3-48" value="abc133" style="shape=partialRectangle;connectable=0;fillColor=none;top=0;left=0;bottom=0;right=0;align=left;spacingLeft=6;fontStyle=0;overflow=hidden;html=1;whiteSpace=wrap;" vertex="1" parent="3mUuBoe2LMrYQuI42Ug3-46">
          <mxGeometry x="60" width="120" height="30" as="geometry">
            <mxRectangle width="120" height="30" as="alternateBounds" />
          </mxGeometry>
        </mxCell>
        <mxCell id="3mUuBoe2LMrYQuI42Ug3-49" value="" style="shape=tableRow;horizontal=0;startSize=0;swimlaneHead=0;swimlaneBody=0;fillColor=none;collapsible=0;dropTarget=0;points=[[0,0.5],[1,0.5]];portConstraint=eastwest;top=0;left=0;right=0;bottom=1;html=1;" vertex="1" parent="3mUuBoe2LMrYQuI42Ug3-45">
          <mxGeometry y="60" width="180" height="30" as="geometry" />
        </mxCell>
        <mxCell id="3mUuBoe2LMrYQuI42Ug3-50" value="134" style="shape=partialRectangle;connectable=0;fillColor=none;top=0;left=0;bottom=0;right=0;fontStyle=0;overflow=hidden;html=1;whiteSpace=wrap;" vertex="1" parent="3mUuBoe2LMrYQuI42Ug3-49">
          <mxGeometry width="60" height="30" as="geometry">
            <mxRectangle width="60" height="30" as="alternateBounds" />
          </mxGeometry>
        </mxCell>
        <mxCell id="3mUuBoe2LMrYQuI42Ug3-51" value="abc134" style="shape=partialRectangle;connectable=0;fillColor=none;top=0;left=0;bottom=0;right=0;align=left;spacingLeft=6;fontStyle=0;overflow=hidden;html=1;whiteSpace=wrap;" vertex="1" parent="3mUuBoe2LMrYQuI42Ug3-49">
          <mxGeometry x="60" width="120" height="30" as="geometry">
            <mxRectangle width="120" height="30" as="alternateBounds" />
          </mxGeometry>
        </mxCell>
        <mxCell id="3mUuBoe2LMrYQuI42Ug3-52" value="" style="shape=tableRow;horizontal=0;startSize=0;swimlaneHead=0;swimlaneBody=0;fillColor=none;collapsible=0;dropTarget=0;points=[[0,0.5],[1,0.5]];portConstraint=eastwest;top=0;left=0;right=0;bottom=0;html=1;" vertex="1" parent="3mUuBoe2LMrYQuI42Ug3-45">
          <mxGeometry y="90" width="180" height="30" as="geometry" />
        </mxCell>
        <mxCell id="3mUuBoe2LMrYQuI42Ug3-53" value="135" style="shape=partialRectangle;connectable=0;fillColor=none;top=0;left=0;bottom=0;right=0;editable=1;overflow=hidden;html=1;whiteSpace=wrap;" vertex="1" parent="3mUuBoe2LMrYQuI42Ug3-52">
          <mxGeometry width="60" height="30" as="geometry">
            <mxRectangle width="60" height="30" as="alternateBounds" />
          </mxGeometry>
        </mxCell>
        <mxCell id="3mUuBoe2LMrYQuI42Ug3-54" value="135" style="shape=partialRectangle;connectable=0;fillColor=none;top=0;left=0;bottom=0;right=0;align=left;spacingLeft=6;overflow=hidden;html=1;whiteSpace=wrap;" vertex="1" parent="3mUuBoe2LMrYQuI42Ug3-52">
          <mxGeometry x="60" width="120" height="30" as="geometry">
            <mxRectangle width="120" height="30" as="alternateBounds" />
          </mxGeometry>
        </mxCell>
        <mxCell id="3mUuBoe2LMrYQuI42Ug3-55" value="" style="shape=tableRow;horizontal=0;startSize=0;swimlaneHead=0;swimlaneBody=0;fillColor=none;collapsible=0;dropTarget=0;points=[[0,0.5],[1,0.5]];portConstraint=eastwest;top=0;left=0;right=0;bottom=0;html=1;" vertex="1" parent="3mUuBoe2LMrYQuI42Ug3-45">
          <mxGeometry y="120" width="180" height="30" as="geometry" />
        </mxCell>
        <mxCell id="3mUuBoe2LMrYQuI42Ug3-56" value="136" style="shape=partialRectangle;connectable=0;fillColor=none;top=0;left=0;bottom=0;right=0;editable=1;overflow=hidden;html=1;whiteSpace=wrap;" vertex="1" parent="3mUuBoe2LMrYQuI42Ug3-55">
          <mxGeometry width="60" height="30" as="geometry">
            <mxRectangle width="60" height="30" as="alternateBounds" />
          </mxGeometry>
        </mxCell>
        <mxCell id="3mUuBoe2LMrYQuI42Ug3-57" value="136" style="shape=partialRectangle;connectable=0;fillColor=none;top=0;left=0;bottom=0;right=0;align=left;spacingLeft=6;overflow=hidden;html=1;whiteSpace=wrap;" vertex="1" parent="3mUuBoe2LMrYQuI42Ug3-55">
          <mxGeometry x="60" width="120" height="30" as="geometry">
            <mxRectangle width="120" height="30" as="alternateBounds" />
          </mxGeometry>
        </mxCell>
      </root>
    </mxGraphModel>
  </diagram>
</mxfile>
